<?xml version="1.0" encoding="utf-8"?>
<!-- Generator: Adobe Illustrator 19.0.0, SVG Export Plug-In . SVG Version: 6.00 Build 0)  -->
<svg version="1.1" id="Calque_1" xmlns="http://www.w3.org/2000/svg" xmlns:xlink="http://www.w3.org/1999/xlink" x="0px" y="0px"
	 viewBox="-14 279.4 566.9 283.5" style="enable-background:new -14 279.4 566.9 283.5;" xml:space="preserve">
<style type="text/css">
	.st0{fill:#B22234;}
	.st1{fill:#FFFFFF;}
	.st2{fill:#3C3B6E;}
	.st3{fill:#B9B9B9;}
	.st4{fill:none;}
	.st5{display:none;}
	.st6{display:inline;}
	.st7{fill:#B3282D;}
	.st8{fill:#455CC7;}
</style>
<g id="Calque_1_1_">
	<g id="XMLID_2_">
		<path id="XMLID_61_" class="st0" d="M326.6,310.7c-3.6,1.2-7.4,2.3-10.6,3.9c-49.7-0.2-119.5-5.3-119.5-5.3c-0.5-3-1-6-1.5-8.7
			h79.6c1.5,0,0.9-1.5,0.8-2.5c-0.1-0.9,1.4-1.8,2.8-0.3c1.5,1.8,0.1,5.2,3.4,5.8c1,0.2,5.3,0.2,6.1,1.3c0.8,1.3,4.2-0.4,4.8-0.6
			c1.4-0.6,4.2,0.7,6.1,1c-0.1,0.7,0.6,1.1,1.5,1.2c-0.2,0.4,0.8,1.9,1.5,1.6c0.3-0.1-0.2-0.9,0.2-0.9c1.1,0,2.2,0.6,3.3,1.1
			c0.9,0.4,1.5,0.1,1.8,0.9c0.2,0.5,0.8,0.7,1.3,0.7c2.8,0.2,4.1-1.6,6.7-1.6c0,1.7,3.1,1.3,4,1.3c0.8-0.1,1.8-0.2,2.9,0.3
			C324.1,310.9,324.8,310.3,326.6,310.7z"/>
		<path id="XMLID_59_" class="st1" d="M378.4,336c-3.4-0.1-6.9-0.2-10.4-0.2c-0.1-1.1,1.5-2.6,2.3-2.7s3.2,0.9,4.1,1.3
			C375.7,334.8,377,335.4,378.4,336z"/>
		<path id="XMLID_58_" class="st1" d="M378.6,330.7c-1,1.6-5.4-0.9-6.9,0.2c-0.1,0-0.6,1.3-0.6,1.3c-1.2,0.1-2.1-1.5-3.4-1.9
			c-4-1.2-4.8,1-8.2,0.8c-3.5-0.2-3.5,2.7-6.1,3.4c-0.1-1.1,0.8-1.6,1.2-2.4c-1.9,0.3-2.1,1.4-3.8,1.9c-0.2-0.7-0.3-1.3-0.1-1.8
			c-1.5,0.6-2.4,2-3.2,3.4c-3.8,0-7.7,0.1-11.8,0.3c-48.5,1.5-135.7-7.4-135.7-7.4c-1.1-5.9-2.3-12.7-3.4-19.2
			c0,0,69.7,5.1,119.5,5.3c-1,0.5-1.9,1-2.8,1.6c-1.5,1-2.7,2.4-4.2,3.4c-1.7,1.2-4,1.9-5.3,3.4c3.3,2.6,9.6-1.6,12-1.8
			c0.4,1.2-0.3,2.6-1.1,3.2c0.7,0.2,1.5-0.6,2.1-0.3c1,0.5,0.9,0.7,2.1,0.7c2,0,3.4-1.1,4.8-1.8c1.7-0.8,4.2-0.3,5.7-1.2
			c2-1.1,4.2-2,5.9-3.4c0.1,0.9,1.2,1.4,1.8,2.2c0.6,0.8-0.1,1.5,0.2,2.2c0.3-0.4,3.1-2.7,1.8-0.7c1.6-1.7,4.4-0.2,6.9,1.9
			c2.3,2,3.2,1.2,5.6,1.9c3.3,0.9,4.8-1.4,7.1-2c1.4-0.3,3.2,0,4.7-0.2c1.9-0.1,3.7-0.6,5.5-0.8c-0.1,0.9-0.3,1.8,0,2.9
			c2.1,0.4,3.7,0.2,5.4,0c1.5-0.2,2.5,2.6,1.3,2.8C376.7,328.8,377.5,330.1,378.6,330.7z"/>
		<path id="XMLID_54_" class="st1" d="M526,329.2c0,0.5-0.2,1.6-0.2,2.7c-6-0.1-13.6,0-23.3,0.5c0.5-0.5,0.6-1,0.5-2
			c-0.3-1.3,0.8-2.6,1.6-3.3c1.1-0.9,0.5-2.3,1-3.5c0.8-1.5,2.4-2.6,3.5-3.9c1-1.1,3.5-6.2,5.1-2.1c0.8,2.2,5.5-0.1,6.2-0.3
			c4-1.1,5.5,3.9,5.4,6C525.8,325.3,525.9,327.3,526,329.2z"/>
		<path id="XMLID_56_" class="st0" d="M342.6,341.9c-0.8,0.8-1.9,2.2-1.4,3.7c2.1-0.4,2.7-4,5.8-3.1c1.1,0.3-0.8,3-1,3.3
			c-0.5,1.2-0.3,2.7-1.1,3.8c-1.4,2.1-1.2,4.8-2.4,7c-0.6,1.2-0.9,2.7-0.6,4.2c0,0.2,0.1,0.5,0.2,0.7c-20.7-1.4-44.2-2.4-58.4-3.4
			c-22.5-1.5-80.1-6.6-80.1-6.6c-0.7-5.8-1.4-11.3-2.3-16c-0.4-2.1-0.8-4.5-1.3-7.1c0,0,87.3,8.9,135.7,7.4c4.1-0.1,8-0.2,11.8-0.3
			c-0.7,1.2-1.3,2.5-2,3.4c-0.4,0.5-0.2,1.3-0.7,1.8C344.3,341.4,343.1,341.4,342.6,341.9z"/>
		<path id="XMLID_57_" class="st0" d="M389.8,365.9c0.6-1-1.2-1.6-1.6-0.7c-0.1,0.2-0.1,0.5-0.2,0.7c-6.5-0.3-11.6-0.7-14.8-1.2
			c-4.4-0.7-9.9-1.3-16.2-1.9c-0.4-1.5-1.1-3.5-0.2-4c-3.1-1.3-2.2-3.8-1.8-5.3c0.3-0.9-0.4-1.9-0.3-2.9c0-1,1.4-1.8,1.9-2.7
			c0.5-1,0.4-1.9,0.4-3.1c0-1,1.1-1.1,1.6-1.8c0.7-0.8,0.6-1.3,1.9-1.6c1.6-0.3,1.6-2,2.9-2.5c-0.4,1.2,0.1,2.7-0.6,3.8
			c0.6-0.3,1-0.8,1.2-1.4c0.2,0.7,0,1.4-0.4,1.8c1.6-0.8,1.6-2.5,1.6-4.2c0-2,2.9-1.2,4.3-2.2c-1.1-0.1-1.5-0.6-1.6-1.1
			c3.5,0.1,7,0.1,10.4,0.2c0.9,0.4,1.8,0.7,2.7,1c1.9,0.6,3.7,2.6,2.5,3.2c-1.1,0.6,0.3,2.5,0.6,3.7c0.3,1.4,0.2,3.7-1.2,4.1
			c-1.5,0.5-1.2,2.1-2.5,2.8c-1.2,0.6-2.9,1.3-2.4,3.1c0.6,2.2,3.1,0.5,3.7,0.3c1.2-0.4,4-5.4,6.7-3.3c2,1.6,2.1,5.7,2.7,7.4
			C392,360.4,392.9,365.6,389.8,365.9z"/>
		<path id="XMLID_197_" class="st0" d="M533,343.1c-0.4,0.6-1.4,0.8-2.2,1c-1,0.2-1.8,0.3-2.5,0.9c-0.5,0.4-2.3,2-2.2,0
			c-0.8,0.3-1,1.2-2,1.2c-0.7,0-0.1,1.3-0.9,1.5c-0.2-0.5-0.7-1.9-1.7-1.7c-1.1,0.3-1.1,1.9-2,0.2c0.3,0.8,0,0.7-0.7,0.7
			s0,1.6,0.1,1.9c-1.9-0.9-2.1-2-2.4-3.4c0,1-1.2,1.1-1.7,1.8c-0.5,0.8-0.5,1.9-0.9,2.7c-1.1,1.9-3.2,0.9-4,3
			c-0.4-0.6-0.7-0.7-0.6-1.3c-0.2,0.3-0.4,0.5-0.6,0.8c-0.3-2.2-1.1,0.2-1,0.8c-0.3-0.9-0.6-1.9,0-2.6c-0.5,0.3-0.8,0.6-0.9,1.1
			c0.9-0.2,0.5,2.2,0.2,2.6c-0.2-0.4-0.4-0.8-0.6-1.1c-0.2,0.3-0.9,1-0.8,0.7c-0.3,0.3-0.2-0.8-0.1-1.2c-0.8,0.6-2.7,1.2-2.3,2.5
			c0.1,0.4-1.3,2.1-1.7,2.3c-1.4,1-5.9,6-2.2,8c-0.2,0.1-0.5,0.3-0.9,0.5c-22,1-52.7,1.3-78.6,1c1.3-1,2.9-1.9,4.1-3.1
			c0.7-0.6,0.5-3.3-1.4-3.3c0.8-2.1,1.9-2.6,4.8-2.9c1.6-0.2,3.5-0.2,5.2,0.1c1.4,0.2,3,1.6,4.3,1.3c1.5-0.4,3.2-0.2,4.8-0.3
			c1.8-0.2,2.9-1.3,4.4-1.9c1.1-0.5,2.7-0.4,2.5-1.9s0.5-2.6,1.4-3.5c-0.6,0.3-1.8,0.6-1.3-0.7c-0.8,0.7-1.2,0.2-1-0.5
			c0.3-0.6,1.1-1,1.7-1.3c2-0.9,3.2-2.2,4.7-3.6c1.6-1.5,3.6-3.4,6.2-3.9c3.3-0.6,7.4-0.1,11.1-0.2c5.4-0.1,10.7-0.2,16.2,0
			c1.1,0,4.2,0.5,4.6-0.5c0.2-0.8,0.4-1.8,1.1-2.3c0.8-0.5,2.3-0.2,3.2-0.9c0.3,0.3,0.6,0.6,0.9,0.9c1-0.5,0.1-1.5,1.5-1.4
			c-0.3,0,2.1-3.3,2.4-3.6c0.5-0.4,0.9-0.7,1.2-1c9.7-0.5,17.3-0.6,23.3-0.5c0,0.9,0.1,1.8,0.7,2.3c1.3,1.1,2.5,0,2.5,1.7
			c-0.1,1.2-0.5,2.4,1.1,3.6c0.5-0.7,1.4-0.4,2.1,0.5c0.8,1.1-0.3,1.4-0.1,2.4C533,341.6,533.3,342.5,533,343.1z"/>
		<path id="XMLID_201_" class="st1" d="M505.8,374.3c-0.3,1.2-4.9,2-6.4,1.8c0-0.6,0.1-1.2,0.2-1.8c-1.6,0.9-3.1,2.3-5.2,2.4
			c0-0.9-0.1-1.9,0.5-2.6c-0.8,0.4-1.3,1.6-2.2,0c-0.9,1.9-0.3,3.7-3.2,4.2c-0.6,0.1-5.3,0.8-5.7-0.2c0.4,1.1-1.4,1.1-2.3,1.1
			c-1.9,0-2.8,0-4.3,0.6c-2.7,1.2-5.4,2.2-7.5,3.9c-0.1,0.6-0.5,1-1.3,1.3c-2.2,0.7-1.7,2.4,1,2.7c0,0.1,0,0.2,0,0.2
			c-4.3,0-8.3,0-12.1,0c-0.8,0-1.7,0-2.5,0c-3.2,0-6.3,0-9.3-0.1c-0.7,0-1.4,0-2,0c-4-0.1-7.7-0.1-11.1-0.2c-0.8,0-1.5,0-2.2,0
			c-1.5,0-3-0.1-4.4-0.1s-2.7-0.1-4-0.1c-2.2-0.1-4.3-0.1-6.3-0.2c-0.9,0-1.8-0.1-2.7-0.1c-1.1,0-2.2-0.1-3.2-0.1c-0.5,0-1,0-1.5,0
			s-1,0-1.5,0c-21.2-0.7-89.4-6.2-113.1-9.9c-23.7-3.7-86.7,1.5-86.7,1.5c-1.2-7.9-2.2-17.6-3.3-26.7c0,0,57.6,5.1,80.1,6.6
			c14.1,1,37.7,2,58.4,3.4c0.4,1.2,1,2.4,0.6,3.5c-0.8,2,0.5,6.6,2.6,9.1c1.7,2.1,4.5,0.8,5.6,0.2c2.6-1.3,4.1-3.6,5.2-6.1
			c0.6-1.3,1.1-2.7,1.1-4.3c0-0.3-0.1-0.8-0.2-1.3c6.2,0.6,11.7,1.2,16.2,1.9c3.2,0.5,8.3,0.9,14.8,1.2c-0.1,0.6-0.1,1.2-0.5,1.7
			c-0.5,0.7-1.4,1.1-2,1.8c-0.6,0.7-0.7,1.7-1.3,2.4c-0.5,0.5-3,2.5-0.8,3.1c0.8,0.2,1.6,0.4,2.4,0.6c0.4,0.2,0.8,0.4,1.1,0.7
			c0.6,0.3,1.5,0,2.2,0.3c-0.9,0.2-1.9,0.2-2.6,0.6c1.2,0.5,1.8-0.2,2.9-0.1c0.7,0.1,1.5,0.4,2.2,0.4c2.2,0.1,3.8-0.8,6.1-0.8
			c2.2,0.1,3.4-1.7,4.8-2.5c1.7-1,3.9-1.5,5.9-2.1c4.1-1.3,8.2-2.9,11.4-5.3l0,0c25.9,0.3,56.5,0,78.6-1c-1.1,0.6-2.8,1.6-2.3,2.5
			c0.3,0.6,1.9,0.8,2.5,1.3c1.5,1.4,0.8,3,2.9,4.4c1.9,1.1,4.1,0,3.8-1.6c-1.1,0-0.6-1-2-1.7C505.3,370.6,506.1,373.3,505.8,374.3z"
			/>
		<path id="XMLID_194_" class="st0" d="M468.3,393.8c0.1-0.6,0.2-1.1,0.3-1.7c-2.1,0-0.7,5.2-3.1,5c-0.8-0.1-1.6,2.8-1.9,3.3
			c-0.7,1.1-1.6,2.5-3.3,2.6c0-0.5,1-1.9-0.1-2.5c-1.8-0.9-2.8-1-4.4-2.5c-2.9-2.8,1.6-3.7,2.6-4.9c-1.9,0.9-5.4,2.2-3.1,5.2
			c1.3,1.7,1.3,3.5,2.8,5.3c1.2,1.5,1.3,2.5,0.4,3.1c1.5,0.3,1.3,1.5,1,2.1c0.2-2-0.3-0.2-0.3,0.3c0,0.7-1,1.2-1.4,1.6
			c-1.1,1.2-1.7,2.6-2.4,4.1c-0.9-0.1-1.7-0.3-2.4-0.4c-0.2,0-0.3-0.1-0.5-0.1c-1.4-0.3-2.9-0.7-4.6-1l0,0c-1.6-0.3-3.4-0.7-5.3-1.1
			l0,0c-26.7-5.3-80-13.1-119.2-11.1c-44.7,2.3-109,6.6-109.9,6.7c-2.1-9-4-16.8-4.9-20.6c-0.6-2.5-1.2-5.5-1.7-8.8
			c0,0,63.1-5.2,86.7-1.5c23.7,3.7,91.9,9.2,113.1,9.9c0.5,0,1,0,1.5,0s1,0,1.5,0c1,0,2.1,0.1,3.2,0.1c0.9,0,1.8,0.1,2.7,0.1
			c2,0.1,4,0.1,6.3,0.2c1.3,0,2.6,0.1,4,0.1s2.9,0.1,4.4,0.1c0.7,0,1.5,0,2.2,0c3.4,0.1,7.1,0.2,11.1,0.2c0.7,0,1.3,0,2,0
			c2.9,0,6,0.1,9.3,0.1c0.8,0,1.6,0,2.5,0c3.8,0,7.8,0,12.1,0C469.7,390.1,468.8,392,468.3,393.8z"/>
		<path id="XMLID_188_" class="st1" d="M448.2,415.1c-1.6,2.4-4.2-1.2-5.6-3c1.9,0.4,3.7,0.7,5.3,1.1l0,0
			C448.8,413.9,448.7,414.3,448.2,415.1z"/>
		<path id="XMLID_199_" class="st1" d="M452.2,428.8c-0.1,0-0.2,0-0.3-0.1c-0.4-0.1-0.7-0.2-1.1-0.2c-17.9-4-39.6-8-57.8-6.5
			c-32.6,2.7-173.8,10-173.8,10c-1.8-7.7-3.8-16.5-5.6-24.3c0.9-0.1,65.2-4.4,109.9-6.7c39.2-2,92.5,5.9,119.2,11.1
			c0.4,1.6,2.6,4,4.3,4.8c2.1,1,2.2,2.4-0.2,2.1c0.2,0.3,0.5,0.6,0.7,0.9c-0.5,0.3-1,0.2-1.5-0.1c1.6,1.3,3.1,2.7,1,3.5
			c-2.1-3.1-4.2-2.8-7.5-3.9c0.5,0.6,2.5,0.7,3.5,1.2c1.3,0.7,4,2.4,3.2,3.8c0.4-0.6,1.1-0.5,1.9,0.1c-0.6-1.4,1.1-0.9,2-0.7
			c1.2,0.3,1.2,1.1,1.5,2.1C451.7,426.9,451.9,427.8,452.2,428.8z"/>
		<path id="XMLID_187_" class="st1" d="M455.4,414.8C455.4,414.8,455.3,414.8,455.4,414.8c-0.7,1.4-2,2.4-2.6,3.7
			c-0.4,0.8-0.4,2.9-1.7,2.8c-1.1-1.9,0.2-3.9,1-5.3c0.2-0.3,0.5-1.1,0.9-1.7C453.7,414.5,454.5,414.7,455.4,414.8z"/>
		<path id="XMLID_93_" class="st0" d="M452.6,437.4c-1.6-0.9-1.8,1.1-2.3,1.8c-0.8,1.2-3.4,0.5-4.9-0.2c0.1-0.3,0.2-0.6,0.4-0.9
			c-0.7,0.2-1,0.7-0.6,1.4c-1.4-0.6-2.8-0.4-4.1-1.2c0.9,0.7,5.9,2.3,4.2,3c-0.6,0.3,0.1,1.1-0.4,1.6c-1.2,1-2,0.9-3.8-0.2
			c0.5,1.2,1.5,1.6,2.6,1.5c0.8-0.1,3-1.1,2.9,0c0.3-0.2,0.7-0.4,1.1-0.5c-0.3,0.8-0.8,1.7-1.5,2.1c-19.5,1.4-41.3,3.7-62.6,2.7
			c-40.1-1.9-151.2,11.3-152.5,11.5l0,0l-7.3-6.9l0,0l0,0V453c0,0,0,0,0-0.1s0-0.2-0.1-0.3c0-0.1-0.1-0.3-0.1-0.4
			c0-0.1-0.1-0.3-0.1-0.5c-0.1-0.4-0.2-0.9-0.4-1.6l0,0c0-0.2-0.1-0.3-0.1-0.5c-0.1-0.2-0.1-0.5-0.2-0.8c0-0.2-0.1-0.5-0.2-0.7
			c-0.1-0.3-0.2-0.7-0.3-1.1c-0.3-1.4-0.7-3.1-1.1-4.9c-0.1-0.6-0.3-1.1-0.4-1.7c-0.2-0.7-0.3-1.3-0.5-2c-0.1-0.3-0.1-0.6-0.2-0.9
			c-0.2-0.7-0.3-1.4-0.5-2.1v-0.1c-0.1-0.5-0.2-1-0.3-1.5s-0.2-1.1-0.4-1.6c0,0,141.3-7.3,173.8-10c18.2-1.5,39.9,2.5,57.8,6.5
			c0.7,1.3,1.6,2.5,1.3,3.7c-0.1-0.7-0.5-1.3-1.1-1.8c-0.1,0.9-0.8,1-1.7,0.3c0.3,0.3,0.5,0.6,0.8,1c-0.6,0.4-1.3,0.3-2-0.3
			c1.5,1.7-0.8,0.4-1.5,0.1c0.4,0.3,0.7,0.6,1,0.9c-0.8,0.2-1.3,1.2-2.5,0.6c-1.3-0.6-1.2-1.9-0.9-2.7c-0.4,0.4-0.7,3.2,0.2,3.6
			c0.8,0.4,1.5-0.5,2.3-0.3c0.6,0.2,3.2-0.7,3.5,0.5c0.2,0.8,0.1,2-0.3,2.7c0.7-0.3,0.9-0.9,0.8-1.6c0-1,1.2-0.7,1.6-1.3
			C453.4,435.2,452.4,436.1,452.6,437.4z"/>
		<path id="XMLID_90_" class="st0" d="M454.3,434.6c-0.5-1.4-1.1-2.8-1.9-4.2c-0.4-0.6-0.4-1.2-0.5-1.7c0.1,0,0.2,0,0.3,0.1l0,0
			c0.1,0.3,0.1,0.5,0.2,0.8C452.7,431.3,454.3,433,454.3,434.6z"/>
		<path id="XMLID_89_" class="st1" d="M411.5,521.1c-6.6,0.5-13.6,1.2-20.5,1.8c-0.3-0.7-0.8-1.4-1.5-1.8c1.4-0.1,3.3-3.2,2.2-4.6
			c-0.3,0.2-0.5,0.4-0.8,0.6c-0.1-0.8-0.7-1.3-1.4-1.6c-0.3,0.6-0.2,1.1,0.6,1.6c0.7,0.4-0.3,1.7-0.5,2c-0.6-0.6-1.1-1.5-0.6,0
			c-2-3.5,0.8-6.8,0.9-10.1c0-1.2-0.2-2.2-0.7-3.4c-0.9-2-1.6-1.4-3.1-2.5c-0.3-0.3-0.7-0.5-1-0.8c6.3-0.5,12.5-1.1,18.7-1.7
			c1,2.7,2.4,5.3,3.9,7.7c1.1,1.8,1.1,2.2,1,4c-0.1,1.7,0.8,3.3,1.4,5c-1.1-1.8-1.9-3.7-1.5-5.5c0.4-2.1-1.6-1.6-2.1-3.3
			c0.7,3.2,1.9,6.2,3.4,9.2C410.3,518.5,411,519.8,411.5,521.1z"/>
		<path id="XMLID_88_" class="st0" d="M413.3,537.1c-0.5,2.1-1.2,6.6-3.2,7.8c-0.7,0.4-0.6-1.3-1.3,0c-0.5,0.9-1.6,0-2.4,0.3
			c-1.3,0.5-3.6-0.2-2.3-1.8c0.4,0.6,1,1.1,1.7,1.3c0.2-0.9-1.6-1.9-2.1-2.6c-1.1-1.6-0.7-3.2-2.8-4.3c-1.2-0.6-2.4-0.7-2.9-2.2
			c-0.5-1.4,0-3.5-2-4.3c1-0.3,1.3-1.4,2-2c-0.9,0.3-1.2,1.3-2,1.6c-0.7,0.3-0.9-3.8-0.5-4.3c-0.5,0.4-1.1,0.4-1.8-0.1
			c1.6,1.4-0.3,1.7-1.4,0c-0.6-1-0.8-2.4-1.3-3.5c6.9-0.6,13.8-1.3,20.5-1.8c0.5,1.2,0.7,2.4,0.2,3.1
			C414.6,523.8,413.6,535.8,413.3,537.1z"/>
		<path id="XMLID_86_" class="st1" d="M255.8,537.8c-1.2,0.2-2.6-1.9-4.1-1.9c-1.2,0-2.7,0.3-3.9-0.3c-1.5-0.8-3.4-2.5-5.1-2.7
			c-2.9-0.4-3.4-2.2-4.4-4.8c-0.1-0.2-0.1-0.3-0.2-0.4c5.2-0.1,10.4-0.4,15.9-0.8c0,0.8,0.8,2,1,2.5c0.5,1.9,0.4,5.9,2.4,7.4
			c0.2-0.3,0.5-0.5,0.7-0.8C258.4,536.9,256.4,537.8,255.8,537.8z"/>
		<path id="XMLID_85_" class="st0" d="M278.7,501.6c-1.1,1.5-2.6,2.4-3.7,4c-1.4,2.1-5.3,1.7-6.6,3.7c0.5-0.2,1.1-0.3,1.6-0.5
			c-1.2,0.8-2.6,1.5-4,2c0.5-0.6,1.4-0.9,1.9-1.6c-0.6,0.2-1.1,0.4-1.6,0.6c1.1-0.8-1.8-0.6-2.4-1.6c0.3,0.6,0.3,1.1,0,1.6
			c-0.4-2.6-2.9,1.5,0.4,1.4c-0.8,1-2.4,1.5-3.6-0.2c0.5,1.4-1.2,4.5-1.3,2.7c-0.3,1.3-2.3,0-2.4,1.5c0.8,0.2,1.4,0,1.7-0.5
			c0.4,2.7-2.5,2.2-4.3,2.8c0.4,0,0.7,0.1,1.1,0.1c-0.1,0.6,0.5,1.1,0.8,1.6c0.4,0.7-0.5,2.1-0.7,2.6c-0.5,1.2-2.2,1.4-3.3,0.2
			c0.4,0.5,0.4,1,0.2,1.5c0.9,0.2,1.9,0.4,2.6-0.1c0,0.9-0.1,2.5-0.9,3c-0.2,0.1-0.2,0.3-0.2,0.5c-5.4,0.4-10.7,0.6-15.9,0.8
			c-0.7-1.5-1.4-2.9-1.7-4.5c-0.1-0.8,0-1.5-0.2-2.2c-0.3-1.1-1.9-1.5-2.7-2.4c-1.2-1.4-1.7-3-3.1-4.3c-1.3-1.3-2.1-2.7-2.8-4.2
			s-1-3-1.8-4.5c-0.4-0.7-1-1.3-1.4-2c-0.5-0.9-1.8-1.4-2.1-2.2c-0.6-1.4-2.8-1.9-3.4-3.5c-0.1-0.2-3-0.5-3.3-0.6
			c-3-0.4-6.1-0.5-8.3,1c-2.4,1.6-1.7,5.7-4.4,7.3c-1.2,0.7-3.4-1-4.6-1.6c-1.1-0.6-2.3-1.1-3.4-1.7c-0.8-0.5-1.9-1.8-2.7-2.1
			c-1.8-0.6-2.9-3-3.2-4.5v-0.1c20.8-1.4,57.6-1.4,88.6,5C277.8,501,278.3,501.5,278.7,501.6z"/>
		<path id="XMLID_55_" class="st0" d="M280.1,501c-0.3,0.2-0.7,0.5-1,0.7c0.2-0.3,0.4-0.6,0.6-0.8C279.9,501,280,501,280.1,501z"/>
		<path id="XMLID_87_" class="st1" d="M285.9,498.7c-2.1,0.4-4.1,1.2-5.7,2.3c-0.1,0-0.2-0.1-0.3-0.1c-0.8-0.2-1.6-0.3-2.4-0.5
			c-31-6.4-67.8-6.4-88.6-5c-0.2-0.9,0-1.7-0.4-2.7c-0.4-0.9-1-1.8-1.1-2.7c-0.3-1.7-2.1-2.4-3.6-3.2c-2.1-1.2-4.2-3.7-5.9-5.5
			c-1.4-1.4-2.6-1.2-3.8-3.1c-1.4-2.2-4.5-1.5-6.2-1.5c-2.7,0-5.4,0.1-8.1,0c-3-0.2-2.7,1.3-2.9,3.4c-0.2,2.7-6.8,1.3-9.2,1.3
			c-5,0-9.9,0.4-14.9,0.2c-2.4-0.1-5-1.5-7.4-2.4c-3.3-1.2-6.7-2.1-10-3.2c-6.3-2.1-12.5-4.4-18.8-6.8c0-0.9,0.6-1.4,0.8-2.1
			c-7.5,0.2-14.6,1.2-21.9,1.9c-0.9-2-1-3.9-1.8-5.9c-1-2.4-3.2-3.4-5.4-5.1c-2.3-1.8-1.8-0.8-3.9-1.4c-1.4-0.4-0.2-3.5-3.7-3.4
			c-2.1,0.1-3.2-0.5-5.2-2.2c-2-1.8-4.3-1.5-6.4-1.9c-1.4-0.3-5,0.5-5.6-1.9c-0.4-1.5,0.6-2.9,0-4.4l0,0c0.5,0,1.1-0.1,1.6-0.1
			c0.7,0,1.4-0.1,2-0.2c1.4-0.1,2.8-0.2,4.2-0.3c0.4,0,0.7,0,1.1-0.1c1.4-0.1,2.8-0.2,4.3-0.2c1.1,0,2.1-0.1,3.2-0.1
			s2.1-0.1,3.2-0.1c2.1,0,4.2,0,6.3,0c2.1,0,4.1,0.1,6.1,0.2l0,0c0.9,0,1.9,0.1,2.8,0.2c1.8,0.1,3.6,0.3,5.4,0.5
			c0.9,0.1,1.7,0.2,2.6,0.4c1.3,0.2,2.6,0.4,3.9,0.7c3.2,0.7,6,1.5,8.5,2.6c24,10.4,57.3,19.3,96.2,20.1c38.3,0.8,52.6,4.8,53,4.9
			l0,0c4.5,3.2,9.6,6.8,14.8,10.4l0,0C270.7,487.7,279.1,493.8,285.9,498.7z"/>
		<path id="XMLID_84_" class="st1" d="M211.9,443.6c-1-0.2-38.6-9.3-62.6-6.9c-24.4,2.4-49.5-7-72.6-16.9
			c-12.8-5.5-32.9-6.4-48.3-6.1c-0.5,0-1,0-1.5,0s-0.9,0-1.3,0l0,0c-1.3-0.8-3.1-2.4-3.5-1.3c0.2-0.8,0.1-2.6,1.6-0.8
			c-0.4-0.8-0.9-1.6-1.8-2.2c-0.5-2.3-5.2-4.3-6.2-7c-1.1-3,0.1-5.7-1.5-8.7c-0.6-1.2-4.3-3.8-4.4-4.6c0-0.3,0-0.5,0-0.7
			c0.6,0,1.3-0.1,2-0.1c0.3,0,0.6,0,0.9,0c1,0,2-0.1,3-0.2c0.3,0,0.7,0,1,0c2.5-0.1,5.2-0.3,7.9-0.5c0.9,0,1.8-0.1,2.8-0.2
			c1.5-0.1,3-0.2,4.4-0.3c0.9-0.1,1.8-0.1,2.7-0.2c0.5,0,1.1-0.1,1.6-0.1c14.7-1.1,44.6,7.2,55.6,11.9c11.1,4.8,54.4,9.6,68.5,11.9
			c1.8,0.3,4.1,1.2,6.9,2.5c3.6,1.8,7.9,4.3,12.5,7.2c4.3,2.8,8.9,5.9,13.4,9.2l0,0c4,2.8,7.9,5.7,11.5,8.4
			C207.2,439.9,209.7,441.9,211.9,443.6z"/>
		<path id="XMLID_53_" class="st0" d="M27,413.7c-0.1,0.3-0.3,0.4-0.6,0.3c-0.2,0-0.4-0.1-0.7-0.3C26.1,413.8,26.5,413.7,27,413.7z"
			/>
		<path id="XMLID_64_" class="st0" d="M247.6,471.4c-0.4-0.1-14.7-4.1-53-4.9c-38.9-0.8-72.2-9.7-96.2-20.1
			c-2.5-1.1-5.3-1.9-8.5-2.6c-1.3-0.3-2.6-0.5-3.9-0.7c-0.8-0.1-1.7-0.3-2.6-0.4c-1.7-0.2-3.5-0.4-5.4-0.5c-0.9-0.1-1.9-0.1-2.8-0.2
			l0,0c-2-0.1-4.1-0.2-6.1-0.2c-2.1,0-4.2,0-6.3,0c-1.1,0-2.1,0-3.2,0.1c-1.1,0-2.1,0.1-3.2,0.1c-1.4,0.1-2.8,0.1-4.3,0.2
			c-0.3,0-0.7,0-1.1,0.1c-1.4,0.1-2.8,0.2-4.2,0.3c-0.7,0-1.4,0.1-2,0.2c-0.5,0-1.1,0.1-1.6,0.1c-0.7-1.5-2.5-1.2-2.3-2.9
			c0.2-1-1.9-2.3-3-3.1c-1.2-0.8-1.6-1.8-2.1-2.9c-0.8-1.5-3.8-3.1-4-4.5c-0.4-2.2-0.1-2.2,0.8-3.6c1-1.7-0.8-2.1-2.8-3.1
			c-3-1.5-1.7-2.9-3-4.7c-0.8-1.1-0.7-3.5,0.6-3.6c0.3,0.6-0.1,1.2,0.3,1.7c0.5,0.7,1.7,1.3,2.5,1.8c-0.2-1.5-1.5-3.1-1.7-4.4
			c15.4-0.3,35.5,0.6,48.3,6.1c23.1,9.9,48.3,19.4,72.6,16.9c24-2.4,61.6,6.7,62.6,6.9l0,0c1.2,0.9,2.2,1.7,3.3,2.5
			c0.8,0.6,1.5,1.2,2.2,1.7c1.6,1.3,3,2.3,4,3.2c0.1,0.1,0.2,0.2,0.3,0.3c0.4,0.3,0.7,0.6,1,0.8c0.1,0,0.1,0.1,0.2,0.1
			c0.5,0.4,0.8,0.7,0.9,0.7l0,0l7.3,6.9l0,0C231.5,460.1,238.3,464.9,247.6,471.4z"/>
		<path id="XMLID_48_" class="st2" d="M7.6,362.1c0,0.2,0,0.4,0,0.6V362.1L7.6,362.1z M223.8,452.9v-0.1c0,0,0,0,0-0.1
			s0-0.2-0.1-0.3c0-0.1-0.1-0.3-0.1-0.4s-0.1-0.3-0.1-0.5c-0.1-0.4-0.2-0.9-0.4-1.6l0,0c0-0.2-0.1-0.3-0.1-0.5
			c-0.1-0.2-0.1-0.5-0.2-0.8c0-0.2-0.1-0.5-0.2-0.7c-0.1-0.3-0.2-0.7-0.3-1.1c-0.3-1.4-0.7-3.1-1.1-4.9c-0.1-0.6-0.3-1.1-0.4-1.7
			c-0.2-0.7-0.3-1.3-0.5-2c-0.1-0.3-0.1-0.6-0.2-0.9c-0.2-0.7-0.3-1.4-0.5-2.1v-0.1c-0.1-0.5-0.2-1-0.3-1.5s-0.2-1.1-0.4-1.6
			c-1.8-7.7-3.8-16.5-5.6-24.3c-2.1-9-4-16.8-4.9-20.6c-0.6-2.5-1.2-5.5-1.7-8.8c-1.2-7.9-2.2-17.6-3.3-26.7
			c-0.7-5.8-1.4-11.3-2.3-16c-0.4-2.1-0.8-4.5-1.3-7.1c-1.1-5.9-2.3-12.7-3.4-19.2c-0.5-3-1-6-1.5-8.7h-62.6l2.3,5l8,0.9l-5.9,2.9
			l2.9,6.9l-6.4-3.9l-5.4,3.8l1.3-5.6l-5.7-5.2l7,0.3l1.4-5.1H89.5l1,1.8l7.1,1l-5.6,2.7l3.3,7.6l-7.2-4.5l-5.1,3.5l1.6-6.3l-5-5.2
			l6,1.3l0.6-2H48.1l-0.2,0.1l2.6,5.4l-5.9-3.6l-5.9,1.8l1.8-3.7H29.9c-1.6,0-6.1-0.7-6.3,0.4c-0.1,0.6,1,2.3,2.3,2.1
			c-0.3,0.9,1.1,3.1-1.1,2.7l0.5,0.7l0.7,1l0.7,0.1l5.2,0.9l-3.5,2.9l3.1,5l-4.3-3c0,0.2,0.1,0.3,0.2,0.5c1.6,2.3-0.3,2.9-1.2,3.9
			l1.5,0.3l-3,2.6l3.5,4.4l-7.2-3.2l-5.2,3.7l0.2-4.6l-5.6-4.3l5.6,0.2l0.9-4.1l3.6,3.4c0.5-0.9,0.9-1.8,1.6-2.5
			c0.2-0.3,1.8-2.1,1.2-0.1c0.3-0.4,1.2-1,1.5-1.7l-1.7-1.2l-1.8-1.2l0,0c-1.7-0.5-4.2-0.3-5.6-0.5c-3.1-0.4-6-1.7-9.2-2.3
			c-1.9-0.4-0.2,4.1,1.1,5.6c2.7,3,2.7,5.9,3.9,8.7c0-0.3,0-0.6,0.1-0.9c0.9,0.5,1.9,0.9,2.7,0.9c-1.2,0.5-3.1,0.5-1.9,2.5
			c0.7-0.1,1.6,0,2.5,0.5c-2.5-0.8-0.7,2.5-2.1,2.8c-0.1-0.6-0.3-1.2-0.5-1.8c0,0.5,0.2,3.5,1.8,3.2c1.1-0.2,1.5-0.5,3.1,0.1
			c0.8,0.3,2.4,1.1,3,0.8c-0.5,0.9-4.2-0.3-5.6-0.2c-1.9,0.1-0.9,1.9-1.2,3.1c-0.2,0.9-0.6,2.7,0.9,4c-1.6-0.2-1.1,1.8-1.1,2.7
			c0.1,2.2,0.1,5.1-0.9,6.8c-0.7,1.2-0.3,2.9-0.6,4.2c-0.2,0.9-0.4,1.8-0.5,2.7c-0.1,0.6-0.8,1.9,0.3,1.8c-0.2,0.1-0.4,0.2-0.6,0.3
			l2.8,2.8l7-0.7l-4.3,5l2.8,5.9l-6.7-3.6l-3.7,2.8l0,0c-0.1,0.9-0.5,1.8,0.1,3c0.8,1.6,1.9,2.1,1.5,3.5c-0.2,0.9,1.5,2.6,1.7,3.7
			c0.2,1.5-1.2,2.6-0.5,4.2c0.5,1,0.1,1.7-0.2,2.4c-0.4,0.6-0.4,0.8,0.1,0.6c-1.4,1-1.7,2.7-1.6,4.5c0.6,0,1.3-0.1,2-0.1
			c0.3,0,0.6,0,0.9,0c1,0,2-0.1,3-0.2c0.3,0,0.7,0,1,0c2.5-0.1,5.2-0.3,7.9-0.5c0.9,0,1.8-0.1,2.8-0.2c1.5-0.1,3-0.2,4.4-0.3
			c0.9-0.1,1.8-0.1,2.7-0.2c0.5,0,1.1-0.1,1.6-0.1c14.7-1.1,44.6,7.2,55.6,11.9c11.1,4.8,54.4,9.6,68.5,11.9
			c1.8,0.3,4.1,1.2,6.9,2.5l4.6-0.2l1-5.6l2.9,5.5l7,0.5l-5.1,2.9l2.1,4.1c4.3,2.8,8.9,5.9,13.4,9.2l0,0h2.9l1.6-6.5l3.8,6.5
			l6.5-0.3l-4.5,3.4l1.3,5.2c2.7,2,5.2,3.9,7.4,5.7l0,0c1.2,0.9,2.2,1.7,3.3,2.5c0.8,0.6,1.5,1.2,2.2,1.7c1.6,1.3,3,2.3,4,3.2
			c0.1,0.1,0.2,0.2,0.3,0.3c0.4,0.3,0.7,0.6,1,0.8c0.1,0,0.1,0.1,0.2,0.1C223.5,452.7,223.8,452.9,223.8,452.9L223.8,452.9z
			 M173.9,308.7l0.7-4.5l4,4.3l6.5,0.3l-4.8,3.2l3.5,6.3l-7.2-3.1l-4.6,3.2l1.1-5.5l-6.3-5.6L173.9,308.7z M169,358.1l-6.2-3.8
			l-4.1,3.3l0.5-5.5l-5.4-3.2l5.9-0.2l1.6-5.4l2.8,4.9l7.2,0.7l-4.9,2.7L169,358.1z M154.1,321.9l1-4.3l3.7,4.2l7.5,0.9l-4.5,2.2
			l2.7,5.2l-6.6-2.9l-5.7,3.7l0.9-5l-5.7-4C147.4,321.9,154.1,321.9,154.1,321.9z M135.2,332.7l1.9-6.2l2.5,5.7l8,0.2l-5.6,3.7
			l2.4,8l-5.6-4.6l-5.6,4.1l1.3-5.8l-6.4-4.5L135.2,332.7z M110,320l1.5-5l2.2,4l7.8,2.2l-4.9,1.3l3.3,4.4l-7.1-2.7l-5,2.8l0.7-4.2
			l-5.2-3.1L110,320z M82.1,346.1l-3.9,1.9l0.6,2l-10.1-6.1h2.7l1.1-4.4l3.4,5.1L82.1,346.1z M65.3,314.1l2.3-5.9l2.8,5.3l7.5,1
			l-5.9,3.2l3.3,8.1l-7.8-4.9l-4.8,3.2l1.4-6.1l-5.8-5.4L65.3,314.1z M47.2,326.5l0.9-5.1l3.6,5.3l6.6,1.8l-4.5,2.3l1.3,2.2
			l-9.8-6.7L47.2,326.5z M35.2,346.2l3.6,6.5l-7.3-4.2l-5.3,4.3l0.1-6.3l-5.6-3.3l6.7-0.4l1-4.8l3.9,4.6l7.6,1.1L35.2,346.2z
			 M45.2,336l-6.1-3.9l6.4,1.2v-3.4l3.8,4.1l7.1,2.8h-3.5l3.8,6.1l-7.8-4.5l-3.5,1.5L45.2,336z M65.1,372.2l-7.4-4.2l-4.5,3.2
			l0.8-6.1l-6-5.3l6.6,1.2l1.8-5.7l3.4,5l7.2,3.1l-5,2.5L65.1,372.2z M82.8,361.1l-7.1-4.5l-3.7,1.7l-0.1-3.6l-5.9-5.5l5.9,2
			l0.8-3.7l3.5,4l7.4,2.8l-3.6,1L82.8,361.1z M89.2,341.5l1-5.9l-5.2-4.1l5.8-0.2l1.9-4.6l2.9,4.3l6.6,1.1l-4.3,2.7l2.3,6.1
			l-5.6-4.4L89.2,341.5z M110.1,380.8l-7.2-4.3l-5,2.7l0.9-6.1l-6-5.3l6.6,1.3l0.3-3.3l-5.3-3.5l2.3-0.2l0.8-4.1l3.7,4.2l6.4,1.2
			l-4.2,2.6l1.8,3.5l-5.6-3.7l3.7,5.1l6.9,1.7l-4.4,2.5L110.1,380.8z M113.6,358.3l1.5-7.2l-5.5-3.6l6.4-0.1l0.7-5.5l3.6,5.2
			l7.1,0.5l-5.1,3.5l3.6,6.9l-7.4-4.5L113.6,358.3z M129.9,385.7l-10.4-6.9l1.5,0.3l1.4-4.5l3.3,5.3l7.2,1.2l-5,1.8L129.9,385.7z
			 M137.4,374.7l2.3-6l-7.3-4.6l7.8,0.7l2-5.4l3.1,4.6l6.7-0.3l-5.3,3.4c0,0,3.2,7.8,2.9,7.4c-0.3-0.4-6.1-3.8-6.1-3.8L137.4,374.7z
			 M156.3,404l-10.4-8.1l1.9-6.3l3.4,6.1l6.5,1l-3.7,2.4L156.3,404z M171.3,385.2l3.6,7l-7.5-4l-5.6,5.1l2.2-7.4l-6.3-4.3h6.9
			l2.8-6.5l2.5,6h6.6L171.3,385.2z M172.9,334.6l6.5-0.4l2-4.8l3.2,5.2l6.4,0.8l-4.5,2.4l2.9,5.4l-6.2-2.9l-5.8,2.4l1.6-4.5
			L172.9,334.6z M181.2,375.7l2-6.2l-5.2-4.6l6.1,0.9l2-6l3.1,5.7l6.8,0.6l-5.2,3.5l3.2,6.4l-6.7-3.9L181.2,375.7z M199.8,408.2
			l-7-3.5l-5,4.9l1.3-7.3l-6.1-3.9l6.4-0.7l1.5-5.9l3.5,5.9l5.9-0.5l-3.9,3.9L199.8,408.2z M25,312.1c-0.7,0.8-1.2,1.7-2.4,2.3
			c-0.8,0.4-2,1.2-0.9,2.5c0.4-0.2,0.9-0.4,1.5-0.6c-0.5,0.4-1,1-2.2,0.5l0.4,0.4l1.8,0.4h0.3l0.7,0.1c0.1-0.4,0.3-0.7,0.9-0.8
			c0,0.3-0.1,0.6-0.2,0.9c1.5-0.2,0.8-3.4-0.4-2.5c-0.4-1,0.9-1.7,1.2-2.6L25,312.1z"/>
		<path id="XMLID_70_" class="st3" d="M21.8,316.8c0.4-0.2,0.9-0.4,1.5-0.6c-0.5,0.4-1,1-2.2,0.5l0,0c-0.1-0.1-0.3-0.1-0.5-0.2
			c0,0,0.1-0.1,0.1-0.2c0.5-0.9,0.9-1.8,1.6-2.5c0.2-0.3,1.8-2.1,1.2-0.1c0.3-0.4,1.2-1,1.5-1.7l0.1,0.1c-0.7,0.8-1.2,1.7-2.4,2.3
			C21.9,314.7,20.7,315.5,21.8,316.8z"/>
		<path id="XMLID_47_" class="st1" d="M177.5,416.3l2.1,4.1c-4.6-2.9-8.9-5.5-12.5-7.2l4.6-0.2l1-5.6l2.9,5.5l7,0.5L177.5,416.3z"/>
		<polygon id="XMLID_46_" class="st1" points="196.5,401.1 199.8,408.2 192.8,404.7 187.8,409.7 189.2,402.3 183.1,398.4 
			189.5,397.7 191,391.8 194.5,397.7 200.4,397.3 		"/>
		<path id="XMLID_76_" class="st1" d="M24.9,311.4c0.1,0.2,0.1,0.4,0,0.6l-1.7-1.1l-1.8-1.2c0.6,0.2,1.1,0.4,1.5,0.8
			c-0.4-0.7-0.1-1.1,0.5-1.3C23.6,309.8,24.6,310.6,24.9,311.4z"/>
		<path id="XMLID_77_" class="st1" d="M24.1,305.7c0.3,0.1,0.5,0.2,0.7,0.2l0.5,0.7C24.8,306.5,24.5,306.8,24.1,305.7z"/>
		<path id="XMLID_79_" class="st1" d="M25.5,311.5c0.5,0.4,0.6,0.8,0.4,1.1l-0.9-0.5C25.2,311.9,25.3,311.7,25.5,311.5z"/>
		<path id="XMLID_83_" class="st1" d="M28.4,311.5l3.1,5l-4.3-3c-0.3-1.4,2.1-2.3,0.8-3.4c-1-0.8-0.8-1.6-1.3-2.4l5.2,0.9
			L28.4,311.5z"/>
		<polygon id="XMLID_44_" class="st1" points="75.9,344.8 82.1,346.1 78.2,348.1 78.8,350.1 68.7,344.1 71.4,344 72.5,339.7 		"/>
		<polygon id="XMLID_43_" class="st1" points="64.2,318 58.4,312.6 65.3,314.1 67.6,308.2 70.4,313.6 77.9,314.5 72,317.7 
			75.4,325.8 67.6,320.8 62.8,324 		"/>
		<polygon id="XMLID_42_" class="st1" points="134.4,337.8 128,333.3 135.2,332.7 137.1,326.5 139.6,332.2 147.7,332.5 142,336.2 
			144.4,344.1 138.8,339.5 133.1,343.6 		"/>
		<path id="XMLID_41_" class="st1" d="M207.7,429.3l-4.5,3.4l1.3,5.2c-3.6-2.7-7.6-5.6-11.5-8.4h2.9l1.5-6.5l3.8,6.5L207.7,429.3z"
			/>
		<path id="XMLID_38_" class="st4" d="M213.5,407.7L213.5,407.7"/>
		<path id="XMLID_60_" class="st1" d="M443.9,446.4c-1.5-0.2-3.6-0.4-4.3,0.5c-0.5,0.6-1.7,1.7-1.8-0.1c-0.3,0.4-0.1,1.1-0.1,1.6
			s-1.2,0.8-1.6,1c-1.7,1.1-2.3,2.9-2.9,4.8c0-0.6-0.1-1.1-0.4-1.7c0.3,3.3-3.4,2.3-6,3.1c-2.9,0.9-4.1,3.7-5.4,6.1
			c-0.2-0.2-0.4-0.4-0.4-0.6c0.1,0.7,0.3,1.4-0.4,1.6c-0.6,0.1-0.2,0.5-0.5,0.9c-0.6,0.6-1,0-1.5,0.4c-0.6,0.4-2.8,4.2-3.9,1.9
			c1,1.9-0.7,2.2-1.8,2.9c-0.7,0.4-1.3,0.9-2.4,0.7c-0.5-0.1-3.2,0-0.8,0.4c-2.6,0.5,2,0.2-0.5,1.3c2.1-0.2-1,1.5-1.2-0.5
			c0.4,2.2-1-0.1-1.3-0.8c0.2,0.7,0.6,1.3,0.9,2c-13.4,0.7-26.7,1.7-37.5,3.3c-28.1,4.1-106.4,6.8-107.6,6.9l0,0
			c-5.2-3.7-10.3-7.3-14.8-10.4l0,0c-9.3-6.5-16.2-11.3-16.5-11.5c1.3-0.2,112.4-13.4,152.5-11.5c21.4,1,43.1-1.3,62.6-2.7l0,0
			C445.8,446,443,445.8,443.9,446.4z"/>
		<path id="XMLID_51_" class="st0" d="M406.9,472.8c-0.7,1.9-0.8,2.6-3,3.3c0.2,0.3,0.4,0.6,0.6,0.9c-0.5,0.3-1.1,0.4-1.8,0.2
			c0.1,0.3,0.2,0.6,0.4,1c0.3-0.1,0.6-0.2,0.9-0.3c0.1,1.1-0.8,1.5-1.9,1.5c1.3,0.6,1.2,2.2,0.1,1.4c0.7,1.4-0.2,0.9-1.4,0.6
			c0.8,0.2,1.4,0.6,2,1.2c-0.6,0.8-1.7,0.7-1.8,1.9c-0.1,0.8-1,3-0.1,3.9c0.4,0.3,0.4,0.6,0.1,0.8c-0.8,0.6-0.1,0.8,0.3,1.7
			c0.7,1.8,0.8,4,1.2,5.8c0.3,1.3,0.7,2.7,1.3,4c-6.1,0.6-12.4,1.2-18.7,1.7c-1.7-1.6-2.8-3.7-4.1-5.5c-0.8-1-2.2-2.2-3.4-2.5
			c-1.8-0.5-2.5,1.1-4.2,1c0.6,1.3-0.7,1-1.7,1.7c-0.4,0.3-2.1,1.5-2.1,0.4c-1.1,0.9-2.6,1.2-4.2,1.2c0.7-1.2-0.5-2.7-1.9-3.3
			c0.6,0.1,0.4-0.3-0.5-1c1.4,0.9,1.6-0.2,0.3-0.3c-1.9-0.2-0.9-1.4,0.1-1.6c-0.9,0-1.7,0.1-2.6,0.1c0.3,0.3,0.6,0.6,0.9,0.9
			c-1.6,0.4-5-1.5-6.7-2.2c0.2,0,3.4,0.4,3.1-0.1s-1.4-0.9-2-1c-1-0.2-1.6,0.6-2.4,0.9c-1.2,0.5-3.2,0.5-4.6,0.5
			c0.8-0.1,1.5-0.3,2.2-0.7c-0.8-0.2-1.3-0.8-0.9-1.5c-0.3,0.5-0.6,1-0.9,1.6c0-2.4-1-0.1-1.4,0.4c-0.6,0.8-1.3,1.1-2.5,1.1
			c0.6-0.2,2.1-0.9,0.9-1.8c-0.3,2-2.7,3-4.9,2.2c2.2,0.7,0.1-4-0.5-4.9c-0.2,1-0.5,2.1-0.9,3.1c-0.3,0.7-1.7,0.3-2.3,0.7
			c-0.3,0.2-2.3,0.3-2.2,0c-0.5,1.1-1.9-0.7-2.6-0.4c0.4,0.1-2.2,0.7-2.8,0.8c-1.4,0.2-1.4,1-2.7,1.5c-2.4,0.8-3.9-2-6.2-2
			c-0.8,0-3,2.2-1.4,3c1,0.5,2.6,0.4,3.4,0.1c0.7-0.3,2.4-0.1,2.8-0.5c-0.2,0.4-2,1.2-1.6,1.8c1,1.6,1.5,0.7,2-0.1
			c0.7-1,2.5,0.3,2.1,1.4c-0.4,1-2.6,0.2-1.8,1.8c-1.3-0.4-1.3,0.4-0.7,1.3c0.9,1.4,2,1.6,3.5,2c0.7,0.2,1.2,1.1,1.9,1.6
			c0.6,0.5-0.9,1.4-0.7,2.1c-1.3-1.4-2,0-2.6,0.6c0.3-0.7,0.7-1.3,0.8-2.1c-0.9-0.1-0.8-0.5-1.2-1c-0.3-0.3-2.6-1-3-1
			c0.4-1.1-3.4-2.7-3.7-2.4c-0.2,0.2,1,1.5,1.1,1.9c0.1,1.3,0,2.5-1.4,2.8c-0.4-1.3-0.3-1.6-1.7-1.9c-2.4-0.4-1,1.2-2.5,1.5
			c-2.4,0.5-5.9-2.3-5-4.6c-0.3,1-1.8,0.6-2.7-0.1c-0.5-0.4-1-1-1-1.6c-0.9-0.1-2.4,0.6-1.6-0.9c-1.1,0-3.6,1-2,2.5
			c-1.8-0.3-3,0.5-5,0.1c-2.3-0.5-4.5-1.8-6.7-2.4c0.8-0.8,1-1.6,0.1-2.8c-0.1,0.9,0.3,3.1-0.9,3.4c-1,0.2-3.1,0.5-4.3,0
			c0.3-0.8,1.3-1.3,0.9-2.4c-1.1,0.6-1.9,1.8-0.6,3.2c-0.6,0.1-1.2,0.2-1.8,0.3c-6.7-5-15.2-11-23.4-16.9c1.2,0,79.5-2.8,107.6-6.9
			c10.8-1.6,24.1-2.6,37.5-3.3c0,0.1,0,0.1,0.1,0.2C408,472.8,406.4,474.1,406.9,472.8z"/>
		<path id="XMLID_36_" class="st4" d="M262.4,481.9L262.4,481.9"/>
		<polygon id="XMLID_32_" class="st1" points="180.3,312 183.8,318.3 176.7,315.2 172,318.4 173.1,312.9 166.8,307.4 173.9,308.6 
			174.6,304.1 178.6,308.5 185.1,308.7 		"/>
		<polygon id="XMLID_31_" class="st1" points="186.4,337.8 189.3,343.1 183.1,340.3 177.3,342.7 178.9,338.1 172.8,334.6 
			179.4,334.1 181.4,329.3 184.5,334.5 190.9,335.3 		"/>
		<polygon id="XMLID_30_" class="st1" points="190.9,369.5 194.1,375.9 187.4,372 181.2,375.7 183.2,369.4 178,364.8 184.1,365.7 
			186.2,359.7 189.3,365.4 196.1,366 		"/>
		<polygon id="XMLID_29_" class="st1" points="171.3,385.2 174.9,392.2 167.4,388.1 161.8,393.3 164,385.9 157.7,381.6 164.6,381.6 
			167.4,375.1 169.9,381.1 176.4,381.1 		"/>
		<polygon id="XMLID_28_" class="st1" points="161.8,324.8 164.6,330 157.9,327.1 152.2,330.9 153.1,325.9 147.4,321.9 154.1,321.9 
			155.1,317.6 158.8,321.8 166.3,322.6 		"/>
		<polygon id="XMLID_27_" class="st1" points="166.1,351.6 169,358.1 162.8,354.3 158.7,357.6 159.1,352.1 153.7,349 159.6,348.8 
			161.2,343.4 163.9,348.3 171.1,348.9 		"/>
		<polygon id="XMLID_26_" class="st1" points="154,399.2 156.3,404 145.9,395.9 147.7,389.7 151.2,395.8 157.7,396.8 		"/>
		<path id="XMLID_25_" class="st1" d="M146.7,367.2c0,0,3.2,7.8,2.9,7.4c-0.3-0.4-6.1-3.8-6.1-3.8l-6.2,3.9l2.3-6l-7.3-4.6l7.8,0.7
			l2-5.4l3.1,4.6l6.7-0.3L146.7,367.2z"/>
		<polygon id="XMLID_24_" class="st1" points="147.7,332.5 142,336.2 144.4,344.1 138.8,339.5 133.1,343.6 134.4,337.8 128,333.3 
			135.2,332.7 137.1,326.5 139.6,332.2 		"/>
		<polygon id="XMLID_39_" class="st1" points="136.9,309.3 139.8,316.3 133.4,312.4 128,316.2 129.3,310.6 123.5,305.4 130.5,305.7 
			131.9,300.6 132.5,300.6 134.8,305.6 142.8,306.5 		"/>
		<polygon id="XMLID_22_" class="st1" points="116.7,322.6 120,327 112.8,324.3 107.8,327.1 108.5,322.9 103.4,319.7 110,320 
			111.4,315 113.7,319.1 121.5,321.3 		"/>
		<polygon id="XMLID_37_" class="st1" points="92.2,306.1 95.4,313.7 88.2,309.2 83,312.7 84.5,306.4 79.5,301.3 85.6,302.6 
			86.2,300.6 89.6,300.6 90.7,302.4 97.8,303.3 		"/>
		<polygon id="XMLID_20_" class="st1" points="122.3,351 125.9,358 118.5,353.4 113.6,358.3 115.1,351.1 109.6,347.5 116,347.4 
			116.7,341.9 120.3,347 127.5,347.5 		"/>
		<polygon id="XMLID_19_" class="st1" points="97.8,334.7 100.1,340.8 94.5,336.4 89.2,341.5 90.2,335.6 85,331.5 90.8,331.3 
			92.6,326.7 95.5,331 102.1,332 		"/>
		<polygon id="XMLID_18_" class="st1" points="103.4,366 105.3,369.5 99.7,365.8 99.7,365.8 99.7,365.8 94.4,362.3 96.8,362.1 
			97.6,358 101.3,362.3 107.6,363.4 		"/>
		<polygon id="XMLID_17_" class="st1" points="82.1,346.1 78.2,348.1 78.8,350.1 68.7,344.1 71.4,344 72.5,339.7 75.9,344.8 		"/>
		<polygon id="XMLID_16_" class="st1" points="72,317.7 75.4,325.8 67.6,320.8 62.8,324 64.2,318 58.4,312.6 65.3,314.1 67.6,308.2 
			70.4,313.6 77.9,314.5 		"/>
		<polygon id="XMLID_23_" class="st1" points="50.5,306.2 44.6,302.6 38.6,304.3 40.5,300.6 48.1,300.6 47.9,300.8 		"/>
		<path id="XMLID_40_" class="st1" d="M24.9,311.4c0.1,0.2,0.1,0.4,0,0.6l-1.7-1.1l-1.8-1.2c0.6,0.2,1.1,0.4,1.5,0.8
			c-0.4-0.7-0.1-1.1,0.5-1.3C23.6,309.8,24.6,310.6,24.9,311.4z"/>
		<path id="XMLID_45_" class="st1" d="M24.1,305.7c0.3,0.1,0.5,0.2,0.7,0.2l0.5,0.7C24.8,306.5,24.5,306.8,24.1,305.7z"/>
		<path id="XMLID_49_" class="st1" d="M25.5,311.5c0.5,0.4,0.6,0.8,0.4,1.1l-0.9-0.5C25.2,311.9,25.3,311.7,25.5,311.5z"/>
		<path id="XMLID_50_" class="st1" d="M28.4,311.5l3.1,5l-4.3-3c-0.3-1.4,2.1-2.3,0.8-3.4c-1-0.8-0.8-1.6-1.3-2.4l5.2,0.9
			L28.4,311.5z"/>
		<polygon id="XMLID_13_" class="st1" points="53.8,330.7 55.1,332.9 45.3,326.3 47.2,326.5 48.1,321.4 51.7,326.7 58.3,328.4 		"/>
		<path id="XMLID_67_" class="st3" d="M26.3,318C26.3,318.1,26.3,318.1,26.3,318c-0.3,0.3-0.7,1.5-1.6,1.2c-1.3-0.5-1.9-0.1-1.7,0.6
			c-0.2-0.5-0.4-0.7-0.6-0.6c0.2-0.3,0-0.3-0.7-0.2c0.9-0.3,1.1-1.1,1.6-1.6h0.3c-0.1,0.4,0.1,0.8,0.5,1.3c0.1-0.4,0.1-0.8,0.2-1.2
			c0.1-0.4,0.3-0.7,0.9-0.8c0,0.3-0.1,0.6-0.2,0.9c1.5-0.2,0.8-3.4-0.4-2.5c-0.4-1,0.9-1.7,1.2-2.6l1.3,0.9c0,0.2,0.1,0.3,0.2,0.5
			C29,316.4,27.2,317,26.3,318z"/>
		<path id="XMLID_65_" class="st1" d="M24.2,318.8c-0.5-0.5-0.6-1-0.5-1.3l0.7,0.1C24.2,318,24.2,318.5,24.2,318.8z"/>
		<path id="XMLID_21_" class="st1" d="M28.2,325.3l-7.2-3.2l-5.2,3.7l0.2-4.6l-5.6-4.3l5.6,0.2l0.9-4.1l3.6,3.4c0,0,0,0.1-0.1,0.2
			c0.2,0.1,0.3,0.1,0.5,0.2l0,0l0.4,0.4l1.8,0.4c-0.5,0.5-0.7,1.3-1.6,1.6c0.6-0.1,0.8-0.1,0.7,0.2c0.2-0.1,0.4,0.1,0.6,0.6
			c-0.2-0.8,0.4-1.1,1.7-0.6c0.9,0.3,1.3-0.9,1.6-1.1c0,0,0,0,0-0.1l1.5,0.3l-3,2.6L28.2,325.3z"/>
		<path id="XMLID_35_" class="st1" d="M16.3,361.5l2.8,5.9l-6.7-3.6l-3.7,2.8l0,0L6.8,368l0.8-5.2l0,0l0.1-0.5H7.6
			c0-0.9,0.3-1.7,0.6-2.4c0.2-0.4,1.1-2.8,1.3-1.4c-0.1-0.7,0.4-0.6,0.9-0.8c0.4-0.1,0.2-1.7-0.6-0.3c0.1-0.9,0.1-2.2,0.9-2.8
			l2.8,2.8l7-0.7L16.3,361.5z"/>
		<polygon id="XMLID_8_" class="st1" points="35.2,346.2 38.8,352.7 31.5,348.5 26.2,352.8 26.2,346.4 20.6,343.2 27.4,342.7 
			28.3,337.9 32.3,342.5 39.8,343.6 		"/>
		<polygon id="XMLID_7_" class="st1" points="52.9,336.7 56.7,342.8 48.9,338.4 45.4,339.9 45.2,336 39.1,332.1 45.5,333.3 
			45.4,329.8 49.3,333.9 56.4,336.7 		"/>
		<polygon id="XMLID_6_" class="st1" points="127.9,382.9 129.9,385.7 119.5,378.8 121,379.1 122.4,374.5 125.7,379.9 132.9,381.1 
					"/>
		<polygon id="XMLID_5_" class="st1" points="105.9,375.1 110.1,380.8 102.9,376.5 97.9,379.2 98.8,373.1 92.8,367.8 99.4,369.1 
			99.7,365.8 99.7,365.8 103.4,370.9 110.4,372.6 		"/>
		<polygon id="XMLID_4_" class="st1" points="80,355.3 82.8,361.1 75.7,356.6 72,358.3 71.9,354.7 66,349.2 71.9,351.2 72.8,347.5 
			76.3,351.5 83.7,354.4 		"/>
		<polygon id="XMLID_3_" class="st1" points="62,365.9 65.1,372.2 57.7,368.1 53.2,371.2 54,365.1 48,359.8 54.6,361.1 56.4,355.4 
			59.8,360.4 66.9,363.5 		"/>
	</g>
</g>
<g id="Calque_2" class="st5">
	<g id="XMLID_1_" class="st6">
		<path id="XMLID_186_" class="st7" d="M1264.6,749.5c0,0-0.2,21.9-2.9,48c0,0-15.1-22.8-70.4-5.7s-104.7,13.7-145.5-3.2
			c-40.8-16.8-165.8-32.1-254.2-25.8c-88.4,6.3-384.1-38.2-384.1-38.2c-2.8-29.3-5.1-55-5.1-55c91.5,9.9,284.5,49,342.6,50.9
			c58.1,1.9,235.4-4.7,271.1,13.5s93,43.3,157.5,35.2C1238.2,761,1235.8,750,1264.6,749.5z"/>
		<path id="XMLID_185_" class="st1" d="M1261.7,797.5c-1.8,17.7-4.7,37.4-9.4,53.4c-27.1-10.3-64.2-14.9-197.4-14.3
			c-133.2,0.6-197.1-16.4-314.9-21.7s-327.8-43.2-327.8-43.2c-1.5-14.4-3.2-31.3-4.7-47.2c0,0,295.7,44.5,384.1,38.2
			s213.4,9,254.2,25.8c40.8,16.8,90.2,20.2,145.5,3.2C1246.6,774.8,1261.7,797.5,1261.7,797.5z"/>
		<path id="XMLID_184_" class="st7" d="M1252.3,851c-2.4,8-5.2,15.1-8.5,20.5c-10.8,17.7-8.4,29.1-5.1,45.8
			c-2.4-1.3-12.1-2.5-48.4,0.4c-56.7,4.6-314.5-14.1-364.5-25.9c-50-11.9-161.6-24.4-215.9-32.3c-54.3-7.8-193.2-30.9-193.2-30.9
			c-0.6-14.1-1.4-27.7-2.7-39.3c-0.6-5.1-1.2-11-1.9-17.5c0,0,210.1,37.9,327.8,43.2c117.8,5.3,181.7,22.3,314.9,21.7
			C1188.1,836.1,1225.2,840.7,1252.3,851z"/>
		<path id="XMLID_183_" class="st1" d="M1238.7,917.2c2.7,13.9,6.1,31.4,2.8,59.2c-201.7-8.3-287.4-19.3-338.6-24.9
			c-51.2-5.6-215.7-31.6-272.5-44.9C573.7,893.2,419.7,894,419.7,894c-1.5-19.3-2-43.1-2.9-65.5c0,0,138.9,23,193.2,30.9
			c54.2,7.8,165.9,20.4,215.9,32.3c50,11.9,307.8,30.5,364.5,25.9C1226.5,914.7,1236.3,916,1238.7,917.2z"/>
		<path id="XMLID_182_" class="st7" d="M1241.5,976.4c-3.7,31.1-2.7,48.5-1.1,62.5c0,0-182,3.4-231.5-12.2
			c-49.5-15.6-201.2-53.3-310.7-56c-108.8-2.7-265.7-4.1-267.8-4.1c-3.4-22.2-6.5-41.6-8.1-50.9c-1.1-6.1-1.8-13.5-2.4-21.7
			c0,0,153.9-0.8,210.7,12.6c56.7,13.4,221.3,39.3,272.5,44.9C954.1,957.2,1039.7,968.1,1241.5,976.4z"/>
		<path id="XMLID_181_" class="st1" d="M1240.3,1038.9c1.6,13.5,3.8,23.7,3.1,40c-0.4,8-0.3,17.8,0.3,28.4
			c-57.8,0.9-134.6-19.6-166.3-24.2c-31.8-4.7-134.9-49-214.5-48.5c-79.5,0.5-423.6-7.9-423.6-7.9c-2.9-19-6.1-40.6-9.1-60
			c2.1,0,159.1,1.4,267.8,4.1c109.5,2.7,261.2,40.4,310.7,56C1058.3,1042.3,1240.3,1038.9,1240.3,1038.9z"/>
		<path id="XMLID_180_" class="st7" d="M1252,1164.6c-46.1-2.8-93.7-27.3-155-49.9c-61.3-22.7-164-5.6-261.5-17.8
			c-96.9-12.2-369-0.6-372.1-0.4l0,0l-16.4-18.3c0,0-3.4-22.8-7.7-51.6c0,0,344.1,8.4,423.6,7.9s182.7,43.8,214.5,48.5
			c31.8,4.7,108.5,25.1,166.3,24.2C1244.8,1126.4,1247.5,1147.9,1252,1164.6z"/>
		<path id="XMLID_179_" class="st1" d="M1348.8,1282c0,0-55.3,0.4-120.1-8.7c-64.8-9.1-207,8.8-270.4,5.9
			c-63.4-3-205.9,2.2-246.9,2.2c-37.9,0-70.3-29.7-75.1-34.3c-0.1-0.1-0.1-0.1-0.2-0.2c-0.2-0.3-0.4-0.4-0.4-0.4
			c-8.1-8.9-14.9-16.5-19.8-21.5c0,0,162.3,5.7,288.4,1c126.1-4.7,201.9-3.7,245.3,1.3s143.8-10.7,143.8-10.7
			c5.9,4.5,12.2,8,19.4,9.7C1332,1230.8,1346.5,1248.8,1348.8,1282z"/>
		<path id="XMLID_178_" class="st7" d="M1348.8,1282c1.2,16.5,2.2,44.4,4,72c0,0-157-13.4-288-3s-282.7-9.4-321.1-15.2
			c-20.4-3.1-48.7-27.6-74.2-53.4c-12.1-12.2-23.5-24.7-33.1-35.3c4.8,4.6,37.2,34.3,75.1,34.3c41,0,183.5-5.1,246.9-2.2
			c63.4,2.9,205.7-15,270.4-5.9C1293.5,1282.4,1348.8,1282,1348.8,1282z"/>
		<path id="XMLID_177_" class="st1" d="M1361.3,1424.4c0,0-32.5-16.9-91-15.8s-259.8,7.1-294.5,6c-34.7-1.1-172.5,2.7-249.6-47
			s-177.8-22.1-223.1-29.6s-158.7-29.1-234.2-59c-75.5-29.8-310-21.3-310-21.3c0.5-23.1,0.7-48.6,0.2-74c0,0,216.2-0.9,296.2,32.3
			c80,33.1,158.5,46.8,255.4,47.1c96.8,0.3,158.8,19.4,158.8,19.4c25.5,25.8,53.8,50.3,74.2,53.4c38.4,5.8,190.1,25.6,321.1,15.2
			s288,3,288,3C1354.6,1381.9,1357.1,1409.4,1361.3,1424.4z"/>
		<path id="XMLID_176_" class="st7" d="M669.4,1282.4c0,0-61.9-19.1-158.8-19.4c-96.8-0.3-175.4-14-255.4-47.1
			c-80-33.2-296.2-32.3-296.2-32.3c-0.5-27.6-1.9-55.2-4.5-79.3c0,0,139.1-12.6,201.3,8.6s130.8,62.6,186.4,61.9
			c55.6-0.7,180.5,7.6,264.8,41.9c3.7,3.3,6.7,6.2,8.8,8.3c4.9,4.9,11.7,12.5,19.8,21.5c0,0,0.1,0.1,0.4,0.4
			c0.1,0.1,0.1,0.1,0.2,0.2C646,1257.7,657.4,1270.2,669.4,1282.4z"/>
		<path id="XMLID_175_" class="st1" d="M607.1,1216.7c-84.3-34.3-209.2-42.7-264.8-41.9c-55.6,0.7-124.1-40.7-186.4-61.9
			c-62.2-21.1-201.3-8.5-201.3-8.5c-1.8-17.1-4.3-32.4-7.6-45c-2.6-10-5.2-22.1-7.6-35.9c18.6-1.6,152.1-12.1,204.5,15.6
			c56.4,29.7,135.5,57.5,229.7,66.6c92.8,8.9,126.7,21.3,127.8,21.7l0,0c10.4,8.6,22.1,18.2,34,28.1
			C562.8,1178.4,591.4,1202.5,607.1,1216.7z"/>
		<path id="XMLID_174_" class="st1" d="M419.9,1053.4c0,0-91.1-29.7-150.6-28.4c-59.5,1.3-118.8-26.2-173-54.6
			c-53.7-28.1-167-24.7-169-24.6c-3-20.6-6.1-42.3-9.4-64.5c0,0,50,1.8,85.9,1.8c35.9-0.1,106.8,25.6,132.8,39.2
			c26,13.6,130.3,33.4,164,41.5c4.3,1,9.8,3.6,16.2,7.4l0,0c8.4,4.9,18.3,11.8,28.9,19.8c10,7.6,20.5,16,30.9,24.7l0,0
			c9.1,7.6,18,15.3,26.4,22.6C409,1043.6,414.7,1048.7,419.9,1053.4z"/>
		<path id="XMLID_173_" class="st7" d="M501.3,1127.4c-1-0.4-35-12.8-127.8-21.7c-94.2-9.1-173.3-36.9-229.7-66.6
			c-52.4-27.7-185.9-17.2-204.5-15.6c-4-22.3-7.9-48.8-12.1-77.7c2.1-0.1,115.3-3.5,169,24.6c54.2,28.4,113.5,55.9,173,54.6
			c59.5-1.3,150.7,28.4,150.7,28.4c16.1,14.5,27.1,24.8,27.1,24.8l16.4,18.1l0,0C464.2,1096.9,480,1109.9,501.3,1127.4z"/>
		<path id="XMLID_140_" class="st8" d="M48.5,606.3l-186.8,40.4c27,57.6,43.4,149.4,56.2,234.6c0,0,50,1.8,85.9,1.8
			c35.9-0.1,106.8,25.6,132.8,39.2c26,13.6,130.3,33.4,164,41.5c4.3,1,9.8,3.6,16.2,7.4l0,0l11.2,0.3l3.5-13.4l5.9,13.9l16.9,2.4
			l-12.9,6.2l4.3,10.4c10,7.6,20.5,16,30.9,24.7l0,0l7,0.4l5-15.4l7.9,16.6l15.9,0.6l-11.6,7.5l2.2,13c6.1,5.3,11.8,10.5,17,15.1
			c16.1,14.5,27.1,24.8,27.1,24.8s-3.4-22.8-7.7-51.6c-2.9-19-6.1-40.6-9.1-60c-3.4-22.2-6.5-41.6-8.1-50.9
			c-1.1-6.1-1.8-13.5-2.4-21.7c-1.5-19.3-2-43.1-2.9-65.5c-0.6-14.1-1.4-27.7-2.7-39.3c-0.6-5.1-1.2-11-1.9-17.5
			c-1.5-14.4-3.2-31.3-4.7-47.2c-2.8-29.3-5.1-55-5.1-55C310.9,659.7,48.5,606.3,48.5,606.3z M305.4,737.1l8.1,10.7l18.1,3.5
			l-11.2,4.5l5.7,13l-15.6-8.2l-14.6,8l3-11.9l-13-10.7l16.3,1.2L305.4,737.1z M331.5,837.8l-14.3-10.4l-10.7,7.4l2.2-13.2
			l-12.6-8.7l14.4,0.6l4.8-12.7l5.8,12.3l17.2,2.9l-12.5,5.6L331.5,837.8z M247.9,703.7l4.9-13.9l5.4,14.4l19.4,3.6l-14.7,5.9
			l5.7,17.4l-14.9-10.7l-13.9,8.1l4.1-13.4L231,701.5L247.9,703.7z M195.4,734.6l4.5-11.8l4.7,10.2l18.5,6.8l-12,2.2l7.2,11.3
			l-16.8-7.8l-12.7,5.9l2.5-10.2l-11.9-8.6L195.4,734.6z M125.1,683.4l14.4,4.3l5.4-13.7l6.9,14.1l17.1,3.6l-14.2,5.6l6.5,19
			L144.6,704l-13.5,7.7l4.9-15L125.1,683.4z M88.2,712l6.6-13.9l5.8,13.5l18.1,3.8l-14.9,6.6l6.6,20.2l-18-13.4l-12.3,6.8l4.6-14.4
			l-13-14.2L88.2,712z M34.2,664.5l4.9-12.4l6.8,13.9l13.6,2.2l-11,8.2l5.2,13.6L40,680.1l-14.7,3.2l5.6-9.5L18.1,662L34.2,664.5z
			 M-98.7,672.9l2.4-12.7l10.5,12.8l17.7,0.2l-11.3,6.8l8.2,13l-17.9-7l-12.9,9.8l2.8-13.7l-16.3-9.9L-98.7,672.9z M-77.9,737.3
			l4.6-12.2l10.8,10.2l18.3,3.1l-12,5.2l8.7,15.1l-20.1-6.9L-81.1,762l2.2-13.5l-15.5-9.5L-77.9,737.3z M-33.8,832.5l-15.6-10.1
			l-14.4,9.2l3.3-13.8l-15.4-8.2l17.5-1.9l3-12.6l9.9,11.7l17.2-0.3l-11.4,11.2L-33.8,832.5z M-31.7,710l3-9.7l10,10.7l15,4.1
			l-7.8,5.8l7.6,11.2l-16.7-9.2l-13.3,8l1.4-11.1l-12.8-11.4L-31.7,710z M16.7,800.6l-16.9-11.5l-13.7,9.4l1.3-15.3l-13-9l16.4,0.2
			l3.3-11.6l8.6,11.9l18.2,4l-11.6,5.5L16.7,800.6z M-0.8,698.9l6.6,12.8l-32.7-26.6l10.4,1.6l4.2-8.6l6.4,10.9l14,3.5L-0.8,698.9z
			 M36.5,754.7l0.5-8.3l8.5,10.6l16.8,8.1l-8.5-0.6l8.1,15.4l-18.1-12l-8.7,3l0.1-9.6l-14.1-10.6L36.5,754.7z M76.9,852.9
			l-17.1-11.4l-11.5,6.8l3.1-14.8l-13.6-13.9l15.7,4.2l5.4-13.4l7.3,12.8l16.8,8.9L70.6,837L76.9,852.9z M57.2,750.1l2.8,5.6
			l-22.6-18l4.7,0.9l3.1-12.2l7.7,13.5l15.6,5.5L57.2,750.1z M121.8,829.2l-16.3-12.3l-9.3,3.5l0.4-8.7l-13.2-14.3l13.9,5.9l2.7-8.9
			l7.8,10.5l17.5,8.2l-9.3,1.5L121.8,829.2z M113.2,796.8l1.1,5.1l-23.4-16.6l6.5,0.4l3.5-10.4l7.3,13l14.7,4.5L113.2,796.8z
			 M174.9,853.6l-12.8-9.9l8.1,13.1l16.5,5.3l-11.2,5.3l8.9,14.6l-16.6-11.8l-12.6,5.6l3.3-14.6l-13.6-13.8l15.8,4.3l1.3-7.9l0,0
			l-12.1-9.4h5.7l2.8-9.8l8.1,10.9l15.3,4l-10.7,5.4L174.9,853.6z M163.1,767.9l4.5,15.2l-12.7-11.7L141,782.8l3.5-14.2l-11.9-10.9
			l14,0.6l5.4-10.8l6.2,10.9l15.7,3.8L163.1,767.9z M205.1,802.2l2.7-13.3l7.8,13.2l17.2,2.5l-13.1,7.5l7.5,17.5L210,817.2l-13,10.9
			l5-17.2l-12.6-9.8L205.1,802.2z M231.6,897.6L207.7,879l3.6,0.9l4.2-10.7l7,13.5l17.3,4.3l-12.5,3.4L231.6,897.6z M287.6,934.8
			l4.6,12.2l-23.7-21.6l5.7-14.9l7.2,15.5l15.7,3.6L287.6,934.8z M275.8,855.7c0,0,6.4,19.6,5.7,18.6c-0.7-1-14-10.4-14-10.4
			l-15.7,8.4l6.8-14.2l-16.9-12.5l18.7,3.2l5.9-12.8l6.6,11.8l16.4,0.6L275.8,855.7z M270.2,779.7l4.3,19.7l-12.7-12.1l-14.4,8.9
			l4.2-13.9l-14.8-12.2h17.8l5.7-14.7l5,14.3l19.4,2.1L270.2,779.7z M332.1,904l7.4,17.7L322,910.5l-14.6,11.4l6.8-17.5l-14.5-11.6
			l16.7,1.2l7.9-15.2l4.9,15l15.9,1.3L332.1,904z M390.3,947.4l6.7,17.8l-16.3-9.7l-13,11l4.6-17.6l-14.1-10.6l15.7-0.5l4.7-14
			l7.3,15h14.5L390.3,947.4z M389.1,885.7l-15.4-10.8l-15.6,7.9l5.9-14.7l-11.8-12.2l14.6,3.3l6.1-14.1l6.5,14.5l16.4,2.7l-13.3,7.4
			L389.1,885.7z M377.6,791.8l6.2,13.5l-14.6-8.1l-14.6,4.8l4.7-10.7l-13.9-9.8l16,0.1l5.7-11.3l6.7,13.2l15.4,3.2L377.6,791.8z
			 M367.6,728.1l7.3,16l-16.8-8.8l-12,6.8l3.7-13.1l-14.2-14.6l17.1,4.5l2.5-10.9l8.9,11.3l15.8,1.9L367.6,728.1z"/>
		<path id="XMLID_139_" class="st1" d="M341.3,980.6l4.3,10.4c-10.5-8-20.5-14.9-28.9-19.8l11.2,0.3l3.5-13.4l5.9,13.9l16.9,2.4
			L341.3,980.6z"/>
		<polygon id="XMLID_138_" class="st1" points="390.3,947.4 397,965.2 380.7,955.5 367.7,966.5 372.3,948.9 358.2,938.3 374,937.7 
			378.6,923.7 386,938.7 400.5,938.7 		"/>
		<polygon id="XMLID_137_" class="st1" points="-5.9,688.9 8.1,692.4 -0.8,698.9 5.8,711.6 -26.9,685 -16.5,686.6 -12.3,678 		"/>
		<polygon id="XMLID_136_" class="st1" points="108.2,788.3 122.9,792.8 113.2,796.8 114.3,801.8 90.9,785.3 97.4,785.6 
			100.9,775.3 		"/>
		<polygon id="XMLID_135_" class="st1" points="84.7,721.1 71.7,706.9 88.2,712 94.8,698.1 100.6,711.6 118.7,715.3 103.8,722 
			110.4,742.1 92.4,728.7 80.1,735.5 		"/>
		<polygon id="XMLID_134_" class="st1" points="251.4,782.3 236.6,770.1 254.4,770.1 260.1,755.4 265.1,769.7 284.5,771.8 
			270.2,779.7 274.4,799.4 261.7,787.3 247.3,796.2 		"/>
		<path id="XMLID_133_" class="st1" d="M412.3,1017.8l-11.6,7.5l2.2,13c-8.3-7.3-17.3-15-26.4-22.6l7,0.4l5-15.4l7.9,16.6
			L412.3,1017.8z"/>
		<path id="XMLID_132_" class="st7" d="M1365,1481.3c0,0-95.6-11.1-171.3-5.3c-75.7,5.8-337.6,25.8-376-5.3
			c-38.4-31.1-109.2-69.6-222.4-59.6s-231.5-12.5-254.5-24.2s-185.8-52.1-385.4-39.8c0,0,2.5-38.9,3.6-89.6c0,0,234.5-8.5,310,21.3
			c75.5,29.8,188.9,51.5,234.2,59s146-20,223.1,29.6c77.1,49.7,214.8,45.9,249.6,47c34.8,1.1,236-4.9,294.5-6s91,15.8,91,15.8
			C1369.7,1454.3,1365,1481.3,1365,1481.3z"/>
		<path id="XMLID_131_" class="st7" d="M1238.7,917.2c1.3,0.7,0.3,1.4,0.3,1.4"/>
		<path id="XMLID_130_" class="st7" d="M430.2,966.6L430.2,966.6"/>
		<path id="XMLID_129_" class="st1" d="M1275.1,1200.2c-2.2-1.1-73-35.3-106.7-39.4c-34.2-4.1-104.4,3.3-146.9,2.2
			s-154.5-8.9-223.9-4.2c-68.9,4.7-259.4-3.2-262.4-3.3c-11.9-9.9-23.6-19.5-34-28.1l0,0c-21.3-17.5-37.1-30.4-37.8-31
			c3.1-0.2,275.1-11.8,372.1,0.4c97.5,12.2,200.2-4.8,261.5,17.8s108.8,47.2,155,49.9c3.3,12.1,7.5,21.6,12.7,26
			C1268.3,1193.7,1271.8,1196.9,1275.1,1200.2z"/>
		<path id="XMLID_128_" class="st7" d="M1293.4,1216.6c0,0-100.4,15.7-143.8,10.7s-119.2-6-245.3-1.3c-126.1,4.7-288.4-1-288.4-1
			c-2.1-2.1-5.1-4.9-8.8-8.3c-15.7-14.3-44.3-38.3-71.8-61.2c3,0.1,193.5,8,262.4,3.3c69.5-4.8,181.4,3.1,223.9,4.2
			s112.7-6.4,146.9-2.2c33.7,4.1,104.4,38.4,106.7,39.4l0,0C1281.3,1206,1287.1,1211.9,1293.4,1216.6z"/>
		<path id="XMLID_127_" class="st7" d="M535.3,1155.5L535.3,1155.5"/>
		<path id="XMLID_126_" class="st1" d="M-72.8,945.8L-72.8,945.8"/>
		<path id="XMLID_125_" class="st1" d="M-60.7,1023.5c-1.4,0.1-2.2,0.2-2.2,0.2"/>
		<polygon id="XMLID_124_" class="st1" points="367.6,728.1 374.9,744.1 358.1,735.3 346.1,742.1 349.9,729.1 335.6,714.4 
			352.6,718.8 355.1,708 364,719.3 379.8,721.2 		"/>
		<polygon id="XMLID_123_" class="st1" points="377.6,791.8 383.7,805.4 369.1,797.2 354.5,802.1 359.2,791.3 345.3,781.5 
			361.2,781.6 366.9,770.3 373.6,783.5 388.9,786.7 		"/>
		<polygon id="XMLID_122_" class="st1" points="382.6,869.6 389.1,885.7 373.6,874.9 358,882.8 364,868 352.2,855.8 366.8,859.1 
			372.9,845 379.4,859.4 395.9,862.1 		"/>
		<polygon id="XMLID_121_" class="st1" points="332.1,904 339.5,921.7 322.1,910.5 307.5,921.9 314.3,904.4 299.8,892.8 316.6,894 
			324.5,878.8 329.4,893.8 345.3,895.1 		"/>
		<polygon id="XMLID_120_" class="st1" points="320.4,755.9 326.1,768.9 310.5,760.7 295.9,768.7 298.9,756.8 285.9,746.1 
			302.2,747.4 305.4,737.1 313.5,747.9 331.6,751.4 		"/>
		<polygon id="XMLID_119_" class="st1" points="325.8,821.7 331.5,837.8 317.2,827.4 306.6,834.8 308.8,821.6 296.2,812.9 
			310.5,813.5 315.3,800.8 321.1,813.1 338.3,816.1 		"/>
		<polygon id="XMLID_118_" class="st1" points="287.6,934.8 292.1,947 268.5,925.4 274.1,910.5 281.3,926 297,929.6 		"/>
		<path id="XMLID_117_" class="st1" d="M275.8,855.7c0,0,6.4,19.6,5.7,18.6c-0.7-1-14-10.4-14-10.4l-15.7,8.4l6.8-14.2l-16.9-12.5
			l18.7,3.2l5.9-12.8l6.6,11.8l16.4,0.6L275.8,855.7z"/>
		<polygon id="XMLID_116_" class="st1" points="284.5,771.8 270.2,779.7 274.4,799.4 261.7,787.3 247.3,796.2 251.4,782.3 
			236.6,770.1 254.4,770.1 260.1,755.4 265.1,769.7 		"/>
		<polygon id="XMLID_115_" class="st1" points="262.8,713.7 268.5,731 253.7,720.4 239.8,728.6 244,715.2 231.1,701.6 247.9,703.7 
			252.9,689.7 258.2,704.1 277.6,707.8 		"/>
		<polygon id="XMLID_114_" class="st1" points="211.2,742 218.4,753.3 201.6,745.5 188.9,751.3 191.4,741.2 179.5,732.6 
			195.4,734.6 199.9,722.8 204.6,732.9 223.2,739.7 		"/>
		<polygon id="XMLID_113_" class="st1" points="154.8,697.4 161.3,716.5 144.7,704.2 131.3,711.9 136.2,696.9 125.1,683.4 
			139.5,687.8 144.9,674.1 151.8,688.2 169,691.9 		"/>
		<polygon id="XMLID_112_" class="st1" points="219.6,812.1 227.1,829.6 210,817.2 197,828.2 202.1,811 189.5,801.2 205.1,802.2 
			207.7,788.9 215.6,802.1 232.7,804.6 		"/>
		<polygon id="XMLID_111_" class="st1" points="163.1,767.9 167.7,783.1 154.9,771.4 141.1,782.8 144.6,768.6 132.8,757.7 
			146.8,758.3 152.2,747.5 158.4,758.4 174.1,762.2 		"/>
		<polygon id="XMLID_110_" class="st1" points="171,844.8 174.9,853.6 162,843.7 162,843.7 162,843.7 149.9,834.3 155.6,834.3 
			158.3,824.5 166.4,835.4 181.7,839.4 		"/>
		<polygon id="XMLID_109_" class="st1" points="122.9,792.8 113.2,796.8 114.3,801.8 90.9,785.3 97.4,785.6 100.9,775.3 
			108.2,788.3 		"/>
		<polygon id="XMLID_108_" class="st1" points="103.8,722 110.4,742.1 92.4,728.7 80.1,735.5 84.7,721.1 71.7,706.9 88.2,712 
			94.8,698.1 100.6,711.6 118.7,715.3 		"/>
		<polygon id="XMLID_107_" class="st1" points="48.4,676.4 53.6,690 40,680.1 25.3,683.3 30.9,673.7 18.1,661.9 34.2,664.5 
			39,652.1 45.9,666 59.5,668.2 		"/>
		<polygon id="XMLID_106_" class="st1" points="-0.8,698.9 5.8,711.6 -26.9,685 -16.5,686.6 -12.3,678 -5.9,688.9 8.1,692.4 		"/>
		<polygon id="XMLID_105_" class="st1" points="57.2,750.1 60,755.7 37.3,737.7 42,738.6 45.2,726.4 52.9,739.9 68.5,745.4 		"/>
		<polygon id="XMLID_104_" class="st1" points="-79.6,680 -71.3,692.9 -89.2,685.9 -102.1,695.8 -99.3,682 -115.6,672.1 
			-98.7,672.9 -96.3,660.2 -85.9,673 -68.2,673.2 		"/>
		<polygon id="XMLID_103_" class="st1" points="-11.4,721 -3.9,732.2 -20.6,723 -33.9,731 -32.5,719.9 -45.3,708.4 -31.7,710 
			-28.7,700.3 -18.7,711.1 -3.7,715.2 		"/>
		<polygon id="XMLID_102_" class="st1" points="-56.2,743.5 -47.5,758.6 -67.6,751.7 -81.1,761.9 -78.9,748.4 -94.4,738.9 
			-77.9,737.3 -73.4,725.1 -62.5,735.3 -44.2,738.4 		"/>
		<polygon id="XMLID_101_" class="st1" points="-39.6,817.8 -33.8,832.5 -49.4,822.5 -63.8,831.7 -60.5,817.8 -75.9,809.6 
			-58.4,807.8 -55.3,795.2 -45.4,806.9 -28.2,806.6 		"/>
		<polygon id="XMLID_100_" class="st1" points="9.3,784.2 16.7,800.6 -0.2,789.1 -13.9,798.5 -12.6,783.1 -25.6,774.2 -9.2,774.4 
			-5.9,762.8 2.7,774.7 20.9,778.7 		"/>
		<polygon id="XMLID_99_" class="st1" points="53.9,764.5 62,779.9 43.9,767.9 35.2,770.9 35.2,761.3 21.2,750.7 36.5,754.7 
			37.1,746.4 45.6,757 62.4,765.1 		"/>
		<polygon id="XMLID_98_" class="st1" points="227.2,890.4 231.6,897.6 207.7,879 211.3,879.9 215.5,869.1 222.5,882.6 239.7,887 		
			"/>
		<polygon id="XMLID_97_" class="st1" points="175.4,867.4 184.4,882.1 167.8,870.3 155.2,875.9 158.5,861.3 144.9,847.4 
			160.7,851.6 162,843.7 162,843.7 170.1,856.8 186.6,862.1 		"/>
		<polygon id="XMLID_96_" class="st1" points="116.1,814.6 121.8,829.2 105.5,816.9 96.2,820.3 96.6,811.6 83.4,797.3 97.3,803.3 
			100,794.3 107.9,804.8 125.4,813 		"/>
		<polygon id="XMLID_95_" class="st1" points="70.6,837 76.9,852.9 59.8,841.5 48.3,848.3 51.3,833.5 37.8,819.7 53.4,823.9 
			58.8,810.5 66.2,823.3 83,832.2 		"/>
	</g>
</g>
</svg>
