<?xml version="1.0" encoding="UTF-8" standalone="no"?>
<!-- Created with Inkscape (http://www.inkscape.org/) -->
<svg xmlns:inkscape="http://www.inkscape.org/namespaces/inkscape" xmlns:rdf="http://www.w3.org/1999/02/22-rdf-syntax-ns#" xmlns="http://www.w3.org/2000/svg" xmlns:xlink="http://www.w3.org/1999/xlink" xmlns:ns1="http://sozi.baierouge.fr" xmlns:cc="http://creativecommons.org/ns#" xmlns:sodipodi="http://sodipodi.sourceforge.net/DTD/sodipodi-0.dtd" xmlns:dc="http://purl.org/dc/elements/1.1/" id="svg2" xml:space="preserve" viewBox="0 0 33.8 34.669" version="1.1" inkscape:version="0.91 r13725">
  <defs id="defs6">
    <linearGradient id="linearGradient26" y2="25.15" gradientUnits="userSpaceOnUse" x2="32.6" gradientTransform="matrix(.8 0 0 -.8 0 27.721)" y1="25.15" x1="1.3501">
      <stop id="stop28" style="stop-color:#d9d9d9" offset="0"/>
      <stop id="stop30" style="stop-color:#ededed" offset=".32160"/>
      <stop id="stop32" style="stop-color:#b0b0b0" offset="1"/>
    </linearGradient>
    <radialGradient id="radialGradient52" gradientUnits="userSpaceOnUse" cy="-11.867" cx="9.9985" gradientTransform="matrix(.2472 -.76088 .76088 .2472 18.058 33.588)" r="17.246">
      <stop id="stop54" style="stop-color:#f6fccc" offset="0"/>
      <stop id="stop56" style="stop-color:#87bb44" offset="1"/>
    </radialGradient>
    <radialGradient id="radialGradient70" gradientUnits="userSpaceOnUse" cy="-11.557" cx="10.855" gradientTransform="matrix(.24728 -.7608 .7608 .24728 17.586 33.437)" r="16.861">
      <stop id="stop72" style="stop-color:#d3db97" offset="0"/>
      <stop id="stop74" style="stop-color:#75b327" offset="1"/>
    </radialGradient>
    <radialGradient id="radialGradient88" gradientUnits="userSpaceOnUse" cy="-19.201" cx="10.808" gradientTransform="matrix(.24704 -.76088 .76088 .24704 29.22 37.208)" r="7.0837">
      <stop id="stop90" style="stop-color:#bedb7f" offset="0"/>
      <stop id="stop92" style="stop-color:#96cf4f" offset="1"/>
    </radialGradient>
    <radialGradient id="radialGradient106" gradientUnits="userSpaceOnUse" cy="-3.7114" cx="9.458" gradientTransform="matrix(.24696 -.76096 .76096 .24696 5.6486 29.554)" r="5.5065">
      <stop id="stop108" style="stop-color:#83ab4f" offset="0"/>
      <stop id="stop110" style="stop-color:#739c40" offset="1"/>
    </radialGradient>
    <linearGradient id="linearGradient124" y2="-19.25" gradientUnits="userSpaceOnUse" x2="15.71" gradientTransform="matrix(.33472 -.72664 -.72664 -.33472 -.00031610 27.721)" y1="-19.25" x1="13.261">
      <stop id="stop126" style="stop-color:#ffe000" offset="0"/>
      <stop id="stop128" style="stop-color:#fff7b5" offset="1"/>
    </linearGradient>
    <radialGradient id="radialGradient142" gradientUnits="userSpaceOnUse" cy="-9.5747" cx="8.8877" gradientTransform="matrix(.2468 -.76096 .76096 .2468 14.573 32.448)" r="10.736">
      <stop id="stop144" style="stop-color:#83ab4f" offset="0"/>
      <stop id="stop146" style="stop-color:#739c40" offset="1"/>
    </radialGradient>
    <radialGradient id="radialGradient160" gradientUnits="userSpaceOnUse" cy="-10.142" cx="12.488" gradientTransform="matrix(.2468 -.76096 .76096 .2468 15.435 32.728)" r="15.638">
      <stop id="stop162" style="stop-color:#afd67c" offset="0"/>
      <stop id="stop164" style="stop-color:#709c39" offset="1"/>
    </radialGradient>
    <radialGradient id="radialGradient178" gradientUnits="userSpaceOnUse" cy="-15.894" cx="10.789" gradientTransform="matrix(.2472 -.76088 .76088 .2472 24.186 35.579)" r="9.8705">
      <stop id="stop180" style="stop-color:#83ab4f" offset="0"/>
      <stop id="stop182" style="stop-color:#739c40" offset="1"/>
    </radialGradient>
    <radialGradient id="radialGradient196" gradientUnits="userSpaceOnUse" cy="-19.092" cx="16.017" gradientTransform="matrix(.24664 -.76104 .76104 .24664 29.059 37.14)" r="6.6489">
      <stop id="stop198" style="stop-color:#86b548" offset="0"/>
      <stop id="stop200" style="stop-color:#5b802d" offset="1"/>
    </radialGradient>
    <linearGradient id="linearGradient214" y2="-7.2656" gradientUnits="userSpaceOnUse" x2="18.397" gradientTransform="matrix(.33576 -.72616 -.72616 -.33576 .00019648 27.721)" y1="-7.2656" x1="15.836">
      <stop id="stop216" style="stop-color:#ffe000" offset="0"/>
      <stop id="stop218" style="stop-color:#fff7b5" offset="1"/>
    </linearGradient>
    <radialGradient id="radialGradient232" gradientUnits="userSpaceOnUse" cy="-24.201" cx="17.453" gradientTransform="matrix(.2464 -.76112 .76112 .2464 36.838 39.647)" r="5.0322">
      <stop id="stop234" style="stop-color:#83ab4f" offset="0"/>
      <stop id="stop236" style="stop-color:#739c40" offset="1"/>
    </radialGradient>
    <radialGradient id="radialGradient250" gradientUnits="userSpaceOnUse" cy="-23.08" cx="12.792" gradientTransform="matrix(.24672 -.76104 .76104 .24672 35.128 39.109)" r="2.8778">
      <stop id="stop252" style="stop-color:#83ab4f" offset="0"/>
      <stop id="stop254" style="stop-color:#739c40" offset="1"/>
    </radialGradient>
    <linearGradient id="linearGradient268" y2="-2.2441" gradientUnits="userSpaceOnUse" x2="14.616" gradientTransform="matrix(.65152 -.46424 -.46424 -.65152 -.000088552 27.721)" y1="-2.2441" x1="12.161">
      <stop id="stop270" style="stop-color:#ffe000" offset="0"/>
      <stop id="stop272" style="stop-color:#fff7b5" offset="1"/>
    </linearGradient>
    <radialGradient id="radialGradient286" gradientUnits="userSpaceOnUse" cy="-11.4" cx="11.687" gradientTransform="matrix(.2468 -.76096 .76096 .2468 17.351 33.349)" r="8.7519">
      <stop id="stop288" style="stop-color:#83ab4f" offset="0"/>
      <stop id="stop290" style="stop-color:#608c2b" offset="1"/>
    </radialGradient>
    <radialGradient id="radialGradient304" gradientUnits="userSpaceOnUse" cy="-5.7837" cx="13.918" gradientTransform="matrix(.24712 -.76088 .76088 .24712 8.8016 30.58)" r="6.1508">
      <stop id="stop306" style="stop-color:#83ab4f" offset="0"/>
      <stop id="stop308" style="stop-color:#668a38" offset="1"/>
    </radialGradient>
    <radialGradient id="radialGradient324" gradientUnits="userSpaceOnUse" cy="-2.6719" cx="13.739" gradientTransform="matrix(.32672 -.73024 .73024 .32672 3.9026 29.467)" r="6.6417">
      <stop id="stop326" style="stop-color:#95c755" offset="0"/>
      <stop id="stop328" style="stop-color:#6e963e" offset="1"/>
    </radialGradient>
    <radialGradient id="radialGradient342" gradientUnits="userSpaceOnUse" cy="-27.12" cx="-.75830" gradientTransform="matrix(-.24984 -.76 .76 -.24984 41.221 14.168)" r="8.6845">
      <stop id="stop344" style="stop-color:#537525" offset="0"/>
      <stop id="stop346" style="stop-color:#547828" offset="1"/>
    </radialGradient>
    <radialGradient id="radialGradient388" gradientUnits="userSpaceOnUse" cy="21.256" cx="-26.582" gradientTransform="matrix(-.34536 .7216 -.7216 -.34536 30.677 42.404)" r="4.5455">
      <stop id="stop390" style="stop-color:#639c35" offset="0"/>
      <stop id="stop392" style="stop-color:#79bd40" offset=".3098"/>
      <stop id="stop394" style="stop-color:#699632" offset="1"/>
    </radialGradient>
    <radialGradient id="radialGradient412" gradientUnits="userSpaceOnUse" cy="-8.9453" cx="-18.579" gradientTransform="matrix(-.74696 -.28648 .28648 -.74696 5.125 14.357)" r="4.5384">
      <stop id="stop414" style="stop-color:#639c35" offset="0"/>
      <stop id="stop416" style="stop-color:#79bd40" offset=".3098"/>
      <stop id="stop418" style="stop-color:#699632" offset="1"/>
    </radialGradient>
    <radialGradient id="radialGradient436" gradientUnits="userSpaceOnUse" cy="-10.714" cx=".59810" gradientTransform="matrix(-.43672 -.67024 .67024 -.43672 14.362 18.362)" r="5.2665">
      <stop id="stop438" style="stop-color:#639c35" offset="0"/>
      <stop id="stop440" style="stop-color:#79bd40" offset=".3098"/>
      <stop id="stop442" style="stop-color:#699632" offset="1"/>
    </radialGradient>
    <linearGradient id="linearGradient464" y2="18.025" gradientUnits="userSpaceOnUse" x2="33.8" gradientTransform="matrix(.8 0 0 -.8 0 27.721)" y1="18.025">
      <stop id="stop466" style="stop-color:#d9d9d9" offset="0"/>
      <stop id="stop468" style="stop-color:#ffffff" offset=".32160"/>
      <stop id="stop470" style="stop-color:#bdbdbd" offset="1"/>
    </linearGradient>
  </defs>
  <g id="g10" transform="matrix(1.25 0 0 -1.25 0 34.669)">
    <g id="g12">
      <path id="path14" style="fill-rule:evenodd;fill:#a3a3a3" d="m26.84 17.36-0.481-3.68c-1.226-0.398-2.812-0.757-4.757-1.082-3.84-0.613-7.469-0.679-10.883-0.199-3.387 0.453-6.051 0.949-8 1.481-0.957 0.265-1.586 0.496-1.879 0.679v3.68c0.508 0.48 1.387 0.977 2.64 1.48 2.532 0.989 5.653 1.481 9.36 1.481 5.414 0 9.375-0.641 11.883-1.918 1.25-0.641 1.957-1.281 2.117-1.922z" inkscape:connector-curvature="0"/>
      <g id="g16">
        <g id="g18">
          <g id="g24">
            <path id="path34" style="fill-rule:evenodd;fill:url(#linearGradient26)" d="m1.078 15.2 12.481-1.199 12.519 1.199-3.039-12.078h-0.039c-0.109-0.75-1.066-1.442-2.879-2.082-1.949-0.692-4.137-1.039-6.562-1.039-2.504 0-4.747 0.347-6.719 1.039-1.867 0.695-2.801 1.414-2.801 2.16v0.039l-2.961 11.961z" inkscape:connector-curvature="0"/>
          </g>
        </g>
      </g>
      <path id="path36" style="fill-rule:evenodd;fill:#8a8a8a" d="m24.801 10.282c-0.11-0.215-0.469-0.426-1.082-0.641-1.254-0.48-3.133-0.8-5.641-0.961-4.586-0.293-8.625-0.027-12.117 0.801-1.734 0.399-3.016 0.84-3.84 1.32l-0.16 0.438-0.359 1.922 0.117 2.601 23.32-3.921-0.238-1.559z" inkscape:connector-curvature="0"/>
      <path id="path38" style="fill-rule:evenodd;fill:#ffffff" d="m25.84 17.841c-0.028 0.878-1.238 1.625-3.641 2.238-2.371 0.617-5.226 0.922-8.558 0.922-3.336 0-6.188-0.305-8.563-0.922-2.371-0.613-3.586-1.36-3.637-2.238h-1.402c0.348 0.96 1.801 1.773 4.359 2.441 2.59 0.664 5.629 1 9.122 1 3.492 0 6.535-0.336 9.121-1 2.558-0.668 4.011-1.481 4.359-2.441h-1.16z" inkscape:connector-curvature="0"/>
      <path id="path40" style="fill-rule:evenodd;fill:#547526" d="m13 23.841c0.133-0.719-0.16-1.415-0.879-2.079 1.172 0.957 1.547 1.028 1.117 0.2-0.211-0.426-0.449-0.895-0.718-1.403-0.239-0.343-0.68-0.57-1.321-0.679-1.172 0.988-1.758 1.695-1.758 2.121 0 0.265 0.278 0.359 0.84 0.281 0.266-0.055 0.531-0.121 0.797-0.203-0.371 0.215-0.73 0.453-1.078 0.722-0.695 0.532-0.945 0.907-0.762 1.122 0.321 0.343 0.75 0.332 1.282-0.043-0.266 0.214-0.52 0.453-0.758 0.722-0.457 0.504-0.59 0.864-0.403 1.078 0.321 0.321 0.762 0.215 1.321-0.32-0.188 0.293-0.375 0.613-0.559 0.961-0.348 0.668-0.441 1.066-0.281 1.199 0.426 0.403 0.785 0.242 1.082-0.48 0.133-0.371 0.223-0.774 0.277-1.199l0.321 0.761c0.265 0.453 0.48 0.571 0.64 0.36 0.266-0.348 0.106-1.016-0.48-2 0.718 0.879 1.121 1.093 1.199 0.64 0.066-0.386-0.109-0.902-0.52-1.543 0.344 0.41 0.559 0.336 0.641-0.218z" inkscape:connector-curvature="0"/>
      <g id="g42">
        <g id="g44">
          <g id="g50">
            <path id="path58" style="fill-rule:evenodd;fill:url(#radialGradient52)" d="m19.32 24.282c0.321-0.16 0.758-0.359 1.321-0.602 0.906-0.507 1.398-0.851 1.48-1.039 0.051-0.105 0.117-0.48 0.199-1.121 0.133-0.613 0.321-0.961 0.559-1.039 0.32-0.133 0.519-0.242 0.601-0.32 0.106-0.106 0.254-0.332 0.442-0.68 0.051-0.133 0.144-0.453 0.277-0.961 0.082-0.293 0.203-0.48 0.363-0.558 0.211-0.133 0.411-0.348 0.598-0.641 0.215-0.293 0.32-0.574 0.32-0.84 0-0.508-1.187-1.347-3.558-2.519-2.801-1.332-5.535-1.922-8.199-1.762-7.391 0.535-11.325 1.773-11.801 3.723-0.11 0.316-0.11 0.691 0 1.117 0.133 0.426 0.223 0.761 0.277 1 0.055 0.242 0.254 0.469 0.602 0.679 0.32 0.188 0.465 0.36 0.437 0.52-0.105 0.48 0.11 0.961 0.641 1.441 0.187 0.215 0.48 0.481 0.883 0.801 0.449 0.371 0.797 0.598 1.039 0.68 0.16 0.078 0.48 0.133 0.961 0.16 0.504 0.027 0.945 0.105 1.316 0.238 0.402 0.11 0.734 0.282 1 0.52 0.348 0.269 0.617 0.441 0.801 0.523 0.242 0.133 0.547 0.199 0.922 0.199 0.371 0 0.664 0.067 0.879 0.2 0.16 0.105 0.308 0.293 0.441 0.558 0.106 0.188 0.332 0.309 0.68 0.364 0.426 0.078 1.078 0.304 1.961 0.679 0.504 0.239 1.039 0.332 1.597 0.278 0.641-0.051 1.172-0.278 1.602-0.68 0.371-0.344 0.824-0.652 1.359-0.918z" inkscape:connector-curvature="0"/>
          </g>
        </g>
      </g>
      <g id="g60">
        <g id="g62">
          <g id="g68">
            <path id="path76" style="fill-rule:evenodd;fill:url(#radialGradient70)" d="m22.121 18.841c0.156 0.214 0.305 0.507 0.438 0.878 0.082 0.27 0.175 0.403 0.281 0.403 0.055-0.028 0.172-0.043 0.359-0.043 0.082 0 0.11-0.039 0.082-0.117-0.027-0.082-0.121-0.266-0.281-0.563-0.133-0.265-0.188-0.437-0.16-0.519 0.055-0.293 0.199-0.454 0.441-0.481 0.106-0.023 0.281 0 0.52 0.082 0.133 0.028 0.039-0.094-0.281-0.359-0.668-0.586-0.735-0.934-0.2-1.043 0.16-0.051 0.254 0 0.282 0.16 0.05 0.187 0.105 0.297 0.16 0.32 0.105 0.028 0.199 0.067 0.277 0.121 0.055 0 0.121-0.066 0.199-0.199l0.242-0.64c0.028-0.051 0.055-0.028 0.082 0.082l0.079-0.403c0.082-0.293 0.332-0.574 0.761-0.84 0.184-0.293-0.175-0.757-1.082-1.398-1.011-0.723-4.093-1.336-9.238-1.84-4.934-0.508-7.922-0.601-8.961-0.281-0.801 0.238-1.668 0.68-2.601 1.32-0.852 0.586-1.293 0.973-1.321 1.16-0.078 0.371-0.144 0.719-0.199 1.039-0.105 0.586-0.133 1.012-0.078 1.282l0.078 0.679 0.602 0.36 0.078-0.52c0.293-0.375 0.574-0.562 0.84-0.562 0.16 0 0.359 0.16 0.601 0.48 0.293 0.375 0.492 0.602 0.602 0.68 0.156 0.109 0.117 0.187-0.121 0.242-0.375 0.133-0.614 0.266-0.723 0.398-0.211 0.243-0.344 0.415-0.399 0.52-0.105 0.16-0.093 0.348 0.04 0.562l1.082 1.321 0.199-0.84c0.078-0.16 0.16-0.387 0.238-0.68 0.106-0.242 0.309-0.375 0.602-0.402 0.347-0.027 0.652 0.016 0.918 0.121 0.242 0.078 0.347 0.16 0.32 0.238-0.371 0.43-0.586 0.746-0.641 0.961-0.023 0.106 0.028 0.309 0.16 0.602l0.161 0.359 0.441-0.558c0-0.11 0.066-0.188 0.199-0.243 0.133-0.027 0.215 0.016 0.242 0.121 0.028 0.028 0.039 0.161 0.039 0.399 0 0.133 0.04 0.187 0.122 0.16l0.476-0.281c0.055-0.051 0.203-0.25 0.442-0.598 0.292-0.293 0.558-0.359 0.8-0.199 0.266 0.184 0.414 0.305 0.442 0.359 0 0.055-0.11 0.254-0.321 0.598-0.187 0.27-0.308 0.441-0.363 0.523-0.051 0.079-0.066 0.25-0.039 0.52 0.027 0.293 0.16 0.586 0.402 0.879 0.106 0.16 0.211 0.293 0.321 0.398l-0.082-0.359c-0.028-0.238-0.012-0.438 0.039-0.598 0-0.027 0.043-0.176 0.121-0.441 0-0.082 0.105-0.094 0.32-0.039 0.348 0.051 0.535 0.078 0.559 0.078 0.109 0.055 0.16 0.16 0.16 0.32-0.051 0.188-0.094 0.309-0.117 0.36-0.028 0.082 0.023 0.175 0.16 0.281 0.133 0.078 0.223 0.172 0.277 0.281 0.055 0.078 0.121 0.133 0.199 0.16 0.11 0.024 0.254 0.078 0.442 0.16 0.133 0.079 0.215 0.2 0.238 0.36l0.082 0.437 0.199-0.117c0.133-0.082 0.215-0.176 0.243-0.281 0.023-0.055 0.078-0.121 0.16-0.199 0.023-0.028 0-0.121-0.082-0.282-0.133-0.32-0.2-0.492-0.2-0.519-0.105-0.133-0.253-0.172-0.441-0.121-0.184 0.027-0.344 0-0.48-0.078-0.133-0.055-0.211-0.133-0.239-0.243l0.078-0.519c-0.105-0.133-0.183-0.254-0.238-0.359-0.133-0.215-0.121-0.305 0.039-0.282 0.133 0.028 0.215 0.16 0.242 0.403 0.028 0.238 0.094 0.398 0.2 0.48 0.132 0.078 0.347 0.199 0.64 0.359 0.239 0.161 0.399 0.36 0.481 0.598 0.16 0.402 0.316 0.856 0.476 1.363l0.684 0.317c-0.16-0.266-0.281-0.586-0.363-0.957-0.051-0.348-0.184-0.68-0.399-1 0-0.082 0.067-0.121 0.199-0.121 0.161 0 0.266 0.054 0.321 0.16 0.32 0.375 0.441 0.48 0.359 0.32-0.051-0.187-0.199-0.426-0.437-0.719-0.082-0.16-0.27-0.336-0.563-0.523-0.32-0.16-0.547-0.277-0.68-0.359-0.214-0.133-0.332-0.293-0.359-0.481 0-0.078 0.094-0.476 0.281-1.199 0.024-0.133 0.012-0.277-0.043-0.438-0.023-0.109-0.011-0.175 0.043-0.203 0.293-0.105 0.598-0.023 0.918 0.242 0.106 0.079 0.266 0.133 0.481 0.161 0.105 0.027 0.132 0.093 0.082 0.199-0.055 0.105-0.188 0.293-0.403 0.558-0.214 0.243-0.332 0.387-0.359 0.442l0.039 0.48 0.281-0.039c0.188-0.027 0.293-0.109 0.321-0.242 0.078-0.215 0.254-0.547 0.519-1 0.051-0.133 0.254-0.293 0.602-0.48 0.398-0.184 0.57-0.332 0.519-0.438-0.109 0.051-0.441 0.012-1-0.121-1.015-0.242-1.547-0.375-1.601-0.398l-0.121-0.161c-0.028-0.027-0.161-0.054-0.399-0.082-0.348 0.055-0.586 0.067-0.719 0.039-0.214-0.023-0.414-0.183-0.601-0.48-0.133-0.238-0.36-0.492-0.68-0.758-0.16-0.187-0.121-0.336 0.121-0.441 0.211-0.106 0.465-0.25 0.758-0.438 0.242-0.082 0.375-0.015 0.402 0.199 0.028 0.161 0 0.372-0.082 0.641-0.054 0.211-0.054 0.348 0 0.399 0.082 0.105 0.133 0.16 0.161 0.16 0.054 0 0.148-0.067 0.281-0.2 0.054-0.054 0.277-0.093 0.679-0.121 0.266-0.027 0.321-0.214 0.161-0.558-0.161-0.348-0.375-0.656-0.641-0.922-0.266-0.238-0.414-0.399-0.441-0.481-0.106-0.293-0.161-0.464-0.161-0.519 0-0.188 0.11-0.266 0.321-0.238 0.16 0 0.336-0.039 0.519-0.121 0.16 0 0.297 0.132 0.403 0.398 0.078 0.215 0.16 0.551 0.238 1 0.082 0.43 0.176 0.723 0.281 0.883 0.106 0.16 0.215 0.32 0.32 0.48 0.051 0.106 0.188 0.172 0.399 0.199 0.348 0.051 0.613 0.028 0.801-0.082 0.773-0.585 1.16-0.906 1.16-0.957 0-0.082-0.106-0.203-0.32-0.363-0.293 0.297-0.598 0.43-0.918 0.402-0.403-0.027-0.641-0.054-0.723-0.082-0.211-0.078-0.371-0.253-0.481-0.519-0.078-0.211-0.199-0.481-0.359-0.801-0.105-0.211-0.039-0.332 0.199-0.359 0.375-0.051 0.657-0.074 0.84-0.078 0.008 0.035 0.074 0.156 0.203 0.359 0.184 0.266 0.387 0.441 0.598 0.52 0.535 0.214 0.84 0.293 0.922 0.238 0.211-0.051 0.066-0.266-0.442-0.637-0.027-0.027-0.171-0.109-0.437-0.242-0.11-0.055-0.137-0.16-0.082-0.32 0.055-0.211 0.172-0.36 0.359-0.438 0.188-0.109 0.348-0.094 0.481 0.039 0.187 0.188 0.425 0.465 0.718 0.84 0.137 0.105 0.457 0.281 0.961 0.52 0.426 0.214 0.762 0.464 1 0.761 0.586 0.692 0.907 1.051 0.961 1.078 0.321 0.321 0.668 0.465 1.039 0.442 0.293-0.028 0.536-0.16 0.719-0.403 0.133-0.183 0.293-0.199 0.481-0.039 0.187 0.133 0.281 0.309 0.281 0.52 0.027 0.242 0.121 0.453 0.281 0.641z" inkscape:connector-curvature="0"/>
          </g>
        </g>
      </g>
      <g id="g78">
        <g id="g80">
          <g id="g86">
            <path id="path94" style="fill-rule:evenodd;fill:url(#radialGradient88)" d="m18.16 24.68c0.106-0.054 0.16-0.054 0.16 0l0.16 0.082 0.52-0.363 0.641-0.277c-0.215-0.028-0.36-0.094-0.442-0.199-0.187-0.27-0.332-0.457-0.437-0.563-0.508-0.348-0.774-0.559-0.801-0.641 0-0.105 0.051-0.253 0.16-0.437 0.106-0.242 0.227-0.336 0.359-0.281l0.481 0.32c0.133 0.133 0.305 0.16 0.519 0.078l0.282-0.078c-0.055 0-0.11-0.016-0.16-0.039-0.11-0.055-0.149-0.176-0.122-0.359 0-0.137-0.011-0.282-0.039-0.442 0-0.082 0.106-0.133 0.321-0.16 0.504-0.027 0.773-0.039 0.8-0.039 0.051 0 0.106 0.066 0.161 0.199 0.023 0.078 0.144 0.094 0.355 0.039 0.188-0.054 0.363-0.105 0.524-0.16 0.078-0.027 0.132-0.078 0.16-0.16 0.023-0.055 0.105-0.106 0.238-0.16 0.105-0.078 0.172-0.16 0.199-0.239 0.028-0.105 0.055-0.253 0.082-0.441 0.028-0.133-0.015-0.215-0.121-0.238-0.105-0.028-0.398 0.051-0.879 0.238-0.535 0.215-0.816 0.32-0.84 0.32-0.214-0.105-0.496-0.199-0.839-0.281-0.829-0.238-1.348-0.437-1.563-0.598-0.664-0.507-1.051-0.789-1.16-0.839-0.133-0.055-0.359-0.039-0.68 0.039-0.371 0.078-0.613 0.172-0.719 0.281-0.054 0.051-0.226 0.32-0.519 0.797-0.242 0.43-0.414 0.656-0.52 0.683-0.375 0.293-0.562 0.52-0.562 0.68-0.024 0.16 0.043 0.426 0.199 0.797 0.055 0.187 0.11 0.336 0.16 0.441 0.082 0.188 0.203 0.332 0.364 0.442l1.32 0.597c0.476 0.161 0.73 0.387 0.758 0.68l0.039 1.281 0.32-0.441c0.133-0.316 0.199-0.68 0.199-1.078 0-0.453-0.078-0.746-0.238-0.879-0.188-0.109-0.305-0.176-0.359-0.203-0.106-0.051-0.106-0.106 0-0.156 0.105-0.082 0.265-0.11 0.48-0.082 0.211 0.027 0.371 0.093 0.481 0.199 0.105 0.105 0.183 0.336 0.238 0.679 0.055 0.321 0.066 0.536 0.039 0.641 0 0.027-0.039 0.133-0.117 0.32-0.055 0.133-0.043 0.188 0.039 0.161 0.027 0 0.144-0.055 0.359-0.161z" inkscape:connector-curvature="0"/>
          </g>
        </g>
      </g>
      <g id="g96">
        <g id="g98">
          <g id="g104">
            <path id="path112" style="fill-rule:evenodd;fill:url(#radialGradient106)" d="m3.719 20.559c0.375 0.614 0.789 1.082 1.242 1.403 0.293 0.211 0.519 0.332 0.68 0.359 0.132 0.027 0.437 0.055 0.918 0.078 0.64 0.055 1.187 0.149 1.64 0.281-0.078-0.078-0.144-0.171-0.199-0.281-0.105-0.16-0.105-0.238 0-0.238-0.328-0.016-0.793-0.094-1.398-0.238-0.801-0.215-1.321-0.457-1.563-0.723-0.105-0.078-0.227-0.199-0.359-0.359-0.266-0.293-0.492-0.602-0.68-0.918-0.48-0.829-0.602-1.321-0.359-1.481 0.16-0.082 0.519-0.203 1.078-0.363 0.48-0.344 0.933-0.598 1.359-0.758l-0.359-0.641c-0.879 0.266-1.438 0.493-1.68 0.68-0.613 0.508-0.945 1.082-1 1.719-0.027 0.297 0 0.523 0.082 0.683 0.024 0.051 0.227 0.317 0.598 0.797z" inkscape:connector-curvature="0"/>
          </g>
        </g>
      </g>
      <g id="g114">
        <g id="g116">
          <g id="g122">
            <path id="path130" style="fill-rule:evenodd;fill:url(#linearGradient124)" d="m20.32 23.88c0.16-0.266 0.172-0.559 0.039-0.879-0.05-0.133-0.148-0.239-0.281-0.321-0.133-0.054-0.398-0.121-0.801-0.199-0.371-0.082-0.652-0.094-0.839-0.039l-0.2 0.117c-0.398 0.215-0.691 0.496-0.879 0.84-0.293 0.43-0.32 0.801-0.078 1.121 0.133 0.188 0.399 0.348 0.797 0.481 0.508 0.105 0.934 0.066 1.281-0.121 0.536-0.266 0.856-0.598 0.961-1z" inkscape:connector-curvature="0"/>
          </g>
        </g>
      </g>
      <g id="g132">
        <g id="g134">
          <g id="g140">
            <path id="path148" style="fill-rule:evenodd;fill:url(#radialGradient142)" d="m14 25.501c-0.156-0.129-0.289-0.282-0.398-0.461-0.137-0.239-0.243-0.492-0.321-0.758-0.109-0.348-0.187-0.586-0.242-0.723-0.078-0.238-0.172-0.398-0.277-0.48-0.188-0.184-0.403-0.383-0.641-0.598-0.266-0.242-0.613-0.492-1.043-0.762-0.398-0.238-0.652-0.414-0.758-0.519-0.187-0.293-0.332-0.504-0.441-0.641-0.184-0.238-0.414-0.437-0.68-0.597-0.453-0.243-1.277-0.536-2.48-0.883l0.121-0.438c0.082-0.32 0.199-0.562 0.359-0.718 0.082-0.11 0.348-0.282 0.801-0.524 0.453-0.238 0.785-0.492 1-0.758 0.238-0.32 0.398-0.652 0.48-1 0.028-0.105 0.067-0.48 0.122-1.121 0.05-0.558-0.227-0.867-0.84-0.918l-0.602 0.278c0.426 1.308 0.414 2.16-0.039 2.562-0.773 0.559-1.309 1-1.601 1.32-0.188 0.184-0.36 0.399-0.52 0.637l-0.16 0.281c0.535 0.188 0.933 0.426 1.199 0.719l0.441 0.442 1.161 0.64c0.453 0.215 0.652 0.399 0.597 0.559l-0.316 0.359c1.039 0.188 1.918 0.613 2.637 1.281 0.242 0.215 0.48 0.426 0.722 0.641 0.106 0.133 0.145 0.32 0.117 0.559-0.023 0.242 0.082 0.535 0.321 0.882 0.109 0.184 0.215 0.344 0.32 0.477h0.242c0.184 0.027 0.414 0.109 0.68 0.242l0.039 0.02z" inkscape:connector-curvature="0"/>
          </g>
        </g>
      </g>
      <g id="g150">
        <g id="g152">
          <g id="g158">
            <path id="path166" style="fill-rule:evenodd;fill:url(#radialGradient160)" d="m18.16 22.04c0.266 0.375 0.426 0.679 0.481 0.922l0.8-0.442c-0.109-0.078-0.203-0.172-0.281-0.281-0.16-0.238-0.133-0.504 0.078-0.797 0.774-1.094 0.989-1.949 0.641-2.562l-0.641-0.957c-0.16-0.403-0.144-0.801 0.043-1.204 0.586-1.359 1.145-1.972 1.68-1.839 0.215 0.054 0.531 0.148 0.961 0.281 0.293 0.16 0.359 0.398 0.199 0.719-0.293 0.453-0.508 0.773-0.641 0.961-0.187 0.32-0.226 0.625-0.121 0.921 0.055 0.106 0.243 0.372 0.563 0.797 0.183 0.242 0.199 0.508 0.039 0.801l-0.762 1.121 0.281 0.36 0.559-0.36c0.402-0.347 0.59-0.734 0.563-1.16 0-0.293-0.176-0.68-0.52-1.16-0.242-0.348-0.254-0.68-0.043-1 0.188-0.293 0.441-0.586 0.762-0.879 0.215-0.188 0.332-0.375 0.359-0.563 0.028-0.265 0.176-0.414 0.442-0.437 0.293-0.027 0.437 0.078 0.437 0.32 0 0.184-0.09 0.52-0.277 1l-0.282 0.637 0.243 0.48 0.277-0.437c0.215-0.348 0.332-0.68 0.359-1 0.082-0.563 0.055-1.016-0.082-1.359-0.211-0.563-0.769-1.082-1.679-1.563-1.067-0.559-3.25-0.918-6.559-1.078-3.414-0.188-6.133-0.027-8.16 0.48-1.758 0.45-3.375 1.172-4.84 2.161l-1.641 1.359 0.563 2.078 0.437-0.32 0.204-0.039-0.524-1.282c-0.078-0.371-0.078-0.625 0-0.757 0.32-0.055 0.707 0.238 1.16 0.879 0.696 0.988 1.524 1.668 2.481 2.039 0.48 0.187 0.789 0.359 0.922 0.519 0.132 0.215 0.281 0.43 0.437 0.641 0.375 0.426 0.707 0.679 1 0.761l0.883-0.121c-0.215-0.078-0.547-0.32-1-0.718-0.16-0.133-0.359-0.387-0.602-0.762-0.16-0.266-0.398-0.465-0.718-0.598-1.039-0.457-1.629-0.816-1.762-1.082-0.024-0.054-0.199-0.32-0.52-0.801-0.293-0.531-0.347-0.984-0.16-1.359 0.242-0.504 0.403-0.773 0.481-0.801 0.105-0.105 0.375-0.133 0.8-0.078 0.801 0.106 1.387 0.613 1.758 1.52 0.11 0.265 0.321 0.547 0.641 0.84 0.375 0.347 0.641 0.679 0.801 1l0.48 1.32c0.188 0.508 0.465 0.879 0.84 1.121 0.48 0.344 0.762 0.57 0.84 0.68 0.105 0.16 0.094 0.425-0.039 0.8-0.106 0.317-0.254 0.586-0.442 0.797l-0.238 0.203 0.801 0.161 0.316-0.364c0.242-0.293 0.387-0.586 0.442-0.879 0.082-0.32 0.082-0.586 0-0.8-0.078-0.161-0.239-0.332-0.481-0.52-0.32-0.215-0.531-0.359-0.64-0.437-0.184-0.161-0.305-0.364-0.36-0.602-0.105-0.508-0.371-1.094-0.801-1.762-0.105-0.16-0.425-0.531-0.957-1.117-0.402-0.402-0.601-0.695-0.601-0.883 0-0.16-0.051-0.332-0.16-0.519-0.055-0.16 0.054-0.278 0.32-0.36 0.398-0.132 0.867-0.238 1.398-0.32 0.668-0.105 1.137-0.133 1.403-0.078 0.293 0.078 0.625 0.371 1 0.879 0.344 0.508 0.531 0.973 0.558 1.398 0.028 0.563 0.082 0.934 0.161 1.121 0.132 0.348 0.48 0.653 1.039 0.922 0.429 0.184 0.867 0.387 1.32 0.598 0.266 0.16 0.414 0.453 0.441 0.879 0.028 0.43-0.015 0.867-0.121 1.32l-0.199 0.602h0.68c0.242-0.188 0.32-0.735 0.242-1.641-0.082-0.613-0.27-1.121-0.563-1.519-0.187-0.215-0.519-0.481-1-0.801-0.398-0.266-0.664-0.465-0.8-0.598-0.161-0.215-0.254-0.453-0.278-0.723-0.027-0.238-0.148-0.597-0.359-1.078-0.11-0.242-0.27-0.586-0.481-1.039-0.109-0.347 0.067-0.64 0.52-0.883 0.504-0.293 1.16-0.371 1.961-0.238 0.105 0.028 0.973 0 2.598-0.082 0.855-0.023 1.292 0.297 1.32 0.961 0.027 0.613-0.039 1.266-0.199 1.961-0.133 0.613-0.188 1.027-0.161 1.238 0.028 0.242 0.172 0.547 0.442 0.922 0.293 0.399 0.453 0.719 0.48 0.961 0.024 0.211-0.214 0.664-0.722 1.359-0.481 0.641-0.653 1.055-0.52 1.239z" inkscape:connector-curvature="0"/>
          </g>
        </g>
      </g>
      <g id="g168">
        <g id="g170">
          <g id="g176">
            <path id="path184" style="fill-rule:evenodd;fill:url(#radialGradient178)" d="m16.359 26.001 0.641-0.16 0.078-0.481c0.16-0.641 0.149-1.199-0.039-1.68-0.051-0.16-0.371-0.332-0.961-0.519-0.719-0.238-1.105-0.371-1.156-0.399-0.16-0.109-0.32-0.308-0.481-0.601-0.109-0.348-0.187-0.547-0.242-0.602-0.027-0.078-0.027-0.133 0-0.16 0.106-0.051 0.215-0.16 0.321-0.32 0.292-0.453 0.96-0.985 2-1.598 0.402-0.242 0.734-0.707 1-1.402 0.054-0.531-0.161-1.051-0.641-1.559-0.238-0.265-0.586-0.48-1.039-0.64-0.481-0.184-0.801-0.348-0.961-0.481-0.348-0.32-0.559-0.89-0.641-1.719l-1.398 0.282c0.398 0.425 0.746 0.906 1.039 1.437 0.187 0.32 0.547 0.613 1.082 0.883 0.824 0.426 1.25 0.652 1.277 0.68 0.668 0.453 0.817 0.933 0.442 1.437-0.293 0.43-0.719 0.774-1.282 1.043-0.398 0.106-0.691 0.211-0.878 0.32-0.321 0.133-0.52 0.36-0.598 0.68-0.082 0.293-0.27 0.57-0.563 0.84l-0.398 0.32 0.68 0.36c0.132 0.027 0.414 0.425 0.839 1.199 0.133 0.215 0.52 0.441 1.161 0.68 0.425 0.132 0.664 0.293 0.718 0.48 0.028 0.105-0.011 0.359-0.121 0.758-0.078 0.453-0.293 0.762-0.636 0.922h0.757z" inkscape:connector-curvature="0"/>
          </g>
        </g>
      </g>
      <g id="g186">
        <g id="g188">
          <g id="g194">
            <path id="path202" style="fill-rule:evenodd;fill:url(#radialGradient196)" d="m18.559 19.481c-0.426-0.187-0.825-0.508-1.2-0.961l-0.48-0.64 0.281-0.2c0.266-0.132 0.547-0.254 0.84-0.359 0.508-0.133 1.602-0.398 3.281-0.801 0.426-0.187 0.918-0.558 1.481-1.121l-1.16-0.476c-0.375 0.425-0.856 0.839-1.442 1.238-0.32 0.215-0.695 0.305-1.121 0.281-0.586 0-1.144 0.067-1.68 0.199-0.691 0.188-1.199 0.481-1.519 0.879l-0.32 0.559 1.601 1.683c0.133 0.184 0.426 0.383 0.879 0.598 0.238 0.133 0.547 0.281 0.922 0.441 0.289 0.161 0.625 0.454 1 0.879 0.051-0.078 0.289-0.105 0.719-0.078l-0.563-0.801c-0.183-0.265-0.359-0.48-0.519-0.64-0.239-0.266-0.571-0.492-1-0.68z" inkscape:connector-curvature="0"/>
          </g>
        </g>
      </g>
      <g id="g204">
        <g id="g206">
          <g id="g212">
            <path id="path220" style="fill-rule:evenodd;fill:url(#linearGradient214)" d="m9.398 18.602c0.188 0.211 0.481 0.41 0.883 0.598 0.531 0.242 0.973 0.281 1.321 0.121 0.531-0.266 0.812-0.734 0.839-1.398 0.079-0.137 0-0.469-0.242-1-0.078-0.188-0.133-0.297-0.16-0.321-0.105-0.082-0.332-0.16-0.68-0.242-0.371-0.078-0.664-0.078-0.879 0l-0.199 0.16c0.211-0.105-0.054 0.199-0.801 0.922l-0.082 0.199c-0.16 0.426-0.16 0.746 0 0.961z" inkscape:connector-curvature="0"/>
          </g>
        </g>
      </g>
      <g id="g222">
        <g id="g224">
          <g id="g230">
            <path id="path238" style="fill-rule:evenodd;fill:url(#radialGradient232)" d="m24.32 18.641c0.028-0.242 0.078-0.414 0.16-0.519 0.079-0.082 0.239-0.242 0.481-0.481 0.316-0.347 0.453-0.613 0.398-0.8-0.586-0.508-1-0.801-1.238-0.879-0.508-0.161-0.894 0.027-1.16 0.558-0.082 0.16-0.336 0.309-0.762 0.442-0.48 0.132-0.824 0.332-1.039 0.597-0.265 0.297-0.293 0.602-0.082 0.922 0.133 0.215 0.402 0.613 0.801 1.199 0.348 0.641 0.254 1.266-0.281 1.879 0.136-0.16 0.336-0.25 0.601-0.277 0.321-0.32 0.508-0.602 0.559-0.84 0.109-0.43-0.145-0.988-0.758-1.68-0.133-0.16-0.16-0.363-0.082-0.601 0.082-0.215 0.215-0.371 0.402-0.481 0.586-0.32 1.024-0.668 1.317-1.039 0.187-0.265 0.386-0.359 0.601-0.281 0.106 0.027 0.266 0.149 0.481 0.359 0.16 0.215 0.027 0.536-0.399 0.961-0.293 0.266-0.468 0.625-0.519 1.082-0.028 0.184-0.137 0.465-0.321 0.84l-0.281 0.52 0.321-0.199c0.16-0.11 0.265-0.149 0.32-0.122l0.238-0.359c0.137-0.297 0.215-0.562 0.242-0.801z" inkscape:connector-curvature="0"/>
          </g>
        </g>
      </g>
      <g id="g240">
        <g id="g242">
          <g id="g248">
            <path id="path256" style="fill-rule:evenodd;fill:url(#radialGradient250)" d="m20.641 23.641 0.078-0.242c0.054-0.078 0.133-0.254 0.242-0.519 0.133-0.239 0.332-0.414 0.598-0.52l0.8-0.359 0.082-0.719-0.363 0.32c-0.558 0.184-0.957 0.344-1.199 0.477-0.156 0.109-0.317 0.32-0.481 0.64-0.132 0.321-0.21 0.614-0.238 0.883-0.027 0.239-0.148 0.426-0.359 0.559l-0.281 0.16c0.347-0.055 0.718-0.281 1.121-0.68z" inkscape:connector-curvature="0"/>
          </g>
        </g>
      </g>
      <g id="g258">
        <g id="g260">
          <g id="g266">
            <path id="path274" style="fill-rule:evenodd;fill:url(#linearGradient268)" d="m10.961 23.88c0.293-0.211 0.453-0.454 0.48-0.719 0.028-0.16-0.015-0.293-0.121-0.399-0.054-0.109-0.254-0.308-0.601-0.601-0.453-0.371-0.758-0.508-0.918-0.399-0.481-0.027-0.879 0.051-1.199 0.239-0.43 0.293-0.641 0.625-0.641 1 0.027 0.215 0.199 0.465 0.519 0.761 0.348 0.344 0.719 0.532 1.122 0.559 0.613 0.027 1.066-0.121 1.359-0.441z" inkscape:connector-curvature="0"/>
          </g>
        </g>
      </g>
      <g id="g276">
        <g id="g278">
          <g id="g284">
            <path id="path292" style="fill-rule:evenodd;fill:url(#radialGradient286)" d="m8.359 22.923c0.321 0.05 0.536 0.144 0.641 0.277 0.188 0.187 0.48 0.32 0.879 0.402-0.024-0.16-0.145-0.347-0.359-0.562-0.188-0.211-0.161-0.692 0.082-1.438 0.105-0.215 0.253-0.386 0.437-0.523 0.133-0.051 0.309-0.133 0.52-0.238 0.668-0.586 1.109-1.067 1.32-1.442 0.109-0.211 0.426-0.426 0.961-0.637 0.32-0.136 0.84-0.308 1.558-0.523 0.508-0.184 0.977-0.531 1.403-1.039 0.371-0.453 0.625-0.906 0.758-1.359 0.136-0.559-0.028-1.122-0.481-1.68l-1.078 0.078c0.508 0.641 0.773 1.227 0.801 1.762 0.027 0.375-0.387 0.867-1.242 1.48-0.825 0.613-1.426 0.906-1.797 0.879-0.617-0.027-1.231 0.336-1.84 1.082-0.242 0.293-0.75 0.692-1.524 1.199-0.746 0.481-1.144 0.801-1.199 0.961-0.105 0.239-0.105 0.532 0 0.879l0.16 0.442z" inkscape:connector-curvature="0"/>
          </g>
        </g>
      </g>
      <g id="g294">
        <g id="g296">
          <g id="g302">
            <path id="path310" style="fill-rule:evenodd;fill:url(#radialGradient304)" d="m6.121 18.801 0.641 1.2 0.039-0.68c0.078-0.535 0.211-0.961 0.398-1.281 0.188-0.399 0.496-0.735 0.922-1 0.371-0.266 0.973-0.574 1.801-0.918 0.664-0.293 1.051-0.856 1.156-1.68 0.055-0.43 0.043-0.816-0.039-1.16-0.879-0.242-1.879-0.16-3 0.238-0.531 0.188-1.027 0.508-1.48 0.961-0.614 0.586-0.946 1.227-1 1.918-0.024 0.641 0.16 1.442 0.562 2.402z" inkscape:connector-curvature="0"/>
          </g>
        </g>
      </g>
      <path id="path312" style="fill-rule:evenodd;fill:#60872b" d="m20.16 21.239 0.238 0.402c0.215 0.293 0.414 0.481 0.602 0.559 0.188 0.082 0.266-0.066 0.238-0.438-0.023-0.375-0.105-0.64-0.238-0.8l-0.238-0.282 0.359 0.36c0.238 0.215 0.387 0.215 0.438 0 0.054-0.344-0.2-0.735-0.758-1.16l0.558 0.281c0.375 0.133 0.52 0.055 0.442-0.238-0.133-0.457-0.442-0.778-0.922-0.961l0.519 0.039c0.321 0 0.442-0.133 0.364-0.399-0.11-0.429-0.629-0.883-1.563-1.363 0.774 0.32 1.094 0.281 0.961-0.117-0.105-0.403-0.519-0.817-1.238-1.242l0.516 0.043c0.347 0 0.523-0.055 0.523-0.161 0-0.269-0.336-0.617-1-1.043-0.801-0.531-1.668-0.73-2.602-0.597-0.535 0.238-0.855 0.64-0.961 1.199-0.054 0.426-0.078 0.785-0.078 1.078 0.024 0.32 0.078 0.43 0.16 0.32l0.278-0.359c-0.16 0.934-0.184 1.602-0.078 2 0.078 0.242 0.254 0.266 0.519 0.082 0.133-0.109 0.254-0.242 0.36-0.402-0.133 0.64-0.121 1.187 0.039 1.64 0.109 0.266 0.254 0.282 0.441 0.039 0.082-0.105 0.16-0.238 0.238-0.398v0.559c0.028 0.402 0.121 0.707 0.282 0.921 0.242 0.372 0.414 0.239 0.519-0.402l0.602 1.242c0.187 0.266 0.347 0.133 0.48-0.402z" inkscape:connector-curvature="0"/>
      <g id="g314">
        <g id="g316">
          <g id="g322">
            <path id="path330" style="fill-rule:evenodd;fill:url(#radialGradient324)" d="m7.359 16.801-0.238-0.48 0.359-0.602 0.2-0.238c0.187 0.188 0.308 0.399 0.359 0.641l0.16 0.879v-0.961c-0.027-0.321-0.133-0.586-0.32-0.801l0.48-0.477c0.266-0.187 0.442-0.281 0.52-0.281 0.055 0.266 0.082 0.586 0.082 0.961v0.797l0.398-1.039c0.055-0.293 0.133-0.586 0.243-0.879 0.21-0.242 0.343-0.215 0.398 0.078 0.027 0.16 0.012 0.402-0.039 0.723l-0.121 0.437 0.238-0.437c0.16-0.321 0.254-0.563 0.281-0.723 0.028-0.133 0.106-0.32 0.243-0.558 0.023-0.161-0.176-0.188-0.602-0.079-1.066 0.293-1.68 0.532-1.84 0.719l-0.441 0.598c-0.239-0.024-0.574 0.043-1 0.203l-0.758 0.48 0.758-0.203 0.64-0.078c-0.187 0.32-0.32 0.508-0.398 0.559l-0.082 0.121c-0.106 0-0.293 0.066-0.559 0.199-0.16 0.106-0.293 0.242-0.398 0.402l-0.121 0.239 0.437-0.321c0.188-0.105 0.364-0.16 0.524-0.16-0.137 0.133-0.242 0.321-0.321 0.559l-0.082 1.043 0.282-1 0.32-0.602 0.437 0.762-0.039-0.481z" inkscape:connector-curvature="0"/>
          </g>
        </g>
      </g>
      <g id="g332">
        <g id="g334">
          <g id="g340">
            <path id="path348" style="fill-rule:evenodd;fill:url(#radialGradient342)" d="m19.879 20.321 1 1.398-0.481-0.918-0.437-0.64 0.117-0.082c0.082-0.024 0.176 0 0.281 0.082 0.188 0.105 0.387 0.265 0.602 0.48-0.27-0.347-0.496-0.574-0.684-0.679l-0.476-0.121-0.242-0.801v-0.239l1.679 0.961-1.039-0.882-0.64-0.399-0.161-0.558c-0.027-0.215-0.105-0.469-0.238-0.762l1.918 1.199-2.078-1.801c-0.055-0.586-0.109-0.918-0.16-1l-0.082-0.078 1.48 1.238c-0.558-0.773-0.961-1.265-1.199-1.48-0.133-0.105-0.176-0.305-0.121-0.598 0.055-0.265 0.016-0.414-0.117-0.441-0.16-0.027-0.375 0-0.641 0.082l-0.32 0.16c-0.242 0.266-0.426 0.637-0.563 1.117-0.078 0.297-0.117 0.657-0.117 1.082v0.559l0.078-0.68c0.082-0.48 0.2-0.824 0.36-1.039 0.242-0.347 0.523-0.492 0.84-0.441l0.281 1.601-0.719 2.399 0.922-1.879 0.199 1.16c-0.133 0.266-0.254 0.586-0.359 0.961-0.055 0.238-0.082 0.492-0.082 0.758v0.359l0.48-1.398 0.16-0.2 0.321 1.161 0.121 1.359 0.117-1z" inkscape:connector-curvature="0"/>
          </g>
        </g>
      </g>
      <path id="path350" style="fill-rule:evenodd;fill:#ebffbf" d="m15.199 25.559c0.16 0 0.266-0.039 0.321-0.117 0.027-0.055 0.054-0.148 0.082-0.281 0.21-0.348 0.293-0.574 0.238-0.68-0.028-0.082-0.133-0.066-0.32 0.039-0.188 0.16-0.321 0.266-0.399 0.321-0.055 0.054-0.199 0.105-0.441 0.16-0.215 0.027-0.348 0.054-0.399 0.078-0.16 0-0.082 0.094 0.239 0.281 0.265 0.133 0.492 0.199 0.679 0.199z" inkscape:connector-curvature="0"/>
      <path id="path352" style="fill-rule:evenodd;fill:#ebffbf" d="m14.039 24.2c0.293 0.027 0.32-0.133 0.082-0.481l-0.562-0.117c-0.106-0.027-0.118 0.012-0.039 0.117 0.054 0.055 0.121 0.149 0.199 0.282 0.027 0.105 0.136 0.172 0.32 0.199z" inkscape:connector-curvature="0"/>
      <path id="path354" style="fill-rule:evenodd;fill:#ebffbf" d="m14.879 24.001c0.32 0 0.48-0.028 0.48-0.078l-0.238-0.161c-0.348-0.136-0.641-0.296-0.883-0.48-0.105-0.055-0.078 0.066 0.082 0.359 0.133 0.239 0.321 0.36 0.559 0.36z" inkscape:connector-curvature="0"/>
      <path id="path356" style="fill-rule:evenodd;fill:#ebffbf" d="m9.48 24.079c0.188 0 0.227-0.09 0.122-0.278-0.161-0.082-0.309-0.187-0.442-0.32-0.187-0.187-0.32-0.265-0.398-0.242-0.16 0.082-0.231 0.203-0.203 0.363 0 0.106 0.121 0.211 0.363 0.321 0.183 0.105 0.371 0.156 0.558 0.156z" inkscape:connector-curvature="0"/>
      <path id="path358" style="fill-rule:evenodd;fill:#ebffbf" d="m5.922 21.001c-0.11-0.078-0.16-0.2-0.16-0.36l0.039-0.441c0-0.16-0.055-0.254-0.16-0.277-0.055 0-0.2 0.023-0.442 0.078-0.16 0.054-0.238 0.172-0.238 0.359 0 0.16 0.051 0.336 0.16 0.52 0.078 0.132 0.199 0.242 0.359 0.32 0.106 0.027 0.293 0.094 0.559 0.199 0.133 0.027 0.176-0.012 0.121-0.117-0.027-0.109-0.105-0.203-0.238-0.281z" inkscape:connector-curvature="0"/>
      <path id="path360" style="fill-rule:evenodd;fill:#ebffbf" d="m7.559 21.88c0.187-0.051 0.242-0.118 0.16-0.2-0.133-0.078-0.239-0.132-0.321-0.16-0.16-0.133-0.265-0.105-0.32 0.082-0.023 0.106 0.016 0.184 0.121 0.239 0.106 0.054 0.227 0.066 0.36 0.039z" inkscape:connector-curvature="0"/>
      <path id="path362" style="fill-rule:evenodd;fill:#ebffbf" d="m8.48 19.2c0.133 0.027 0.133-0.106 0-0.399-0.132-0.265-0.281-0.496-0.441-0.679-0.105-0.133-0.184-0.149-0.238-0.043-0.055 0.215-0.106 0.402-0.16 0.562-0.082 0.293 0.199 0.481 0.839 0.559z" inkscape:connector-curvature="0"/>
      <path id="path364" style="fill-rule:evenodd;fill:#ebffbf" d="m11.922 20.282c0.078-0.027 0.133-0.094 0.156-0.203 0-0.106-0.023-0.184-0.078-0.238-0.027-0.106-0.16 0-0.398 0.32-0.161 0.187-0.055 0.226 0.32 0.121z" inkscape:connector-curvature="0"/>
      <path id="path366" style="fill-rule:evenodd;fill:#ebffbf" d="m14.762 21.68c0.16-0.054 0.226-0.16 0.199-0.32 0-0.105-0.027-0.226-0.082-0.359-0.024-0.133-0.172-0.012-0.438 0.359-0.054 0.082-0.054 0.16 0 0.242 0.079 0.078 0.184 0.106 0.321 0.078z" inkscape:connector-curvature="0"/>
      <path id="path368" style="fill-rule:evenodd;fill:#ebffbf" d="m16.68 21.321c0.105-0.055 0.175-0.133 0.199-0.242 0.027-0.078 0.109-0.145 0.242-0.199 0.266-0.079 0.266-0.278 0-0.598-0.266-0.27-0.508-0.375-0.723-0.32-0.183 0.05-0.277 0.199-0.277 0.437 0.078 0.32 0.106 0.563 0.078 0.723-0.027 0.211 0 0.332 0.082 0.359 0.024 0 0.16-0.055 0.399-0.16z" inkscape:connector-curvature="0"/>
      <path id="path370" style="fill-rule:evenodd;fill:#ebffbf" d="m14.199 17.399c0.266-0.023 0.36-0.144 0.281-0.359-0.105-0.028-0.214-0.039-0.32-0.039-0.16 0-0.293 0.027-0.398 0.078-0.137 0.055-0.137 0.121 0 0.203 0.133 0.078 0.277 0.117 0.437 0.117z" inkscape:connector-curvature="0"/>
      <path id="path372" style="fill-rule:evenodd;fill:#ebffbf" d="m10.16 16.801c0.16-0.027 0.281-0.105 0.36-0.242 0.105-0.133 0.066-0.199-0.122-0.199-0.105 0-0.386 0.133-0.839 0.402-0.079 0.079-0.039 0.118 0.121 0.118s0.32-0.024 0.48-0.079z" inkscape:connector-curvature="0"/>
      <path id="path374" style="fill-rule:evenodd;fill:#ebffbf" d="m17.719 24.442c0.187 0 0.254-0.043 0.203-0.121-0.055-0.055-0.121-0.133-0.203-0.242-0.024-0.051 0.027-0.133 0.16-0.238 0.082-0.079 0.215-0.2 0.402-0.36 0.16-0.105 0.266-0.226 0.321-0.359 0.023-0.133-0.028-0.133-0.161 0-0.613 0.398-0.972 0.664-1.082 0.801-0.078 0.078-0.066 0.183 0.039 0.316 0.11 0.137 0.215 0.203 0.321 0.203z" inkscape:connector-curvature="0"/>
      <path id="path376" style="fill-rule:evenodd;fill:#ebffbf" d="m10.641 18.923c0.238 0 0.347-0.082 0.32-0.243-0.055-0.16-0.16-0.254-0.32-0.281-0.375 0-0.668-0.105-0.879-0.32-0.082-0.051-0.137-0.039-0.16 0.043-0.055 0.078-0.043 0.172 0.039 0.277 0.347 0.348 0.679 0.524 1 0.524z" inkscape:connector-curvature="0"/>
      <g id="g378">
        <g id="g380">
          <g id="g386">
            <path id="path396" style="fill-rule:evenodd;fill:url(#radialGradient388)" d="m24.238 17.559 0.801-1.359-1.078-0.559c-0.613 0.078-1.133 0.52-1.563 1.321-0.32 0.586-0.464 1.16-0.437 1.718l0.16 0.641 1 0.68 1.117-2.442z" inkscape:connector-curvature="0"/>
          </g>
        </g>
      </g>
      <path id="path398" style="fill-rule:evenodd;fill:#68ab2e" d="m24.68 16.161c-0.348 0.187-0.692 0.465-1.039 0.84-0.668 0.718-0.95 1.519-0.84 2.398 0.078 0.746 0.48 0.895 1.199 0.442 0.668-0.426 1.105-0.961 1.32-1.602 0.481-1.465 0.266-2.16-0.64-2.078z" inkscape:connector-curvature="0"/>
      <path id="path400" style="fill-rule:evenodd;fill:#6aa338" d="m25.16 16.88c-0.16-0.321-0.492-0.278-1 0.121-0.535 0.398-0.851 0.894-0.961 1.48-0.16 1.199 0.215 1.426 1.121 0.68 0.348-0.293 0.614-0.668 0.801-1.121 0.188-0.481 0.199-0.867 0.039-1.16z" inkscape:connector-curvature="0"/>
      <g id="g402">
        <g id="g404">
          <g id="g410">
            <path id="path420" style="fill-rule:evenodd;fill:url(#radialGradient412)" d="m14.762 26.2 1.398 0.68 0.481-1.118c-0.133-0.589-0.614-1.082-1.442-1.48-0.613-0.293-1.187-0.387-1.719-0.281l-0.64 0.238-0.602 1.043 2.524 0.918z" inkscape:connector-curvature="0"/>
          </g>
        </g>
      </g>
      <path id="path422" style="fill-rule:evenodd;fill:#7fc743" d="m16.199 26.52c-0.211-0.347-0.519-0.664-0.918-0.961-0.773-0.613-1.601-0.84-2.48-0.679-0.746 0.16-0.867 0.574-0.36 1.242 0.481 0.64 1.051 1.039 1.719 1.199 0.641 0.16 1.145 0.188 1.52 0.078 0.425-0.133 0.601-0.426 0.519-0.879z" inkscape:connector-curvature="0"/>
      <path id="path424" style="fill-rule:evenodd;fill:#8cd64d" d="m15.52 27.04c0.292-0.16 0.226-0.492-0.2-1-0.453-0.504-0.972-0.774-1.558-0.801-1.231-0.105-1.43 0.281-0.602 1.16 0.348 0.32 0.746 0.547 1.199 0.684 0.481 0.133 0.868 0.117 1.161-0.043z" inkscape:connector-curvature="0"/>
      <g id="g426">
        <g id="g428">
          <g id="g434">
            <path id="path444" style="fill-rule:evenodd;fill:url(#radialGradient436)" d="m5.238 21.641 0.723 1.438 1.039-0.637c0.375-0.828 0.375-1.641 0-2.441-0.375-0.801-0.961-1.188-1.762-1.16l-1.758 0.718 1.758 2.082z" inkscape:connector-curvature="0"/>
          </g>
        </g>
      </g>
      <path id="path446" style="fill-rule:evenodd;fill:#7fc743" d="m6.398 22.602c0-0.402-0.093-0.828-0.277-1.281-0.375-0.934-0.976-1.547-1.801-1.84-0.695-0.265-1 0.012-0.922 0.84 0.082 0.801 0.364 1.441 0.84 1.918 0.457 0.48 0.867 0.762 1.242 0.84 0.426 0.137 0.735-0.024 0.918-0.477z" inkscape:connector-curvature="0"/>
      <path id="path448" style="fill-rule:evenodd;fill:#8cd64d" d="m5.52 22.719c0.375 0 0.492-0.32 0.359-0.957-0.106-0.668-0.414-1.175-0.918-1.523-1.039-0.719-1.402-0.492-1.082 0.684 0.109 0.453 0.32 0.863 0.641 1.238 0.347 0.375 0.679 0.558 1 0.558z" inkscape:connector-curvature="0"/>
      <path id="path450" style="fill-rule:evenodd;fill:#ffffff" d="m7.121 21.559c0.024-0.105 0.012-0.238-0.043-0.398 0.027-0.055-0.09-0.027-0.359 0.078-0.293 0.137-0.387 0.309-0.278 0.523 0.024 0.079 0.145 0.094 0.36 0.039 0.187-0.054 0.293-0.132 0.32-0.242z" inkscape:connector-curvature="0"/>
      <path id="path452" style="fill-rule:evenodd;fill:#ffffff" d="m15.922 25.719c0.238-0.238 0.316-0.398 0.238-0.48-0.027-0.051-0.105-0.051-0.238 0-0.082 0.055-0.121 0.16-0.121 0.32 0.027 0.16 0.066 0.215 0.121 0.16z" inkscape:connector-curvature="0"/>
      <g id="g454">
        <g id="g456">
          <g id="g462">
            <path id="path472" style="fill-rule:evenodd;fill:url(#linearGradient464)" d="m26.199 17.399h0.84v-4.437c-0.078-1.039-1.426-1.934-4.039-2.68-2.641-0.723-5.801-1.082-9.48-1.082-3.68 0-6.825 0.359-9.442 1.082-2.637 0.746-4 1.641-4.078 2.68v4.437h0.641c0.265-0.851 1.613-1.558 4.039-2.117 2.453-0.563 5.359-0.84 8.718-0.84 3.387 0 6.309 0.277 8.762 0.84 2.426 0.559 3.774 1.266 4.039 2.117z" inkscape:connector-curvature="0"/>
          </g>
        </g>
      </g>
      <path id="path474" style="fill-rule:evenodd;fill:#ffffff" d="m25.84 17.841h1.16l0.039-0.399c0-1.066-1.316-1.976-3.961-2.723-2.637-0.746-5.824-1.117-9.558-1.117-3.735 0-6.918 0.371-9.559 1.117-2.641 0.747-3.961 1.657-3.961 2.723l0.039 0.399h1.402l-0.043-0.079c0-0.882 1.204-1.64 3.602-2.281 2.375-0.613 5.254-0.922 8.641-0.922 3.386 0 6.265 0.309 8.64 0.922 2.399 0.641 3.598 1.399 3.598 2.281l-0.039 0.079z" inkscape:connector-curvature="0"/>
    </g>
  </g>
<metadata><rdf:RDF><cc:Work><dc:format>image/svg+xml</dc:format><dc:type rdf:resource="http://purl.org/dc/dcmitype/StillImage"/><cc:license rdf:resource="http://creativecommons.org/licenses/publicdomain/"/><dc:publisher><cc:Agent rdf:about="http://openclipart.org/"><dc:title>Openclipart</dc:title></cc:Agent></dc:publisher></cc:Work><cc:License rdf:about="http://creativecommons.org/licenses/publicdomain/"><cc:permits rdf:resource="http://creativecommons.org/ns#Reproduction"/><cc:permits rdf:resource="http://creativecommons.org/ns#Distribution"/><cc:permits rdf:resource="http://creativecommons.org/ns#DerivativeWorks"/></cc:License></rdf:RDF></metadata></svg>
