<svg id="svg" version="1.1" xmlns="http://www.w3.org/2000/svg" xmlns:xlink="http://www.w3.org/1999/xlink" width="400" height="400" viewBox="0, 0, 400,400"><g id="svgg"><path id="path0" d="M59.375 35.695 C 49.507 37.422,45.645 43.039,45.379 56.055 L 45.253 62.240 51.272 62.240 L 57.292 62.240 57.296 58.529 C 57.308 49.405,58.377 46.916,62.396 46.660 C 67.579 46.330,68.726 48.058,68.936 56.510 C 69.191 66.738,68.045 68.381,60.452 68.682 L 56.771 68.827 56.771 73.867 L 56.771 78.906 60.482 78.908 C 65.832 78.910,67.373 79.557,68.408 82.239 C 69.217 84.337,69.116 100.139,68.282 101.950 C 66.174 106.522,59.898 106.855,57.610 102.516 L 56.901 101.172 56.818 93.815 L 56.735 86.458 50.633 86.458 L 44.531 86.458 44.531 92.650 C 44.531 103.858,45.633 108.189,49.454 112.000 C 55.895 118.424,70.822 118.209,77.500 111.596 C 81.349 107.786,82.090 105.034,82.234 94.030 C 82.417 80.083,81.044 76.530,74.488 73.979 L 72.704 73.285 74.504 72.421 C 80.075 69.746,81.624 65.992,81.443 55.599 C 81.231 43.401,78.439 38.534,70.311 36.194 C 68.068 35.548,61.837 35.264,59.375 35.695 M125.109 37.250 C 123.174 37.864,121.808 39.111,120.862 41.128 L 120.182 42.578 120.182 53.646 C 120.182 63.794,120.223 64.830,120.670 66.115 C 122.453 71.234,129.491 72.318,131.858 67.839 L 132.271 67.057 132.281 68.685 L 132.292 70.313 134.245 70.313 L 136.198 70.313 136.198 61.458 L 136.198 52.604 132.292 52.604 L 128.385 52.604 128.385 54.818 L 128.385 57.031 129.688 57.031 L 130.990 57.031 130.990 60.560 C 130.990 65.498,129.960 66.920,127.214 65.772 C 125.561 65.082,125.521 64.794,125.521 53.776 C 125.521 41.999,125.662 41.406,128.460 41.406 C 130.586 41.406,131.250 42.427,131.250 45.690 L 131.250 47.917 133.751 47.917 L 136.251 47.917 136.150 44.727 C 135.937 38.073,131.657 35.174,125.109 37.250 M144.929 37.152 C 142.475 37.905,140.963 39.416,140.066 42.011 C 139.316 44.182,139.350 62.992,140.109 65.448 C 142.290 72.511,153.600 72.396,155.893 65.288 C 156.947 62.017,156.652 43.777,155.501 41.092 C 154.000 37.590,149.260 35.824,144.929 37.152 M164.896 37.167 C 163.092 37.699,161.209 39.384,160.387 41.203 C 159.557 43.039,159.265 62.152,160.023 64.974 C 162.018 72.393,173.580 72.622,175.945 65.288 C 176.999 62.017,176.704 43.777,175.553 41.092 C 174.041 37.562,169.380 35.846,164.896 37.167 M179.688 53.668 L 179.688 70.357 185.221 70.270 C 195.760 70.103,196.224 69.407,196.224 53.776 C 196.224 37.819,195.617 36.999,183.789 36.984 L 179.688 36.979 179.688 53.668 M204.688 53.646 L 204.688 70.313 207.422 70.313 L 210.156 70.313 210.156 63.021 L 210.156 55.729 212.891 55.729 L 215.625 55.729 215.625 63.021 L 215.625 70.313 218.359 70.313 L 221.094 70.313 221.094 53.646 L 221.094 36.979 218.359 36.979 L 215.625 36.979 215.625 44.010 L 215.625 51.042 212.891 51.042 L 210.156 51.042 210.156 44.010 L 210.156 36.979 207.422 36.979 L 204.688 36.979 204.688 53.646 M224.479 53.641 L 224.479 70.313 231.130 70.313 L 237.781 70.313 237.705 68.034 L 237.630 65.755 233.789 65.683 L 229.948 65.611 229.948 60.670 L 229.948 55.729 232.682 55.729 L 235.417 55.729 235.417 53.385 L 235.417 51.042 232.682 51.042 L 229.948 51.042 229.948 46.354 L 229.948 41.667 233.864 41.667 L 237.781 41.667 237.705 39.388 L 237.630 37.109 231.055 37.040 L 224.479 36.970 224.479 53.641 M245.970 37.565 C 245.772 38.438,239.844 69.972,239.844 70.155 C 239.844 70.242,241.010 70.313,242.436 70.313 L 245.028 70.313 245.183 69.466 C 245.268 69.001,245.479 67.682,245.651 66.536 L 245.964 64.453 248.991 64.380 L 252.019 64.307 252.489 67.310 L 252.960 70.313 255.777 70.313 C 257.863 70.313,258.594 70.228,258.594 69.986 C 258.594 69.678,252.767 38.825,252.471 37.565 C 252.338 36.998,252.235 36.979,249.219 36.979 C 246.201 36.979,246.099 36.998,245.970 37.565 M261.120 37.144 C 261.019 37.244,260.938 44.748,260.938 53.819 L 260.938 70.313 267.057 70.313 L 273.177 70.313 273.177 67.969 L 273.177 65.625 269.924 65.625 L 266.671 65.625 266.604 51.367 L 266.536 37.109 263.919 37.036 C 262.480 36.995,261.220 37.044,261.120 37.144 M272.049 37.153 C 271.953 37.248,271.875 38.303,271.875 39.497 L 271.875 41.667 274.219 41.667 L 276.563 41.667 276.563 55.990 L 276.563 70.313 279.427 70.313 L 282.292 70.313 282.292 55.990 L 282.292 41.667 284.505 41.667 L 286.719 41.667 286.719 39.323 L 286.719 36.979 279.470 36.979 C 275.484 36.979,272.144 37.057,272.049 37.153 M289.323 53.637 L 289.323 70.313 292.188 70.313 L 295.052 70.313 295.052 63.021 L 295.052 55.729 297.656 55.729 L 300.260 55.729 300.260 63.021 L 300.260 70.313 303.125 70.313 L 305.990 70.313 305.990 53.637 L 305.990 36.962 303.190 37.035 L 300.391 37.109 300.321 44.076 L 300.252 51.042 297.656 51.042 L 295.061 51.042 294.991 44.076 L 294.922 37.109 292.122 37.035 L 289.323 36.962 289.323 53.637 M149.324 41.703 C 150.725 42.341,150.781 42.811,150.780 53.815 C 150.779 63.376,150.751 63.978,150.273 64.763 C 149.223 66.485,146.405 66.378,145.508 64.583 C 144.891 63.348,144.810 44.574,145.415 43.125 C 146.066 41.567,147.712 40.968,149.324 41.703 M169.376 41.703 C 170.777 42.341,170.833 42.811,170.832 53.815 C 170.831 63.376,170.804 63.978,170.325 64.763 C 169.275 66.485,166.457 66.378,165.560 64.583 C 164.943 63.348,164.862 44.574,165.467 43.125 C 166.118 41.567,167.764 40.968,169.376 41.703 M189.285 42.038 C 190.591 42.713,190.625 43.012,190.625 53.939 L 190.625 64.103 189.864 64.864 C 189.156 65.571,188.963 65.625,187.129 65.625 L 185.156 65.625 185.156 53.646 L 185.156 41.667 186.862 41.667 C 187.829 41.667,188.878 41.827,189.285 42.038 M249.126 59.581 C 247.996 59.623,247.015 59.602,246.946 59.533 C 246.840 59.427,248.394 49.516,248.871 47.266 C 248.987 46.717,249.356 48.427,250.109 52.995 L 251.182 59.505 249.126 59.581 M335.417 83.334 C 332.263 83.885,330.167 85.677,329.281 88.580 C 328.511 91.102,328.512 109.740,329.282 112.089 C 331.113 117.677,338.128 119.079,340.623 114.356 L 341.123 113.411 341.134 115.039 L 341.146 116.667 343.099 116.667 L 345.052 116.667 345.052 107.813 L 345.052 98.958 341.146 98.958 L 337.240 98.958 337.240 101.172 L 337.240 103.385 338.542 103.385 L 339.844 103.385 339.844 106.732 C 339.844 111.304,339.282 112.500,337.135 112.500 C 334.448 112.500,334.375 112.175,334.375 100.194 C 334.375 88.637,334.398 88.500,336.398 87.926 C 338.734 87.257,339.906 88.580,340.058 92.060 L 340.166 94.531 342.637 94.531 L 345.107 94.531 345.005 91.471 C 344.793 85.130,341.437 82.282,335.417 83.334 M122.317 99.805 C 120.639 108.721,119.266 116.162,119.268 116.341 C 119.270 116.579,119.961 116.667,121.847 116.667 L 124.423 116.667 124.875 113.672 L 125.328 110.677 128.284 110.677 C 131.648 110.677,131.256 110.355,131.773 113.542 C 131.925 114.473,132.112 115.557,132.191 115.951 L 132.333 116.667 135.182 116.667 C 138.002 116.667,138.029 116.661,137.897 116.081 C 137.708 115.256,131.771 83.908,131.771 83.735 C 131.771 83.657,130.330 83.594,128.570 83.594 L 125.369 83.594 122.317 99.805 M140.365 100.130 L 140.365 116.667 142.705 116.667 L 145.046 116.667 145.114 106.480 L 145.182 96.294 147.089 102.379 C 148.138 105.725,149.581 110.309,150.296 112.565 L 151.595 116.667 154.053 116.667 L 156.510 116.667 156.510 100.130 L 156.510 83.594 154.167 83.594 L 151.823 83.594 151.810 93.034 L 151.797 102.474 149.849 96.354 C 148.778 92.988,147.431 88.740,146.856 86.914 L 145.811 83.594 143.088 83.594 L 140.365 83.594 140.365 100.130 M159.635 100.108 L 159.635 116.667 164.964 116.667 C 172.208 116.667,173.915 115.975,175.573 112.370 C 176.832 109.632,176.579 89.828,175.252 87.240 C 173.733 84.275,172.307 83.760,165.299 83.644 L 159.635 83.550 159.635 100.108 M183.979 84.440 C 184.139 85.352,188.281 116.237,188.281 116.517 C 188.281 116.609,189.474 116.651,190.931 116.611 L 193.581 116.536 195.059 106.886 C 196.408 98.085,196.796 95.903,196.854 96.798 C 196.874 97.100,199.571 114.075,199.877 115.829 L 200.027 116.685 202.676 116.611 L 205.324 116.536 207.330 101.042 C 208.433 92.520,209.405 85.107,209.489 84.570 L 209.642 83.594 207.323 83.594 C 205.132 83.594,204.997 83.626,204.871 84.180 C 204.797 84.502,204.228 89.072,203.606 94.336 C 202.983 99.600,202.412 103.906,202.335 103.906 C 202.259 103.906,201.574 99.600,200.813 94.336 C 200.052 89.072,199.368 84.498,199.293 84.170 C 199.163 83.599,199.066 83.577,196.911 83.649 L 194.665 83.724 193.332 93.823 C 192.598 99.377,191.949 103.972,191.888 104.032 C 191.797 104.124,189.291 84.406,189.315 83.789 C 189.319 83.682,188.087 83.594,186.577 83.594 L 183.831 83.594 183.979 84.440 M211.979 100.130 L 211.979 116.667 218.620 116.667 L 225.260 116.667 225.260 114.453 L 225.260 112.240 221.354 112.240 L 217.448 112.240 217.448 107.161 L 217.448 102.083 220.313 102.083 L 223.177 102.083 223.177 99.870 L 223.177 97.656 220.307 97.656 L 217.436 97.656 217.507 92.904 L 217.578 88.151 221.419 88.079 L 225.260 88.007 225.260 85.800 L 225.260 83.594 218.620 83.594 L 211.979 83.594 211.979 100.130 M228.385 100.130 L 228.385 116.667 234.505 116.667 L 240.625 116.667 240.625 114.453 L 240.625 112.240 237.240 112.240 L 233.854 112.240 233.854 97.917 L 233.854 83.594 231.120 83.594 L 228.385 83.594 228.385 100.130 M242.969 100.130 L 242.969 116.667 249.089 116.667 L 255.208 116.667 255.208 114.453 L 255.208 112.240 251.953 112.240 L 248.698 112.240 248.698 97.917 L 248.698 83.594 245.833 83.594 L 242.969 83.594 242.969 100.130 M265.104 100.108 L 265.104 116.667 270.526 116.667 C 280.189 116.667,281.510 115.560,281.510 107.470 C 281.510 102.382,280.753 100.530,278.394 99.854 L 277.539 99.609 278.548 98.958 C 280.289 97.836,280.599 96.832,280.599 92.318 C 280.599 84.680,279.585 83.797,270.638 83.644 L 265.104 83.549 265.104 100.108 M284.375 100.130 L 284.375 116.667 291.016 116.667 L 297.656 116.667 297.656 114.453 L 297.656 112.240 293.750 112.240 L 289.844 112.240 289.844 107.161 L 289.844 102.083 292.708 102.083 L 295.573 102.083 295.573 99.870 L 295.573 97.656 292.702 97.656 L 289.832 97.656 289.903 92.904 L 289.974 88.151 293.815 88.079 L 297.656 88.007 297.656 85.800 L 297.656 83.594 291.016 83.594 L 284.375 83.594 284.375 100.130 M300.521 100.130 L 300.521 116.667 303.385 116.667 L 306.250 116.667 306.250 100.130 L 306.250 83.594 303.385 83.594 L 300.521 83.594 300.521 100.130 M309.375 100.121 L 309.375 116.667 311.719 116.667 L 314.063 116.667 314.070 106.445 C 314.075 100.680,314.175 96.394,314.300 96.615 C 314.422 96.829,315.906 101.429,317.597 106.836 L 320.671 116.667 323.096 116.667 L 325.521 116.667 325.521 100.130 L 325.521 83.594 323.180 83.594 L 320.840 83.594 320.772 92.766 L 320.703 101.937 317.822 92.831 L 314.940 83.724 312.158 83.650 L 309.375 83.576 309.375 100.121 M169.884 89.034 L 170.703 89.853 170.780 99.558 C 170.879 112.060,170.822 112.238,166.732 112.239 L 165.104 112.240 165.104 100.304 C 165.104 93.739,165.192 88.278,165.299 88.167 C 165.849 87.602,169.058 88.209,169.884 89.034 M273.719 88.283 C 275.102 88.667,275.391 89.426,275.391 92.682 C 275.391 96.968,274.924 97.656,272.014 97.656 L 270.833 97.656 270.833 92.839 L 270.833 88.021 271.810 88.022 C 272.347 88.023,273.206 88.140,273.719 88.283 M129.546 100.000 C 130.056 103.223,130.473 105.947,130.471 106.055 C 130.470 106.162,129.465 106.250,128.238 106.250 C 126.237 106.250,126.020 106.203,126.138 105.794 C 126.210 105.544,126.714 102.607,127.257 99.268 C 127.847 95.649,128.322 93.388,128.432 93.669 C 128.535 93.928,129.036 96.777,129.546 100.000 M254.607 99.125 C 254.508 99.224,254.427 100.282,254.427 101.476 L 254.427 103.646 258.474 103.646 L 262.520 103.646 262.445 101.367 L 262.370 99.089 258.579 99.017 C 256.494 98.977,254.707 99.026,254.607 99.125 M275.181 102.451 C 275.903 103.071,275.912 103.119,275.998 106.512 C 276.122 111.457,275.631 112.240,272.409 112.240 L 270.833 112.240 270.833 107.031 L 270.833 101.823 272.642 101.823 C 274.177 101.823,274.560 101.918,275.181 102.451 M265.755 151.932 C 264.531 152.478,263.653 153.631,263.061 155.469 C 262.761 156.400,252.080 191.843,239.324 234.231 C 226.568 276.619,216.081 311.349,216.021 311.410 C 215.849 311.582,215.978 312.313,209.231 272.937 C 205.712 252.395,202.664 235.263,202.458 234.865 C 201.060 232.161,196.527 231.832,194.899 234.317 C 194.647 234.700,189.827 243.571,184.187 254.030 C 178.547 264.489,173.842 273.137,173.731 273.248 C 173.621 273.358,171.448 258.827,168.903 240.956 C 165.367 216.130,164.152 208.202,163.753 207.353 C 162.470 204.623,158.563 204.118,156.484 206.413 C 156.092 206.846,151.201 217.522,144.897 231.706 L 133.988 256.250 102.987 256.250 L 71.985 256.250 70.826 256.836 C 67.435 258.549,67.505 263.309,70.943 264.871 C 72.451 265.556,136.855 265.641,138.485 264.960 C 140.344 264.183,140.523 263.839,149.092 244.545 C 156.192 228.557,157.451 225.893,157.616 226.500 C 157.723 226.893,159.799 241.186,162.230 258.263 C 164.995 277.698,166.798 289.602,167.048 290.086 C 168.125 292.168,170.826 293.002,173.033 291.934 C 174.515 291.216,173.848 292.353,185.421 270.833 C 195.675 251.767,196.111 250.972,196.245 251.106 C 196.297 251.158,199.506 269.639,203.377 292.175 C 208.342 321.088,210.552 333.387,210.885 333.957 C 212.676 337.023,217.522 336.683,218.818 333.399 C 219.030 332.862,230.254 295.684,243.760 250.781 C 257.266 205.879,268.394 169.049,268.490 168.937 C 268.585 168.824,273.144 178.023,278.620 189.379 C 285.042 202.697,288.857 210.317,289.366 210.846 C 292.227 213.819,297.163 211.477,296.807 207.315 C 296.667 205.681,272.218 154.528,270.860 153.028 C 269.600 151.636,267.451 151.175,265.755 151.932 M279.948 229.572 C 266.820 232.391,261.194 250.258,269.867 261.589 C 270.525 262.448,277.341 269.421,285.014 277.083 L 298.966 291.016 313.248 276.693 C 322.466 267.448,327.930 261.771,328.659 260.682 C 335.342 250.694,332.062 235.922,322.068 230.996 C 314.848 227.438,309.027 229.007,300.979 236.683 L 298.964 238.606 296.664 236.417 C 289.942 230.021,285.785 228.318,279.948 229.572 " stroke="none" fill="#fafbfa" fill-rule="evenodd"></path><path id="path1" d="M179.550 53.776 C 179.550 62.943,179.582 66.655,179.622 62.025 C 179.662 57.396,179.662 49.896,179.622 45.359 C 179.582 40.822,179.550 44.609,179.550 53.776 M204.550 53.776 C 204.550 62.943,204.582 66.655,204.622 62.025 C 204.662 57.396,204.662 49.896,204.622 45.359 C 204.582 40.822,204.550 44.609,204.550 53.776 M221.216 53.776 C 221.216 62.943,221.249 66.655,221.289 62.025 C 221.329 57.396,221.329 49.896,221.289 45.359 C 221.249 40.822,221.216 44.609,221.216 53.776 M224.341 53.776 C 224.341 62.943,224.374 66.655,224.414 62.025 C 224.454 57.396,224.454 49.896,224.414 45.359 C 224.374 40.822,224.341 44.609,224.341 53.776 M286.811 39.453 C 286.810 40.742,286.854 41.302,286.909 40.698 C 286.964 40.094,286.964 39.039,286.910 38.354 C 286.857 37.670,286.812 38.164,286.811 39.453 M136.290 45.703 C 136.290 46.992,136.334 47.552,136.388 46.948 C 136.443 46.344,136.443 45.289,136.390 44.604 C 136.336 43.920,136.291 44.414,136.290 45.703 M139.440 53.776 C 139.440 58.646,139.475 60.601,139.518 58.121 C 139.561 55.641,139.561 51.657,139.518 49.267 C 139.475 46.877,139.440 48.906,139.440 53.776 M159.492 53.646 C 159.492 58.444,159.527 60.407,159.570 58.008 C 159.613 55.609,159.613 51.683,159.570 49.284 C 159.527 46.885,159.492 48.848,159.492 53.646 M119.908 53.646 C 119.908 58.301,119.943 60.205,119.987 57.878 C 120.030 55.550,120.030 51.742,119.987 49.414 C 119.943 47.087,119.908 48.991,119.908 53.646 M136.315 61.458 C 136.315 66.400,136.350 68.421,136.393 65.951 C 136.436 63.480,136.436 59.437,136.393 56.966 C 136.350 54.495,136.315 56.517,136.315 61.458 M68.859 57.943 C 68.859 60.664,68.897 61.742,68.944 60.338 C 68.991 58.934,68.991 56.708,68.944 55.390 C 68.897 54.073,68.858 55.221,68.859 57.943 M57.349 58.003 L 57.292 62.230 51.237 62.305 L 45.182 62.380 51.245 62.440 C 56.004 62.487,57.336 62.428,57.437 62.164 C 57.508 61.978,57.530 60.016,57.487 57.802 L 57.407 53.776 57.349 58.003 M273.270 68.099 C 273.269 69.388,273.313 69.948,273.367 69.344 C 273.422 68.739,273.423 67.685,273.369 67.000 C 273.315 66.315,273.270 66.810,273.270 68.099 M58.148 68.682 C 58.976 68.734,60.265 68.734,61.012 68.681 C 61.759 68.629,61.081 68.586,59.505 68.587 C 57.930 68.588,57.319 68.630,58.148 68.682 M126.628 70.752 C 126.878 70.818,127.288 70.818,127.539 70.752 C 127.790 70.687,127.585 70.633,127.083 70.633 C 126.582 70.633,126.377 70.687,126.628 70.752 M147.331 70.757 C 147.653 70.819,148.180 70.819,148.503 70.757 C 148.825 70.695,148.561 70.644,147.917 70.644 C 147.272 70.644,147.008 70.695,147.331 70.757 M167.383 70.757 C 167.705 70.819,168.232 70.819,168.555 70.757 C 168.877 70.695,168.613 70.644,167.969 70.644 C 167.324 70.644,167.061 70.695,167.383 70.757 M228.252 100.260 L 228.255 116.797 234.375 116.804 L 240.495 116.812 234.442 116.734 L 228.389 116.657 228.319 100.191 L 228.249 83.724 228.252 100.260 M68.864 91.797 C 68.865 95.807,68.901 97.412,68.945 95.362 C 68.989 93.312,68.989 90.031,68.945 88.070 C 68.900 86.109,68.864 87.786,68.864 91.797 M336.784 87.940 C 337.035 88.005,337.445 88.005,337.695 87.940 C 337.946 87.874,337.741 87.821,337.240 87.821 C 336.738 87.821,336.533 87.874,336.784 87.940 M165.223 88.346 C 165.155 88.525,165.130 94.004,165.169 100.521 L 165.240 112.370 165.302 100.339 L 165.365 88.307 166.862 88.213 L 168.359 88.119 166.854 88.070 C 165.851 88.037,165.307 88.129,165.223 88.346 M217.564 88.356 C 217.493 88.540,217.470 90.737,217.513 93.238 L 217.591 97.786 217.650 93.041 L 217.708 88.295 221.549 88.216 L 225.391 88.136 221.541 88.078 C 218.603 88.034,217.662 88.100,217.564 88.356 M271.423 88.208 C 271.819 88.268,272.405 88.266,272.725 88.204 C 273.045 88.142,272.721 88.093,272.005 88.095 C 271.289 88.097,271.027 88.148,271.423 88.208 M289.959 88.356 C 289.889 88.540,289.866 90.737,289.909 93.238 L 289.987 97.786 290.046 93.041 L 290.104 88.295 293.945 88.216 L 297.786 88.136 293.937 88.078 C 290.999 88.034,290.057 88.100,289.959 88.356 M339.933 92.318 C 339.934 93.464,339.980 93.900,340.035 93.287 C 340.090 92.675,340.089 91.737,340.033 91.204 C 339.977 90.671,339.932 91.172,339.933 92.318 M170.691 100.130 C 170.691 105.430,170.726 107.561,170.768 104.866 C 170.810 102.171,170.810 97.835,170.768 95.230 C 170.725 92.626,170.691 94.831,170.691 100.130 M275.353 92.839 C 275.352 94.128,275.396 94.688,275.451 94.083 C 275.505 93.479,275.506 92.424,275.452 91.740 C 275.398 91.055,275.354 91.549,275.353 92.839 M314.066 106.436 L 314.063 116.647 311.784 116.737 L 309.505 116.826 311.849 116.812 L 314.193 116.797 314.323 106.811 C 314.395 101.318,314.367 96.689,314.262 96.524 C 314.157 96.359,314.069 100.819,314.066 106.436 M271.419 97.582 C 271.813 97.642,272.458 97.642,272.852 97.582 C 273.245 97.523,272.923 97.474,272.135 97.474 C 271.348 97.474,271.025 97.523,271.419 97.582 M337.070 101.302 C 337.070 102.520,337.115 103.018,337.170 102.409 C 337.225 101.800,337.225 100.804,337.170 100.195 C 337.115 99.587,337.070 100.085,337.070 101.302 M217.557 107.161 C 217.557 110.026,217.595 111.233,217.642 109.845 C 217.689 108.456,217.689 106.112,217.642 104.636 C 217.596 103.161,217.558 104.297,217.557 107.161 M289.953 107.161 C 289.953 110.026,289.991 111.233,290.038 109.845 C 290.084 108.456,290.085 106.112,290.038 104.636 C 289.992 103.161,289.953 104.297,289.953 107.161 M77.458 111.784 L 76.693 112.630 77.539 111.865 C 78.005 111.445,78.385 111.064,78.385 111.019 C 78.385 110.818,78.171 110.995,77.458 111.784 M255.261 114.383 L 255.208 116.657 249.154 116.732 L 243.099 116.807 249.162 116.867 C 256.109 116.936,255.534 117.185,255.403 114.170 L 255.313 112.109 255.261 114.383 M119.077 116.406 C 119.162 116.719,119.700 116.800,121.766 116.813 L 124.349 116.829 121.884 116.737 C 120.350 116.680,119.334 116.527,119.195 116.331 C 119.035 116.106,119.001 116.128,119.077 116.406 M190.885 116.667 L 188.151 116.825 190.805 116.876 C 192.351 116.906,193.526 116.818,193.620 116.667 C 193.708 116.523,193.745 116.429,193.700 116.457 C 193.656 116.485,192.389 116.580,190.885 116.667 M202.604 116.667 L 199.870 116.825 202.524 116.876 C 204.070 116.906,205.245 116.818,205.339 116.667 C 205.427 116.523,205.463 116.429,205.419 116.457 C 205.375 116.485,204.108 116.580,202.604 116.667 M133.659 116.859 C 134.482 116.911,135.830 116.911,136.654 116.859 C 137.477 116.807,136.803 116.765,135.156 116.765 C 133.509 116.765,132.835 116.807,133.659 116.859 M141.471 116.858 C 142.152 116.912,143.265 116.912,143.945 116.858 C 144.626 116.804,144.069 116.761,142.708 116.761 C 141.348 116.761,140.791 116.804,141.471 116.858 M152.808 116.859 C 153.565 116.912,154.737 116.911,155.412 116.858 C 156.088 116.804,155.469 116.761,154.036 116.762 C 152.604 116.762,152.051 116.806,152.808 116.859 M161.914 116.861 C 163.239 116.908,165.407 116.908,166.732 116.861 C 168.057 116.813,166.973 116.775,164.323 116.775 C 161.673 116.775,160.589 116.813,161.914 116.861 M215.154 116.861 C 216.972 116.906,220.018 116.906,221.925 116.861 C 223.831 116.817,222.344 116.780,218.620 116.780 C 214.896 116.780,213.336 116.816,215.154 116.861 M267.643 116.861 C 268.968 116.908,271.136 116.908,272.461 116.861 C 273.786 116.813,272.702 116.775,270.052 116.775 C 267.402 116.775,266.318 116.813,267.643 116.861 M287.550 116.861 C 289.367 116.906,292.414 116.906,294.321 116.861 C 296.227 116.817,294.740 116.780,291.016 116.780 C 287.292 116.780,285.732 116.816,287.550 116.861 M302.158 116.859 C 302.987 116.911,304.276 116.911,305.023 116.858 C 305.769 116.806,305.091 116.763,303.516 116.764 C 301.940 116.765,301.329 116.808,302.158 116.859 M321.940 116.858 C 322.620 116.912,323.734 116.912,324.414 116.858 C 325.094 116.804,324.538 116.761,323.177 116.761 C 321.816 116.761,321.260 116.804,321.940 116.858 M342.129 116.858 C 342.742 116.913,343.679 116.912,344.213 116.856 C 344.746 116.800,344.245 116.755,343.099 116.756 C 341.953 116.757,341.517 116.803,342.129 116.858 " stroke="none" fill="#9ac292" fill-rule="evenodd"></path><path id="path2" d="M63.221 35.345 C 63.689 35.403,64.392 35.402,64.783 35.342 C 65.175 35.283,64.792 35.235,63.932 35.237 C 63.073 35.238,62.753 35.287,63.221 35.345 M210.270 44.010 C 210.270 47.949,210.307 49.561,210.351 47.591 C 210.395 45.622,210.395 42.399,210.351 40.430 C 210.307 38.460,210.270 40.072,210.270 44.010 M215.479 44.010 C 215.479 47.949,215.515 49.561,215.559 47.591 C 215.604 45.622,215.604 42.399,215.559 40.430 C 215.515 38.460,215.479 40.072,215.479 44.010 M50.114 39.909 L 49.349 40.755 50.195 39.990 C 50.984 39.277,51.161 39.063,50.960 39.063 C 50.915 39.063,50.535 39.443,50.114 39.909 M185.276 53.646 C 185.276 60.306,185.310 63.031,185.351 59.701 C 185.393 56.370,185.393 50.921,185.351 47.591 C 185.310 44.261,185.276 46.986,185.276 53.646 M230.056 46.354 C 230.056 49.004,230.095 50.088,230.142 48.763 C 230.189 47.438,230.189 45.270,230.142 43.945 C 230.095 42.620,230.056 43.704,230.056 46.354 M131.104 45.964 L 131.120 48.047 133.724 48.061 L 136.328 48.074 133.799 47.986 L 131.271 47.899 131.180 45.889 L 131.088 43.880 131.104 45.964 M125.639 53.646 C 125.639 58.874,125.673 61.012,125.716 58.398 C 125.758 55.785,125.758 51.507,125.716 48.893 C 125.673 46.279,125.639 48.418,125.639 53.646 M145.170 53.776 C 145.170 59.076,145.205 61.207,145.247 58.512 C 145.289 55.817,145.289 51.481,145.247 48.876 C 145.205 46.272,145.170 48.477,145.170 53.776 M165.222 53.776 C 165.222 59.076,165.257 61.207,165.299 58.512 C 165.342 55.817,165.341 51.481,165.299 48.876 C 165.257 46.272,165.222 48.477,165.222 53.776 M235.511 53.385 C 235.511 54.746,235.554 55.303,235.608 54.622 C 235.662 53.942,235.662 52.829,235.608 52.148 C 235.554 51.468,235.511 52.025,235.511 53.385 M81.619 56.771 C 81.619 59.421,81.657 60.505,81.704 59.180 C 81.752 57.855,81.752 55.687,81.704 54.362 C 81.657 53.037,81.619 54.121,81.619 56.771 M130.416 52.538 C 131.604 52.586,133.479 52.586,134.583 52.537 C 135.686 52.488,134.714 52.449,132.422 52.449 C 130.130 52.449,129.228 52.489,130.416 52.538 M45.161 57.682 C 45.161 60.404,45.199 61.482,45.246 60.078 C 45.293 58.674,45.293 56.447,45.246 55.130 C 45.199 53.812,45.160 54.961,45.161 57.682 M210.271 63.021 C 210.271 67.103,210.307 68.773,210.351 66.732 C 210.395 64.691,210.395 61.351,210.351 59.310 C 210.307 57.269,210.271 58.939,210.271 63.021 M215.479 63.021 C 215.479 67.103,215.515 68.773,215.559 66.732 C 215.603 64.691,215.603 61.351,215.559 59.310 C 215.515 57.269,215.479 58.939,215.479 63.021 M230.057 60.677 C 230.057 63.470,230.095 64.613,230.142 63.216 C 230.189 61.820,230.189 59.535,230.142 58.138 C 230.095 56.742,230.057 57.884,230.057 60.677 M56.620 73.698 C 56.620 76.634,56.658 77.835,56.705 76.367 C 56.751 74.899,56.751 72.497,56.705 71.029 C 56.658 69.561,56.620 70.762,56.620 73.698 M126.899 83.527 C 127.872 83.577,129.395 83.577,130.284 83.526 C 131.173 83.475,130.378 83.434,128.516 83.435 C 126.654 83.435,125.926 83.476,126.899 83.527 M140.224 83.659 C 140.155 83.838,140.131 91.426,140.169 100.521 L 140.238 117.057 140.301 100.309 L 140.365 83.561 143.205 83.643 C 144.767 83.687,145.991 83.636,145.924 83.529 C 145.704 83.176,140.362 83.298,140.224 83.659 M152.930 83.525 C 153.610 83.578,154.723 83.578,155.404 83.525 C 156.084 83.471,155.527 83.427,154.167 83.427 C 152.806 83.427,152.249 83.471,152.930 83.525 M161.914 83.527 C 163.239 83.575,165.407 83.575,166.732 83.527 C 168.057 83.480,166.973 83.441,164.323 83.441 C 161.673 83.441,160.589 83.480,161.914 83.527 M185.231 83.526 C 186.060 83.578,187.349 83.577,188.095 83.525 C 188.842 83.473,188.164 83.430,186.589 83.431 C 185.013 83.431,184.402 83.474,185.231 83.526 M195.182 83.498 C 197.023 83.691,199.422 83.709,199.310 83.529 C 199.243 83.421,198.111 83.352,196.795 83.375 C 195.478 83.398,194.753 83.453,195.182 83.498 M204.857 83.529 C 204.790 83.636,205.516 83.692,206.469 83.652 C 209.490 83.527,209.845 83.418,207.372 83.375 C 206.056 83.352,204.924 83.421,204.857 83.529 M218.545 83.526 L 225.241 83.603 225.331 85.943 L 225.422 88.283 225.406 85.873 L 225.391 83.464 218.620 83.457 L 211.849 83.450 218.545 83.526 M231.052 83.524 L 233.850 83.611 233.917 97.860 L 233.984 112.109 237.305 112.122 L 240.626 112.134 237.372 112.049 L 234.119 111.964 234.052 97.714 L 233.984 83.464 231.120 83.451 L 228.255 83.438 231.052 83.524 M244.336 83.526 C 245.160 83.577,246.507 83.577,247.331 83.526 C 248.154 83.474,247.480 83.432,245.833 83.432 C 244.186 83.432,243.512 83.474,244.336 83.526 M267.239 83.527 C 268.485 83.575,270.595 83.575,271.927 83.528 C 273.259 83.480,272.240 83.441,269.661 83.441 C 267.083 83.441,265.993 83.479,267.239 83.527 M284.234 83.659 C 284.166 83.838,284.141 91.426,284.179 100.521 L 284.249 117.057 284.312 100.330 L 284.375 83.603 291.081 83.528 L 297.786 83.454 291.073 83.394 C 285.896 83.347,284.330 83.408,284.234 83.659 M301.888 83.526 C 302.712 83.577,304.059 83.577,304.883 83.526 C 305.706 83.474,305.033 83.432,303.385 83.432 C 301.738 83.432,301.064 83.474,301.888 83.526 M310.742 83.526 C 311.566 83.577,312.913 83.577,313.737 83.526 C 314.561 83.474,313.887 83.432,312.240 83.432 C 310.592 83.432,309.919 83.474,310.742 83.526 M323.240 83.524 L 325.517 83.613 325.587 100.270 L 325.657 116.927 325.654 100.195 L 325.651 83.464 323.307 83.449 L 320.964 83.434 323.240 83.524 M47.606 86.393 C 49.369 86.438,52.181 86.438,53.856 86.392 C 55.531 86.347,54.089 86.310,50.651 86.310 C 47.214 86.310,45.843 86.347,47.606 86.393 M345.145 92.318 C 345.144 93.607,345.188 94.167,345.242 93.563 C 345.297 92.958,345.298 91.903,345.244 91.219 C 345.190 90.534,345.145 91.029,345.145 92.318 M176.419 100.130 C 176.419 105.143,176.454 107.157,176.497 104.606 C 176.540 102.054,176.540 97.952,176.497 95.491 C 176.454 93.030,176.419 95.117,176.419 100.130 M219.085 97.589 C 219.914 97.640,221.203 97.640,221.950 97.587 C 222.696 97.535,222.018 97.493,220.443 97.493 C 218.867 97.494,218.256 97.537,219.085 97.589 M291.481 97.589 C 292.310 97.640,293.599 97.640,294.345 97.587 C 295.092 97.535,294.414 97.493,292.839 97.493 C 291.263 97.494,290.652 97.537,291.481 97.589 M345.169 107.943 C 345.169 112.956,345.204 114.970,345.247 112.418 C 345.290 109.867,345.290 105.765,345.247 103.304 C 345.204 100.842,345.169 102.930,345.169 107.943 M271.549 102.011 C 272.015 102.069,272.777 102.069,273.242 102.011 C 273.708 101.954,273.327 101.906,272.396 101.906 C 271.465 101.906,271.084 101.954,271.549 102.011 M219.085 102.276 C 219.914 102.328,221.203 102.327,221.950 102.275 C 222.696 102.223,222.018 102.180,220.443 102.181 C 218.867 102.181,218.256 102.224,219.085 102.276 M291.481 102.276 C 292.310 102.328,293.599 102.327,294.345 102.275 C 295.092 102.223,294.414 102.180,292.839 102.181 C 291.263 102.181,290.652 102.224,291.481 102.276 M338.208 103.569 L 339.568 103.673 339.653 106.719 L 339.738 109.766 339.726 106.641 L 339.714 103.516 338.281 103.491 L 336.849 103.466 338.208 103.569 M281.612 107.422 C 281.612 109.284,281.654 110.011,281.704 109.039 C 281.754 108.066,281.754 106.542,281.703 105.653 C 281.652 104.764,281.611 105.560,281.612 107.422 M275.878 107.031 C 275.878 108.535,275.921 109.150,275.973 108.398 C 276.026 107.646,276.026 106.416,275.973 105.664 C 275.921 104.912,275.878 105.527,275.878 107.031 M127.279 106.180 C 127.887 106.235,128.883 106.235,129.492 106.180 C 130.101 106.125,129.603 106.081,128.385 106.081 C 127.168 106.081,126.670 106.125,127.279 106.180 M125.434 110.851 C 125.339 110.946,125.262 111.151,125.264 111.306 C 125.267 111.481,125.345 111.468,125.469 111.272 C 125.601 111.065,126.653 110.927,128.525 110.872 L 131.380 110.788 128.494 110.732 C 126.906 110.702,125.530 110.755,125.434 110.851 M165.951 112.166 C 166.344 112.225,166.989 112.225,167.383 112.166 C 167.777 112.106,167.454 112.057,166.667 112.057 C 165.879 112.057,165.557 112.106,165.951 112.166 M221.410 112.170 L 225.241 112.253 225.331 114.591 L 225.422 116.928 225.406 114.519 L 225.391 112.109 221.484 112.098 L 217.578 112.087 221.410 112.170 M250.326 112.172 C 251.292 112.222,252.874 112.222,253.841 112.172 C 254.808 112.122,254.017 112.081,252.083 112.081 C 250.150 112.081,249.359 112.122,250.326 112.172 M271.554 112.168 C 272.022 112.226,272.725 112.225,273.117 112.165 C 273.508 112.106,273.125 112.058,272.266 112.060 C 271.406 112.061,271.086 112.110,271.554 112.168 M292.004 112.173 C 293.121 112.222,294.878 112.222,295.910 112.172 C 296.942 112.123,296.029 112.083,293.880 112.083 C 291.732 112.084,290.888 112.124,292.004 112.173 M340.969 115.365 C 340.969 116.296,341.016 116.676,341.074 116.211 C 341.132 115.745,341.132 114.984,341.074 114.518 C 341.016 114.053,340.969 114.434,340.969 115.365 M283.142 229.093 C 283.537 229.153,284.123 229.151,284.444 229.090 C 284.764 229.028,284.440 228.979,283.724 228.981 C 283.008 228.983,282.746 229.033,283.142 229.093 M313.997 229.090 C 314.320 229.152,314.847 229.152,315.169 229.090 C 315.492 229.028,315.228 228.977,314.583 228.977 C 313.939 228.977,313.675 229.028,313.997 229.090 M197.982 232.471 C 198.232 232.537,198.643 232.537,198.893 232.471 C 199.144 232.406,198.939 232.352,198.438 232.352 C 197.936 232.352,197.731 232.406,197.982 232.471 M284.961 277.214 L 298.958 291.275 310.482 279.688 L 322.005 268.100 310.482 279.557 L 298.958 291.014 284.961 277.083 L 270.964 263.152 284.961 277.214 " stroke="none" fill="#6bac6a" fill-rule="evenodd"></path><path id="path3" d="M0.000 200.000 L 0.000 400.000 200.000 400.000 L 400.000 400.000 400.000 200.000 L 400.000 0.000 200.000 0.000 L 0.000 0.000 0.000 200.000 M69.401 35.818 C 78.495 37.665,82.148 44.436,81.690 58.594 C 81.436 66.444,79.517 70.173,74.479 72.607 C 73.474 73.092,73.010 73.427,73.337 73.431 C 76.508 73.469,80.909 78.102,81.921 82.468 C 82.633 85.536,82.340 102.652,81.535 105.078 C 78.805 113.303,72.729 116.904,62.109 116.592 C 52.546 116.311,47.540 112.771,45.264 104.680 C 44.774 102.939,44.704 101.863,44.602 94.466 L 44.487 86.198 50.607 86.198 L 56.727 86.198 56.838 93.294 C 56.906 97.693,57.064 100.749,57.253 101.333 C 59.023 106.808,66.751 106.742,68.351 101.238 C 69.102 98.657,68.838 83.063,68.020 81.636 C 66.781 79.475,65.145 78.922,59.961 78.913 L 56.510 78.906 56.510 73.698 L 56.510 68.490 59.849 68.490 C 67.794 68.490,68.862 67.077,68.707 56.771 C 68.587 48.750,67.826 47.172,63.849 46.702 C 59.119 46.144,57.737 48.355,57.598 56.706 L 57.502 62.500 51.277 62.500 L 45.052 62.500 45.054 58.138 C 45.059 48.565,46.400 43.760,50.115 40.006 C 54.171 35.907,61.744 34.262,69.401 35.818 M130.051 36.728 C 134.617 37.388,136.458 39.986,136.458 45.767 L 136.458 48.195 133.789 48.121 L 131.120 48.047 130.990 45.384 C 130.832 42.156,130.473 41.603,128.513 41.562 C 127.455 41.540,127.204 41.646,126.533 42.396 L 125.765 43.256 125.838 53.942 L 125.911 64.629 126.642 65.257 C 129.202 67.458,130.951 65.425,130.975 60.221 L 130.990 57.031 129.688 57.031 L 128.385 57.031 128.385 54.688 L 128.385 52.344 132.422 52.344 L 136.458 52.344 136.458 61.328 L 136.458 70.313 134.375 70.313 L 132.292 70.313 132.280 68.815 L 132.269 67.318 131.753 68.295 C 129.473 72.614,122.592 71.300,120.503 66.146 C 119.697 64.160,119.595 44.416,120.376 41.892 C 121.243 39.093,123.560 37.195,126.693 36.721 C 127.409 36.612,128.053 36.511,128.125 36.496 C 128.197 36.481,129.063 36.585,130.051 36.728 M151.412 37.167 C 155.953 38.599,156.578 40.769,156.463 54.694 L 156.380 64.726 155.525 66.463 C 152.402 72.803,142.245 72.189,139.916 65.519 C 139.210 63.496,139.215 43.781,139.923 41.752 C 141.412 37.486,146.271 35.547,151.412 37.167 M171.464 37.167 C 176.005 38.599,176.630 40.769,176.515 54.694 L 176.432 64.726 175.577 66.463 C 172.454 72.803,162.297 72.189,159.968 65.519 C 159.223 63.384,159.270 43.733,160.026 41.695 C 161.614 37.409,166.321 35.546,171.464 37.167 M191.998 37.585 C 193.499 38.269,194.923 39.701,195.607 41.213 L 196.224 42.578 196.224 53.516 C 196.224 65.776,196.202 65.941,194.317 68.028 C 192.480 70.061,192.036 70.172,185.352 70.265 L 179.427 70.348 179.427 53.642 L 179.427 36.936 185.221 37.037 C 189.994 37.120,191.189 37.216,191.998 37.585 M210.417 44.010 L 210.417 51.042 212.891 51.042 L 215.365 51.042 215.365 44.010 L 215.365 36.979 218.359 36.979 L 221.354 36.979 221.354 53.646 L 221.354 70.313 218.359 70.313 L 215.365 70.313 215.365 63.021 L 215.365 55.729 212.891 55.729 L 210.417 55.729 210.417 63.021 L 210.417 70.313 207.422 70.313 L 204.427 70.313 204.427 53.646 L 204.427 36.979 207.422 36.979 L 210.417 36.979 210.417 44.010 M237.760 39.323 L 237.760 41.667 233.984 41.667 L 230.208 41.667 230.208 46.354 L 230.208 51.042 232.943 51.042 L 235.677 51.042 235.677 53.385 L 235.677 55.729 232.943 55.729 L 230.208 55.729 230.208 60.677 L 230.208 65.625 233.984 65.625 L 237.760 65.625 237.760 67.969 L 237.760 70.313 230.990 70.313 L 224.219 70.313 224.219 53.646 L 224.219 36.979 230.990 36.979 L 237.760 36.979 237.760 39.323 M252.604 37.189 C 252.604 37.393,258.430 68.158,258.741 69.596 L 258.896 70.313 255.901 70.313 L 252.906 70.313 252.764 69.596 C 252.685 69.202,252.498 68.118,252.346 67.188 C 251.830 64.006,252.202 64.323,248.985 64.323 L 246.156 64.323 245.686 67.318 L 245.217 70.313 242.382 70.313 C 239.805 70.313,239.560 70.271,239.683 69.857 C 239.861 69.258,245.833 37.586,245.833 37.243 C 245.833 37.078,247.106 36.979,249.219 36.979 C 251.081 36.979,252.604 37.074,252.604 37.189 M266.667 51.302 L 266.667 65.625 270.052 65.625 L 273.438 65.625 273.438 67.969 L 273.438 70.313 267.188 70.313 L 260.938 70.313 260.938 53.646 L 260.938 36.979 263.802 36.979 L 266.667 36.979 266.667 51.302 M286.979 39.323 L 286.979 41.667 284.635 41.667 L 282.292 41.667 282.292 55.990 L 282.292 70.313 279.427 70.313 L 276.563 70.313 276.563 55.990 L 276.563 41.667 274.219 41.667 L 271.875 41.667 271.875 39.323 L 271.875 36.979 279.427 36.979 L 286.979 36.979 286.979 39.323 M295.052 44.010 L 295.052 51.042 297.656 51.042 L 300.260 51.042 300.260 44.010 L 300.260 36.979 303.125 36.979 L 305.990 36.979 305.990 53.646 L 305.990 70.313 303.125 70.313 L 300.260 70.313 300.260 63.021 L 300.260 55.729 297.656 55.729 L 295.052 55.729 295.052 63.021 L 295.052 70.313 292.188 70.313 L 289.323 70.313 289.323 53.646 L 289.323 36.979 292.188 36.979 L 295.052 36.979 295.052 44.010 M146.738 41.770 C 145.342 42.378,145.312 42.627,145.313 53.723 C 145.314 63.383,145.342 63.977,145.822 64.765 C 146.728 66.251,148.995 66.248,150.104 64.760 C 150.812 63.808,150.968 44.633,150.281 43.002 C 149.707 41.642,148.219 41.125,146.738 41.770 M166.791 41.770 C 165.394 42.378,165.364 42.627,165.366 53.723 C 165.366 63.383,165.394 63.977,165.874 64.765 C 166.780 66.251,169.047 66.248,170.156 64.760 C 170.865 63.808,171.021 44.633,170.333 43.002 C 169.759 41.642,168.271 41.125,166.791 41.770 M185.417 53.608 L 185.417 65.625 186.914 65.621 C 190.574 65.612,190.624 65.449,190.625 53.703 C 190.625 41.857,190.692 42.084,187.108 41.749 L 185.417 41.591 185.417 53.608 M248.869 48.177 C 248.777 48.535,248.348 50.996,247.917 53.646 C 247.485 56.296,247.072 58.727,246.998 59.049 C 246.869 59.619,246.922 59.635,248.953 59.635 C 250.459 59.635,251.037 59.545,251.025 59.310 C 250.944 57.666,249.004 47.652,248.869 48.177 M341.488 83.949 C 344.119 85.237,345.005 87.044,345.239 91.602 L 345.390 94.531 342.617 94.531 L 339.844 94.531 339.844 92.037 C 339.844 89.023,339.208 88.021,337.295 88.021 C 334.571 88.021,334.377 88.828,334.383 100.130 C 334.389 111.702,334.512 112.240,337.150 112.240 C 339.294 112.240,339.583 111.653,339.583 107.304 L 339.583 103.646 338.281 103.646 L 336.979 103.646 336.979 101.302 L 336.979 98.958 341.146 98.958 L 345.313 98.958 345.313 107.943 L 345.313 116.927 343.099 116.927 L 340.885 116.927 340.885 115.586 L 340.885 114.246 340.297 115.131 C 337.640 119.129,330.661 117.271,329.105 112.150 C 328.529 110.256,328.644 89.830,329.241 88.123 C 330.788 83.691,336.784 81.648,341.488 83.949 M131.872 83.789 C 131.946 84.040,133.361 91.393,135.015 100.130 C 136.669 108.867,138.071 116.224,138.130 116.479 C 138.228 116.907,137.999 116.937,135.206 116.870 L 132.175 116.797 132.003 115.755 C 131.908 115.182,131.689 113.864,131.516 112.826 L 131.203 110.938 128.367 110.938 C 125.141 110.938,125.514 110.620,124.997 113.802 C 124.846 114.733,124.658 115.817,124.580 116.211 L 124.438 116.927 121.724 116.927 C 120.232 116.927,119.010 116.825,119.010 116.699 C 119.010 116.479,124.458 87.476,125.020 84.701 L 125.297 83.333 128.517 83.333 C 131.357 83.333,131.752 83.387,131.872 83.789 M148.812 92.578 L 151.693 101.693 151.761 92.513 L 151.830 83.333 154.170 83.333 L 156.510 83.333 156.510 100.140 L 156.510 116.946 153.979 116.871 L 151.448 116.797 148.315 106.825 L 145.182 96.853 145.114 106.890 L 145.046 116.927 142.575 116.927 L 140.104 116.927 140.104 100.304 C 140.104 91.161,140.186 83.599,140.286 83.499 C 140.386 83.399,141.697 83.350,143.200 83.390 L 145.931 83.464 148.812 92.578 M170.018 83.606 C 175.838 84.551,176.662 86.807,176.503 101.369 C 176.346 115.817,175.698 116.703,165.169 116.879 L 159.635 116.972 159.635 100.153 L 159.635 83.333 163.997 83.335 C 166.396 83.336,169.106 83.458,170.018 83.606 M189.403 83.919 C 189.478 84.242,190.043 88.689,190.659 93.803 C 191.274 98.917,191.821 103.057,191.874 103.004 C 191.960 102.919,194.531 84.072,194.531 83.530 C 194.531 83.411,195.615 83.347,196.940 83.389 L 199.349 83.464 200.767 93.165 C 201.547 98.501,202.261 102.778,202.354 102.670 C 202.446 102.562,203.023 98.255,203.635 93.099 C 204.246 87.943,204.799 83.636,204.863 83.529 C 205.199 82.962,209.635 83.325,209.633 83.919 C 209.632 84.242,208.694 91.712,207.550 100.521 C 206.406 109.329,205.469 116.628,205.469 116.741 C 205.469 116.853,204.210 116.911,202.672 116.871 L 199.874 116.797 198.312 106.958 C 197.453 101.546,196.722 97.210,196.687 97.322 C 196.597 97.611,193.750 116.372,193.750 116.676 C 193.750 117.295,188.300 116.968,188.159 116.341 C 187.948 115.405,183.852 84.567,183.853 83.919 C 183.854 83.349,183.928 83.333,186.560 83.333 C 189.153 83.333,189.272 83.358,189.403 83.919 M225.466 85.872 L 225.540 88.281 221.624 88.281 L 217.708 88.281 217.708 92.839 L 217.708 97.396 220.443 97.396 L 223.177 97.396 223.177 99.870 L 223.177 102.344 220.443 102.344 L 217.708 102.344 217.708 107.154 L 217.708 111.965 221.549 112.037 L 225.391 112.109 225.466 114.518 L 225.540 116.927 218.760 116.927 L 211.979 116.927 211.979 100.126 L 211.979 83.325 218.685 83.394 L 225.391 83.464 225.466 85.872 M234.052 97.721 L 234.119 111.979 237.372 111.979 L 240.625 111.979 240.625 114.453 L 240.625 116.927 234.375 116.927 L 228.125 116.927 228.125 100.122 L 228.125 83.316 231.055 83.390 L 233.984 83.464 234.052 97.721 M248.698 97.656 L 248.698 111.979 252.083 111.979 L 255.469 111.979 255.469 114.453 L 255.469 116.927 249.219 116.927 L 242.969 116.927 242.969 100.130 L 242.969 83.333 245.833 83.333 L 248.698 83.333 248.698 97.656 M276.593 83.827 C 279.807 84.827,280.572 86.324,280.686 91.840 C 280.786 96.648,280.439 98.034,278.920 98.898 C 277.965 99.442,277.929 99.634,278.743 99.838 C 280.928 100.387,281.899 103.204,281.717 108.463 C 281.465 115.697,280.150 116.720,270.898 116.878 L 265.104 116.977 265.104 100.125 L 265.104 83.273 270.378 83.404 C 273.278 83.475,276.075 83.666,276.593 83.827 M297.656 85.807 L 297.656 88.281 293.880 88.281 L 290.104 88.281 290.104 92.839 L 290.104 97.396 292.839 97.396 L 295.573 97.396 295.573 99.870 L 295.573 102.344 292.839 102.344 L 290.104 102.344 290.104 107.161 L 290.104 111.979 293.880 111.979 L 297.656 111.979 297.656 114.453 L 297.656 116.927 290.885 116.927 L 284.115 116.927 284.115 100.304 C 284.115 91.161,284.193 83.602,284.288 83.507 C 284.384 83.411,287.431 83.333,291.059 83.333 L 297.656 83.333 297.656 85.807 M306.250 100.130 L 306.250 116.927 303.385 116.927 L 300.521 116.927 300.521 100.130 L 300.521 83.333 303.385 83.333 L 306.250 83.333 306.250 100.130 M317.853 92.381 L 320.703 101.429 320.772 92.371 L 320.840 83.314 323.246 83.389 L 325.651 83.464 325.718 100.195 L 325.785 116.927 323.195 116.927 L 320.605 116.927 319.306 112.826 C 318.591 110.570,317.207 106.170,316.230 103.049 L 314.453 97.375 314.385 107.151 L 314.317 116.927 311.846 116.927 L 309.375 116.927 309.375 100.130 L 309.375 83.333 312.189 83.333 L 315.002 83.333 317.853 92.381 M165.365 100.130 L 165.365 111.979 167.074 111.979 C 170.638 111.979,170.573 112.200,170.573 100.155 C 170.573 88.202,170.597 88.281,166.940 88.281 L 165.365 88.281 165.365 100.130 M270.833 92.808 L 270.833 97.396 272.367 97.396 C 274.967 97.396,275.130 97.128,275.130 92.871 C 275.130 88.604,275.065 88.490,272.529 88.329 L 270.833 88.221 270.833 92.808 M127.368 99.424 C 126.892 102.391,126.445 105.081,126.374 105.404 C 126.249 105.973,126.304 105.990,128.316 105.990 L 130.386 105.990 129.400 100.101 C 128.857 96.862,128.373 94.171,128.323 94.122 C 128.273 94.072,127.843 96.458,127.368 99.424 M262.500 101.302 L 262.500 103.646 258.464 103.646 L 254.427 103.646 254.427 101.302 L 254.427 98.958 258.464 98.958 L 262.500 98.958 262.500 101.302 M270.833 107.031 L 270.833 111.979 272.668 111.979 C 275.589 111.979,275.781 111.674,275.781 107.031 C 275.781 102.389,275.589 102.083,272.668 102.083 L 270.833 102.083 270.833 107.031 M269.754 151.936 C 270.133 152.133,270.695 152.569,271.003 152.905 C 271.732 153.699,296.881 205.860,297.061 206.952 C 297.764 211.204,292.408 214.008,289.281 211.024 C 288.854 210.618,284.751 202.411,278.617 189.695 C 273.134 178.327,268.617 169.056,268.581 169.092 C 268.545 169.129,257.370 206.177,243.748 251.422 C 229.317 299.352,218.760 333.996,218.452 334.427 C 217.225 336.151,214.394 336.710,212.445 335.615 C 210.370 334.449,210.861 336.761,203.215 292.137 C 199.370 269.694,196.149 251.413,196.057 251.512 C 195.965 251.612,191.188 260.423,185.442 271.094 C 173.475 293.317,173.562 293.195,170.177 292.560 C 166.694 291.907,167.067 293.491,161.966 257.685 C 159.518 240.499,157.485 226.408,157.448 226.372 C 157.412 226.335,153.659 234.672,149.109 244.898 C 140.710 263.775,140.352 264.471,138.720 265.088 C 137.139 265.685,71.764 265.451,70.574 264.844 C 67.708 263.382,67.443 258.891,70.111 256.988 L 70.964 256.380 102.419 256.250 L 133.874 256.120 144.825 231.510 C 151.386 216.768,156.046 206.616,156.448 206.190 C 158.873 203.620,163.403 204.788,164.274 208.208 C 164.419 208.778,166.559 223.483,169.029 240.885 C 171.499 258.288,173.592 272.611,173.680 272.714 C 173.768 272.818,178.466 264.323,184.121 253.836 C 189.775 243.349,194.725 234.400,195.121 233.948 C 197.264 231.501,201.399 232.106,202.666 235.051 C 202.906 235.610,205.991 252.943,209.521 273.568 C 213.051 294.193,215.957 311.086,215.978 311.109 C 215.999 311.131,226.613 275.916,239.564 232.853 C 252.516 189.790,263.257 154.264,263.433 153.906 C 264.513 151.707,267.516 150.771,269.754 151.936 M286.054 229.304 C 289.130 230.105,292.240 232.116,296.528 236.074 L 298.962 238.321 300.978 236.455 C 308.583 229.418,313.505 227.748,320.103 229.963 C 331.418 233.762,336.005 249.665,328.915 260.505 C 328.027 261.861,323.782 266.310,313.340 276.823 L 298.986 291.276 284.548 276.823 C 273.730 265.993,269.818 261.913,268.945 260.547 C 261.048 248.193,267.709 231.170,281.216 229.185 C 283.487 228.852,284.402 228.874,286.054 229.304 " stroke="none" fill="#249c4c" fill-rule="evenodd"></path><path id="path4" d="M299.858 237.565 L 298.828 238.672 299.935 237.642 C 300.964 236.685,301.161 236.458,300.964 236.458 C 300.922 236.458,300.424 236.956,299.858 237.565 M297.135 236.800 C 297.135 236.845,297.516 237.226,297.982 237.647 L 298.828 238.411 298.063 237.565 C 297.350 236.776,297.135 236.599,297.135 236.800 " stroke="none" fill="#84bc84" fill-rule="evenodd"></path></g></svg>